<svg width="87" height="40" viewBox="0 0 87 40" fill="none" xmlns="http://www.w3.org/2000/svg">
<path d="M0 6.9586C0 3.11547 3.11547 0 6.9586 0H80.0239C83.867 0 86.9824 3.11547 86.9824 6.9586V17.9764C86.9824 21.8195 83.867 24.935 80.0239 24.935H6.95859C3.11547 24.935 0 21.8195 0 17.9764V6.9586Z" fill="white"/>
<path fill-rule="evenodd" clip-rule="evenodd" d="M80.0239 1.44971H6.9586C3.91612 1.44971 1.44971 3.91612 1.44971 6.9586V17.9764C1.44971 21.0188 3.91612 23.4853 6.95859 23.4853H80.0239C83.0663 23.4853 85.5327 21.0188 85.5327 17.9764V6.9586C85.5327 3.91612 83.0663 1.44971 80.0239 1.44971ZM6.9586 0C3.11547 0 0 3.11547 0 6.9586V17.9764C0 21.8195 3.11547 24.935 6.95859 24.935H80.0239C83.867 24.935 86.9824 21.8195 86.9824 17.9764V6.9586C86.9824 3.11547 83.867 0 80.0239 0H6.9586Z" fill="white"/>
<path d="M10.7627 12.8965C10.7627 12.2594 10.905 11.6904 11.1895 11.1894C11.4802 10.6822 11.873 10.2894 12.3678 10.011C12.8688 9.72652 13.4286 9.58425 14.0472 9.58425C14.7708 9.58425 15.4049 9.76982 15.9492 10.1409C16.4935 10.5121 16.8739 11.0255 17.0904 11.6811H15.5966C15.4481 11.3718 15.2378 11.1399 14.9657 10.9853C14.6997 10.8306 14.3904 10.7533 14.0379 10.7533C13.6606 10.7533 13.3235 10.843 13.0266 11.0224C12.7358 11.1956 12.507 11.443 12.34 11.7646C12.1792 12.0863 12.0987 12.4636 12.0987 12.8965C12.0987 13.3233 12.1792 13.7007 12.34 14.0285C12.507 14.3501 12.7358 14.6006 13.0266 14.78C13.3235 14.9532 13.6606 15.0398 14.0379 15.0398C14.3904 15.0398 14.6997 14.9625 14.9657 14.8078C15.2378 14.647 15.4481 14.412 15.5966 14.1027H17.0904C16.8739 14.7645 16.4935 15.281 15.9492 15.6522C15.411 16.0171 14.777 16.1996 14.0472 16.1996C13.4286 16.1996 12.8688 16.0604 12.3678 15.782C11.873 15.4975 11.4802 15.1047 11.1895 14.6037C10.905 14.1027 10.7627 13.5336 10.7627 12.8965Z" fill="black"/>
<path d="M17.8658 13.5553C17.8658 13.0357 17.9679 12.5749 18.172 12.1729C18.3823 11.7708 18.6637 11.4615 19.0163 11.245C19.3751 11.0285 19.774 10.9203 20.2132 10.9203C20.5967 10.9203 20.9307 10.9976 21.2152 11.1523C21.5059 11.3069 21.7379 11.5017 21.9111 11.7368V11.0038H23.2193V16.1439H21.9111V15.3924C21.7441 15.6336 21.5121 15.8346 21.2152 15.9954C20.9245 16.1501 20.5874 16.2274 20.2039 16.2274C19.7709 16.2274 19.3751 16.1161 19.0163 15.8934C18.6637 15.6707 18.3823 15.3583 18.172 14.9563C17.9679 14.5481 17.8658 14.0811 17.8658 13.5553ZM21.9111 13.5738C21.9111 13.2584 21.8492 12.9893 21.7255 12.7667C21.6018 12.5378 21.4348 12.3646 21.2245 12.2471C21.0142 12.1234 20.7884 12.0615 20.5472 12.0615C20.306 12.0615 20.0833 12.1203 19.8792 12.2378C19.6751 12.3553 19.5081 12.5285 19.3782 12.7574C19.2545 12.98 19.1926 13.246 19.1926 13.5553C19.1926 13.8646 19.2545 14.1367 19.3782 14.3718C19.5081 14.6006 19.6751 14.7769 19.8792 14.9006C20.0895 15.0243 20.3122 15.0862 20.5472 15.0862C20.7884 15.0862 21.0142 15.0274 21.2245 14.9099C21.4348 14.7862 21.6018 14.613 21.7255 14.3903C21.8492 14.1615 21.9111 13.8893 21.9111 13.5738Z" fill="black"/>
<path d="M25.7869 9.27808V16.1439H24.4879V9.27808H25.7869Z" fill="black"/>
<path d="M26.7362 13.5738C26.7362 13.0419 26.8445 12.578 27.061 12.1821C27.2774 11.7801 27.5774 11.4708 27.9609 11.2543C28.3444 11.0316 28.7836 10.9203 29.2784 10.9203C29.9155 10.9203 30.4413 11.0811 30.8557 11.4028C31.2763 11.7182 31.5578 12.1636 31.7 12.7388H30.299C30.2248 12.5161 30.098 12.343 29.9186 12.2192C29.7454 12.0893 29.5289 12.0244 29.2692 12.0244C28.898 12.0244 28.6042 12.1605 28.3877 12.4326C28.1712 12.6986 28.063 13.079 28.063 13.5738C28.063 14.0625 28.1712 14.4429 28.3877 14.7151C28.6042 14.981 28.898 15.114 29.2692 15.114C29.7949 15.114 30.1382 14.879 30.299 14.4089H31.7C31.5578 14.9656 31.2763 15.4078 30.8557 15.7357C30.4351 16.0635 29.9093 16.2274 29.2784 16.2274C28.7836 16.2274 28.3444 16.1191 27.9609 15.9027C27.5774 15.68 27.2774 15.3707 27.061 14.9748C26.8445 14.5728 26.7362 14.1058 26.7362 13.5738Z" fill="black"/>
<path d="M37.5041 11.0038V16.1439H36.1959V15.4944C36.0289 15.7171 35.8093 15.8934 35.5371 16.0233C35.2711 16.147 34.9804 16.2088 34.665 16.2088C34.2629 16.2088 33.9072 16.1253 33.598 15.9583C33.2887 15.7851 33.0444 15.5346 32.865 15.2068C32.6918 14.8728 32.6052 14.4769 32.6052 14.0192V11.0038H33.9042V13.8336C33.9042 14.2419 34.0062 14.5573 34.2103 14.78C34.4145 14.9965 34.6928 15.1047 35.0454 15.1047C35.4041 15.1047 35.6856 14.9965 35.8897 14.78C36.0938 14.5573 36.1959 14.2419 36.1959 13.8336V11.0038H37.5041Z" fill="black"/>
<path d="M40.0846 9.27808V16.1439H38.7857V9.27808H40.0846Z" fill="black"/>
<path d="M41.034 13.5553C41.034 13.0357 41.136 12.5749 41.3401 12.1729C41.5504 11.7708 41.8319 11.4615 42.1845 11.245C42.5432 11.0285 42.9422 10.9203 43.3813 10.9203C43.7648 10.9203 44.0988 10.9976 44.3834 11.1523C44.6741 11.3069 44.906 11.5017 45.0792 11.7368V11.0038H46.3874V16.1439H45.0792V15.3924C44.9122 15.6336 44.6803 15.8346 44.3834 15.9954C44.0927 16.1501 43.7555 16.2274 43.3721 16.2274C42.9391 16.2274 42.5432 16.1161 42.1845 15.8934C41.8319 15.6707 41.5504 15.3583 41.3401 14.9563C41.136 14.5481 41.034 14.0811 41.034 13.5553ZM45.0792 13.5738C45.0792 13.2584 45.0174 12.9893 44.8937 12.7667C44.77 12.5378 44.6029 12.3646 44.3926 12.2471C44.1823 12.1234 43.9566 12.0615 43.7153 12.0615C43.4741 12.0615 43.2514 12.1203 43.0473 12.2378C42.8432 12.3553 42.6762 12.5285 42.5463 12.7574C42.4226 12.98 42.3607 13.246 42.3607 13.5553C42.3607 13.8646 42.4226 14.1367 42.5463 14.3718C42.6762 14.6006 42.8432 14.7769 43.0473 14.9006C43.2576 15.0243 43.4803 15.0862 43.7153 15.0862C43.9566 15.0862 44.1823 15.0274 44.3926 14.9099C44.6029 14.7862 44.77 14.613 44.8937 14.3903C45.0174 14.1615 45.0792 13.8893 45.0792 13.5738Z" fill="black"/>
<path d="M49.1684 12.0708V14.5573C49.1684 14.7305 49.2086 14.8573 49.289 14.9377C49.3756 15.012 49.5179 15.0491 49.7158 15.0491H50.3189V16.1439H49.5024C48.4076 16.1439 47.8602 15.6119 47.8602 14.5481V12.0708H47.2478V11.0038H47.8602V9.7327H49.1684V11.0038H50.3189V12.0708H49.1684Z" fill="black"/>
<path d="M56.0314 13.4625C56.0314 13.6481 56.019 13.8151 55.9943 13.9635H52.2366C52.2676 14.3347 52.3975 14.6254 52.6263 14.8357C52.8552 15.046 53.1366 15.1511 53.4706 15.1511C53.9531 15.1511 54.2964 14.9439 54.5005 14.5295H55.9015C55.7531 15.0243 55.4685 15.4326 55.0479 15.7542C54.6273 16.0697 54.1108 16.2274 53.4985 16.2274C53.0036 16.2274 52.5583 16.1191 52.1624 15.9027C51.7727 15.68 51.4666 15.3676 51.2439 14.9656C51.0274 14.5635 50.9192 14.0996 50.9192 13.5738C50.9192 13.0419 51.0274 12.5749 51.2439 12.1729C51.4604 11.7708 51.7635 11.4615 52.1531 11.245C52.5428 11.0285 52.9913 10.9203 53.4985 10.9203C53.9871 10.9203 54.4232 11.0255 54.8067 11.2358C55.1964 11.4461 55.4964 11.7461 55.7067 12.1357C55.9232 12.5192 56.0314 12.9615 56.0314 13.4625ZM54.6861 13.0914C54.6799 12.7574 54.5593 12.4914 54.3242 12.2935C54.0892 12.0893 53.8016 11.9873 53.4614 11.9873C53.1397 11.9873 52.8676 12.0863 52.6449 12.2842C52.4284 12.4759 52.2954 12.745 52.2459 13.0914H54.6861Z" fill="black"/>
<path d="M67.2666 7.53857H76.5447V16.8167H67.2666V7.53857Z" fill="white"/>
<path fill-rule="evenodd" clip-rule="evenodd" d="M75.095 8.98828H68.7163V15.367H75.095V8.98828ZM67.2666 7.53857V16.8167H76.5447V7.53857H67.2666Z" fill="black"/>
<path d="M57.389 15.5962L59.8022 19.7759L59.8727 19.7311C60.3422 19.4354 61.0004 19.0472 61.531 18.8681C62.0117 18.7055 62.5266 18.6626 62.9227 18.6556C63.4778 18.6469 63.9665 18.8429 64.3549 19.146L64.5474 19.0102C65.0062 18.6961 65.7355 18.2463 66.4254 18.1476C67.1263 18.0466 67.9185 18.2848 68.4159 18.4676C68.6112 18.5394 68.7883 18.6116 68.9363 18.6759L69.832 18.1588C70.262 17.9106 70.7393 17.7552 71.233 17.7027C71.7268 17.6502 72.226 17.7017 72.6986 17.854C73.1713 18.0062 73.6067 18.2558 73.977 18.5867C74.3472 18.9175 74.6441 19.3223 74.8483 19.7748L76.842 24.1947C77.2014 24.9907 77.3891 25.8535 77.3929 26.7268L77.4149 31.7229C77.4171 32.1927 77.295 32.6548 77.0611 33.0622C76.8272 33.4697 76.4897 33.8081 76.0829 34.0432L66.3845 39.6425C65.9555 39.8902 65.4661 40.0134 64.971 39.9984C64.476 39.9834 63.9949 39.8307 63.5817 39.5576L59.5529 36.8975L52.0311 32.7226C51.4581 32.4021 51.0218 31.8836 50.804 31.2642C50.5861 30.6449 50.6018 29.9673 50.8481 29.3587C51.0944 28.7501 51.5543 28.2523 52.1415 27.9587C52.7287 27.6651 53.4029 27.5959 54.0375 27.7641L57.8162 28.7753L52.0027 18.7059C51.5903 17.9917 51.4785 17.1428 51.692 16.3462C51.9055 15.5495 52.4267 14.8703 53.1409 14.4579C53.8552 14.0455 54.704 13.9338 55.5007 14.1472C56.2974 14.3607 56.9766 14.8819 57.389 15.5962Z" fill="white"/>
<path d="M54.0294 15.9968C54.3356 15.8201 54.6993 15.7722 55.0408 15.8637C55.3822 15.9552 55.6733 16.1786 55.85 16.4847L61.4032 26.1031C61.521 26.3071 61.7151 26.4561 61.9427 26.517C62.1703 26.578 62.4129 26.5461 62.6169 26.4283C62.821 26.3105 62.9699 26.1164 63.0309 25.8888C63.0919 25.6612 63.06 25.4186 62.9422 25.2146L60.6916 21.3164L60.8204 21.2338C61.2975 20.9337 61.7936 20.6556 62.1001 20.5504C62.3303 20.4729 62.6379 20.4369 62.9513 20.4324C63.1071 20.4286 63.3127 20.5254 63.4611 20.7824L65.2506 23.8818C65.3684 24.0859 65.5625 24.2348 65.7901 24.2958C66.0177 24.3568 66.2602 24.3248 66.4643 24.207C66.6684 24.0892 66.8173 23.8951 66.8783 23.6675C66.9393 23.4399 66.9073 23.1974 66.7895 22.9933L65.399 20.5848L65.5532 20.4753C66.0182 20.1576 66.4431 19.941 66.6784 19.9078C66.9008 19.8737 67.324 19.9598 67.8083 20.1377C68.0183 20.2135 68.208 20.2968 68.3463 20.3586L69.5422 22.43C69.66 22.6341 69.8541 22.783 70.0817 22.844C70.3093 22.905 70.5518 22.873 70.7559 22.7552C70.96 22.6374 71.1089 22.4433 71.1699 22.2157C71.2309 21.9881 71.199 21.7456 71.0811 21.5415L70.1926 20.0025L70.7189 19.6987C70.934 19.5745 71.1727 19.4968 71.4197 19.4705C71.6667 19.4443 71.9164 19.4701 72.1527 19.5463C72.3891 19.6225 72.6069 19.7474 72.792 19.913C72.9771 20.0785 73.1255 20.281 73.2276 20.5074L75.2228 24.9265C75.479 25.4945 75.6127 26.1101 75.6155 26.7332L75.6384 31.7308C75.6391 31.8874 75.5984 32.0414 75.5204 32.1772C75.4425 32.3131 75.33 32.4259 75.1944 32.5042L65.496 38.1036C65.3532 38.186 65.1903 38.2271 65.0255 38.2222C64.8607 38.2174 64.7005 38.1667 64.5628 38.076L60.4767 35.3772L52.8924 31.1686C52.697 31.0594 52.5481 30.8826 52.4738 30.6715C52.3995 30.4603 52.4049 30.2292 52.4889 30.0217C52.5729 29.8142 52.7299 29.6445 52.9302 29.5445C53.1305 29.4445 53.3604 29.4211 53.5768 29.4787L59.4269 31.0463C59.5967 31.092 59.7762 31.0863 59.9428 31.03C60.1093 30.9736 60.2554 30.8692 60.3625 30.7298C60.4696 30.5904 60.533 30.4223 60.5446 30.2469C60.5562 30.0714 60.5154 29.8965 60.4276 29.7442L53.5416 17.8174C53.3649 17.5113 53.317 17.1475 53.4085 16.8061C53.5 16.4647 53.7233 16.1736 54.0294 15.9968ZM59.8022 19.7759L57.389 15.5962C56.9766 14.8819 56.2974 14.3607 55.5007 14.1472C54.704 13.9338 53.8552 14.0455 53.1409 14.4579C52.4267 14.8703 51.9055 15.5495 51.692 16.3462C51.4785 17.1428 51.5903 17.9917 52.0027 18.7059L57.8162 28.7753L54.0366 27.7625C53.402 27.5944 52.7278 27.6636 52.1406 27.9572C51.5534 28.2508 51.0935 28.7486 50.8472 29.3572C50.601 29.9658 50.5853 30.6433 50.8031 31.2627C51.0209 31.882 51.4572 32.4006 52.0303 32.7211L59.5537 36.899L63.5826 39.5591C63.9958 39.8319 64.4768 39.9841 64.9717 39.9989C65.4666 40.0136 65.9558 39.8902 66.3845 39.6425L76.0829 34.0432C76.4897 33.8081 76.8272 33.4697 77.0611 33.0622C77.295 32.6548 77.4171 32.1927 77.4149 31.7229L77.3929 26.7268C77.3891 25.8535 77.2014 24.9907 76.842 24.1947L74.8468 19.7757C74.6425 19.3231 74.3457 18.9184 73.9754 18.5875C73.6052 18.2567 73.1697 18.0071 72.6971 17.8548C72.2245 17.7026 71.7252 17.6511 71.2315 17.7036C70.7377 17.7561 70.2605 17.9115 69.8304 18.1597L68.9363 18.6759C68.765 18.6011 68.5914 18.5316 68.4159 18.4676C67.9185 18.2848 67.1263 18.0466 66.4254 18.1476C65.7355 18.2463 65.0062 18.6961 64.5474 19.0102L64.3549 19.146C63.9489 18.8212 63.4425 18.6478 62.9227 18.6556C62.4507 18.6558 61.9815 18.7274 61.531 18.8681C60.9989 19.0481 60.3422 19.4354 59.8743 19.7302L59.8022 19.7759Z" fill="black"/>
</svg>
