<svg width="200" height="219" viewBox="0 0 200 219" fill="none" xmlns="http://www.w3.org/2000/svg">
<path d="M50 180.603L0 137.301V174.8L50 218.101H150L200 174.8V137.301L150 180.603H50Z" fill="#334155"/>
<path d="M200 137.301L150 180.603V218.101L200 174.8V137.301Z" fill="#0F172A"/>
<path d="M150 180.603H50V218.101H150V180.603Z" fill="#1E293B"/>
<path d="M150 76L200 119.301L150 162.603H50L0 119.301L50 76H150Z" fill="#F8FAFC"/>
<path d="M55.75 81H143.25L187 119L143.25 157H55.75L12 119L55.75 81Z" fill="#94A3B8"/>
<path d="M50 168.603L0 125.301V119.301L50 162.603H150L200 119.301V125.301L150 168.603H50Z" fill="#F1F5F9"/>
<path d="M200 125.301L150 168.603V162.603L200 119.301V125.301Z" fill="#CBD5E1"/>
<path d="M150 168.603H50V162.603H150V168.603Z" fill="#E2E8F0"/>
<path d="M0 125.301L50 168.603H150L200 125.301V137.801L150 181.102H50L0 137.801V125.301Z" fill="#94A3B8"/>
<path d="M200 125.301L150 168.603V181.102L200 137.801V125.301Z" fill="#475569"/>
<path d="M150 168.603H50V181.102H150V168.603Z" fill="#64748B"/>
<path d="M76 101.812C76 105.678 72.866 108.812 69 108.812C65.134 108.812 62 105.678 62 101.812C62 97.9455 65.134 94.8115 69 94.8115C72.866 94.8115 76 97.9455 76 101.812Z" fill="#334155"/>
<path d="M69 108.812C72.866 108.812 76 105.678 76 101.812C76 99.4402 74.8209 97.3443 73.017 96.0781C74.4754 98.9191 74.9818 105.237 65.3409 107.78C66.4056 108.434 67.6588 108.812 69 108.812Z" fill="#1E293B"/>
<path d="M68.7244 100.752C67.7945 102.016 66.2683 102.474 65.3157 101.773C64.3631 101.073 64.3448 99.4799 65.2748 98.2152C66.2047 96.9504 67.7309 96.493 68.6835 97.1934C69.6361 97.8939 69.6544 99.487 68.7244 100.752Z" fill="#475569"/>
<path d="M162 99.8115C162 103.678 158.866 106.812 155 106.812C151.134 106.812 148 103.678 148 99.8115C148 95.9455 151.134 92.8115 155 92.8115C158.866 92.8115 162 95.9455 162 99.8115Z" fill="#334155"/>
<path d="M155 106.812C158.866 106.812 162 103.678 162 99.8115C162 97.4402 160.821 95.3443 159.017 94.0781C160.475 96.9191 160.982 103.237 151.341 105.78C152.406 106.434 153.659 106.812 155 106.812Z" fill="#1E293B"/>
<path d="M154.724 98.7517C153.794 100.016 152.268 100.474 151.316 99.7735C150.363 99.073 150.345 97.4799 151.275 96.2152C152.205 94.9504 153.731 94.493 154.683 95.1934C155.636 95.8939 155.654 97.487 154.724 98.7517Z" fill="#475569"/>
<path d="M68.3989 106.873L111.784 131.921L111.784 67.9089L68.3989 42.8606L68.3989 106.873Z" fill="#F8FAFC"/>
<path d="M111.744 131.921L155.129 106.873L155.129 42.8606L111.744 67.9089L111.744 131.921Z" fill="#F1F5F9"/>
<path d="M97.2312 93.7862L97.2312 131.706L93.7621 129.851L93.7621 91.9314L97.2312 93.7862Z" fill="#E2E8F0"/>
<path d="M97.2313 93.7862L97.2313 131.706L100.267 129.851L100.267 91.9314L97.2313 93.7862Z" fill="#CBD5E1"/>
<path d="M83.3547 86.8479L83.3547 124.768L79.8856 122.913L79.8856 84.9932L83.3547 86.8479Z" fill="#E2E8F0"/>
<path d="M83.3549 86.8479L83.3549 124.768L86.3903 122.913L86.3903 84.9932L83.3549 86.8479Z" fill="#CBD5E1"/>
<path d="M70.3456 79.0425L70.3456 116.962L66.8765 115.108L66.8765 77.1877L70.3456 79.0425Z" fill="#E2E8F0"/>
<path d="M70.3456 79.0425L70.3456 116.962L73.3811 115.108L73.3811 77.1877L70.3456 79.0425Z" fill="#CBD5E1"/>
<rect width="55.663" height="55.663" transform="matrix(0.866025 0.5 -0.866025 0.5 111.822 0)" fill="#475569"/>
<path d="M160.016 40.0774L111.811 67.9089L63.6052 40.0774L63.6052 27.8315L111.811 55.663L160.016 27.8315L160.016 40.0774Z" fill="#334155"/>
<path d="M111.811 67.9089L160.016 40.0774L160.016 27.8315L111.811 55.6631L111.811 67.9089Z" fill="#1E293B"/>
<rect width="38.789" height="12.1641" transform="matrix(0.866025 0.5 -0.866025 0.5 73.1799 72.9185)" fill="#475569"/>
<path d="M96.2377 109.528L106.772 103.446L106.772 92.4005L96.2377 98.3565L62.6454 79.0414L62.6454 90.1331L96.2377 109.528Z" fill="#334155"/>
<path d="M96.2376 109.528L106.772 103.446L106.772 92.4005L96.2376 98.3564L96.2376 109.528Z" fill="#1E293B"/>
<path d="M148.826 58.4439C148.826 55.8195 146.983 54.7557 144.71 56.0679C142.438 57.3802 140.595 60.5715 140.595 63.1959L140.595 74.3971L148.826 69.6451L148.826 58.4439Z" fill="#334155"/>
<path d="M147.1 58.4622C147.1 55.8377 146.983 54.7559 144.711 56.0682C142.438 57.3804 140.595 60.5717 140.595 63.1962V71.9844L147.1 68.4359V58.4622Z" fill="#475569"/>
<path d="M73.8146 57.5765C73.8146 54.952 75.6571 53.8883 77.93 55.2005C80.2028 56.5127 82.0453 59.704 82.0453 62.3285L82.0453 73.5296L73.8146 68.7776L73.8146 57.5765Z" fill="#334155"/>
<path d="M75.5407 57.5948C75.5407 54.9703 75.6571 53.8885 77.9299 55.2007C80.2028 56.513 82.0453 59.7043 82.0453 62.3287V71.1169L75.5407 67.5685V57.5948Z" fill="#475569"/>
<path d="M148.826 86.1968C148.826 83.5724 146.983 82.5086 144.71 83.8209C142.438 85.1331 140.595 88.3244 140.595 90.9489L140.595 102.15L148.826 97.398L148.826 86.1968Z" fill="#334155"/>
<path d="M147.1 86.2149C147.1 83.5904 146.983 82.5086 144.711 83.8209C142.438 85.1331 140.595 88.3244 140.595 90.9489V99.7371L147.1 96.1886V86.2149Z" fill="#475569"/>
<path d="M137.551 64.5147C137.551 61.8903 135.709 60.8265 133.436 62.1387C131.163 63.451 129.32 66.6423 129.32 69.2667L129.32 80.4679L137.551 75.7159L137.551 64.5147Z" fill="#334155"/>
<path d="M135.825 64.533C135.825 61.9085 135.709 60.8267 133.436 62.139C131.163 63.4512 129.32 66.6425 129.32 69.267V78.0552L135.825 74.5067V64.533Z" fill="#475569"/>
<path d="M85.0892 63.6475C85.0892 61.0231 86.9317 59.9593 89.2046 61.2715C91.4774 62.5838 93.3199 65.7751 93.3199 68.3995L93.3199 79.6007L85.0892 74.8487L85.0892 63.6475Z" fill="#334155"/>
<path d="M86.8155 63.6656C86.8155 61.0411 86.9319 59.9593 89.2047 61.2715C91.4776 62.5838 93.3201 65.7751 93.3201 68.3995V77.1877L86.8155 73.6393V63.6656Z" fill="#475569"/>
<path d="M137.551 92.2676C137.551 89.6432 135.709 88.5794 133.436 89.8917C131.163 91.2039 129.32 94.3952 129.32 97.0197L129.32 108.221L137.551 103.469L137.551 92.2676Z" fill="#334155"/>
<path d="M135.825 92.2857C135.825 89.6612 135.709 88.5794 133.436 89.8917C131.163 91.2039 129.32 94.3952 129.32 97.0197V105.808L135.825 102.259V92.2857Z" fill="#475569"/>
<path d="M126.277 70.5858C126.277 67.9613 124.434 66.8975 122.161 68.2098C119.888 69.522 118.046 72.7133 118.046 75.3378L118.046 86.5389L126.277 81.7869L126.277 70.5858Z" fill="#334155"/>
<path d="M124.55 70.604C124.55 67.9796 124.434 66.8978 122.161 68.21C119.888 69.5222 118.046 72.7136 118.046 75.338V84.1262L124.55 80.5778V70.604Z" fill="#475569"/>
<path d="M96.3638 69.7183C96.3638 67.0939 98.2063 66.0301 100.479 67.3423C102.752 68.6546 104.595 71.8459 104.595 74.4703L104.595 85.6715L96.3638 80.9195L96.3638 69.7183Z" fill="#334155"/>
<path d="M98.0901 69.7364C98.0901 67.1119 98.2064 66.0301 100.479 67.3423C102.752 68.6546 104.595 71.8459 104.595 74.4703V83.2585L98.0901 79.7101V69.7364Z" fill="#475569"/>
<path d="M126.277 98.3387C126.277 95.7142 124.434 94.6505 122.161 95.9627C119.888 97.2749 118.046 100.466 118.046 103.091L118.046 114.292L126.277 109.54L126.277 98.3387Z" fill="#334155"/>
<path d="M124.55 98.3567C124.55 95.7323 124.434 94.6505 122.161 95.9627C119.888 97.2749 118.046 100.466 118.046 103.091V111.879L124.55 108.33V98.3567Z" fill="#475569"/>
<path d="M94.7017 50.0967C94.7017 54.8617 90.0075 57.7671 85.8809 55.3846C81.7543 53.0021 77.5315 46.7905 77.5315 42.0255C77.5315 37.2605 83.1033 34.7725 87.2299 37.155C91.3565 39.5375 94.7017 45.3317 94.7017 50.0967Z" fill="#334155"/>
<circle r="8.62777" transform="matrix(0.866025 0.5 -2.20305e-08 1 85.0034 46.8962)" fill="#475569"/>
<line x1="84.6543" y1="40.0774" x2="84.6543" y2="46.757" stroke="black" stroke-width="2"/>
<line x1="84.3614" y1="46.05" x2="87.5102" y2="49.1987" stroke="black" stroke-width="2"/>
<path d="M159 107.812C159 111.678 155.866 114.812 152 114.812C148.134 114.812 145 111.678 145 107.812C145 103.946 148.134 100.812 152 100.812C155.866 100.812 159 103.946 159 107.812Z" fill="#334155"/>
<path d="M152 114.812C155.866 114.812 159 111.678 159 107.812C159 105.44 157.821 103.344 156.017 102.078C157.475 104.919 157.982 111.237 148.341 113.78C149.406 114.434 150.659 114.812 152 114.812Z" fill="#1E293B"/>
<path d="M151.724 106.752C150.794 108.016 149.268 108.474 148.316 107.773C147.363 107.073 147.345 105.48 148.275 104.215C149.205 102.95 150.731 102.493 151.683 103.193C152.636 103.894 152.654 105.487 151.724 106.752Z" fill="#475569"/>
<path d="M149 113.812C149 117.678 145.866 120.812 142 120.812C138.134 120.812 135 117.678 135 113.812C135 109.946 138.134 106.812 142 106.812C145.866 106.812 149 109.946 149 113.812Z" fill="#334155"/>
<path d="M142 120.812C145.866 120.812 149 117.678 149 113.812C149 111.44 147.821 109.344 146.017 108.078C147.475 110.919 147.982 117.237 138.341 119.78C139.406 120.434 140.659 120.812 142 120.812Z" fill="#1E293B"/>
<path d="M141.724 112.752C140.794 114.016 139.268 114.474 138.316 113.773C137.363 113.073 137.345 111.48 138.275 110.215C139.205 108.95 140.731 108.493 141.683 109.193C142.636 109.894 142.654 111.487 141.724 112.752Z" fill="#475569"/>
<path d="M139 120.812C139 124.678 135.866 127.812 132 127.812C128.134 127.812 125 124.678 125 120.812C125 116.946 128.134 113.812 132 113.812C135.866 113.812 139 116.946 139 120.812Z" fill="#334155"/>
<path d="M132 127.812C135.866 127.812 139 124.678 139 120.812C139 118.44 137.821 116.344 136.017 115.078C137.475 117.919 137.982 124.237 128.341 126.78C129.406 127.434 130.659 127.812 132 127.812Z" fill="#1E293B"/>
<path d="M131.724 119.752C130.794 121.016 129.268 121.474 128.316 120.773C127.363 120.073 127.345 118.48 128.275 117.215C129.205 115.95 130.731 115.493 131.683 116.193C132.636 116.894 132.654 118.487 131.724 119.752Z" fill="#475569"/>
<path d="M128 126.812C128 130.678 124.866 133.812 121 133.812C117.134 133.812 114 130.678 114 126.812C114 122.946 117.134 119.812 121 119.812C124.866 119.812 128 122.946 128 126.812Z" fill="#334155"/>
<path d="M121 133.812C124.866 133.812 128 130.678 128 126.812C128 124.44 126.821 122.344 125.017 121.078C126.475 123.919 126.982 130.237 117.341 132.78C118.406 133.434 119.659 133.812 121 133.812Z" fill="#1E293B"/>
<path d="M120.724 125.752C119.794 127.016 118.268 127.474 117.316 126.773C116.363 126.073 116.345 124.48 117.275 123.215C118.205 121.95 119.731 121.493 120.683 122.193C121.636 122.894 121.654 124.487 120.724 125.752Z" fill="#475569"/>
<circle r="15.5885" transform="matrix(0.866025 -0.5 0.866025 0.5 58 128.828)" fill="#F8FAFC"/>
<path d="M44.5 136.623C51.9559 140.927 64.0442 140.927 71.5 136.623C74.9693 134.62 76.8243 132.037 77.065 129.415V128.241C77.1009 128.632 77.1009 129.024 77.065 129.415V134.138C76.8243 136.76 74.9693 139.343 71.5 141.346C64.0442 145.65 51.9559 145.65 44.5 141.346C41.0307 139.343 39.1757 136.76 38.9351 134.138V129.415C38.8992 129.024 38.8992 128.632 38.9351 128.241V129.415C39.1757 132.037 41.0307 134.62 44.5 136.623Z" fill="#F1F5F9"/>
<circle r="13.3045" transform="matrix(0.866025 -0.5 0.866025 0.5 58.0757 128.828)" fill="#334155"/>
<path d="M67.0448 124.853C72.1154 127.781 72.1154 132.527 67.0448 135.455C61.9742 138.382 53.7531 138.382 48.6825 135.455C43.6119 132.527 43.6119 127.781 48.6825 124.853C53.7531 121.926 61.9742 121.926 67.0448 124.853Z" fill="#475569"/>
<path d="M59.3992 120.37C60.4539 120.979 60.4539 121.967 59.3992 122.575C58.3446 123.184 56.6347 123.184 55.58 122.575C54.5254 121.967 54.5254 120.979 55.58 120.37C56.6347 119.761 58.3446 119.761 59.3992 120.37Z" fill="#C4C4C4"/>
<path d="M59.3993 131.077C58.3446 131.685 56.6347 131.685 55.5801 131.077C55.0155 130.751 54.7532 130.316 54.793 129.89L54.793 121.557C54.7877 121.501 54.7877 121.444 54.793 121.388L54.793 121.557C54.8276 121.928 55.0899 122.292 55.5801 122.575C56.6347 123.184 58.3446 123.184 59.3993 122.575C59.8894 122.292 60.1517 121.928 60.1863 121.557V129.89C60.2262 130.316 59.9638 130.751 59.3993 131.077Z" fill="#CBD5E1"/>
<circle r="7.13527" transform="matrix(0.866025 -0.5 0.866025 0.5 57.5277 116.957)" fill="#F8FAFC"/>
<path d="M51.3483 120.524C54.7611 122.495 60.2942 122.495 63.707 120.524C65.295 119.608 66.144 118.426 66.2542 117.225V116.688C66.2706 116.867 66.2706 117.047 66.2542 117.225V119.387C66.144 120.588 65.295 121.77 63.707 122.686C60.2942 124.657 54.7611 124.657 51.3483 122.686C49.7603 121.77 48.9112 120.588 48.8011 119.387V117.225C48.7847 117.047 48.7847 116.867 48.8011 116.688V117.225C48.9112 118.426 49.7603 119.608 51.3483 120.524Z" fill="#F1F5F9"/>
<circle r="6.08983" transform="matrix(0.866025 -0.5 0.866025 0.5 57.5624 116.957)" fill="#334155"/>
<path d="M61.6677 115.137C63.9886 116.477 63.9886 118.65 61.6677 119.99C59.3467 121.33 55.5837 121.33 53.2628 119.99C50.9418 118.65 50.9418 116.477 53.2628 115.137C55.5837 113.797 59.3467 113.797 61.6677 115.137Z" fill="#475569"/>
<path d="M55.58 118.797C56.6347 119.406 58.3446 119.406 59.3993 118.797C59.9638 118.471 60.2262 118.037 60.1863 117.61V114.885H54.793V117.61C54.7532 118.037 55.0155 118.471 55.58 118.797Z" fill="#CBD5E1"/>
<path d="M59.3992 113.758C60.4539 114.367 60.4539 115.354 59.3992 115.963C58.3446 116.572 56.6347 116.572 55.58 115.963C54.5254 115.354 54.5254 114.367 55.58 113.758C56.6347 113.149 58.3446 113.149 59.3992 113.758Z" fill="#E2E8F0"/>
<path d="M64.5308 109.878C59.5266 108.241 57.8129 112.569 57.5815 114.937C60.9786 109.531 62.7067 112.031 64.0583 112.88C65.1395 113.559 65.9759 112.828 66.259 112.378C66.3978 110.957 65.1647 110.119 64.5308 109.878Z" fill="#475569"/>
<path d="M50.6297 109.878C55.6339 108.241 57.3477 112.569 57.579 114.937C54.182 109.531 52.4538 112.031 51.1023 112.88C50.0211 113.559 49.1846 112.828 48.9015 112.378C48.7627 110.957 49.9958 110.119 50.6297 109.878Z" fill="#475569"/>
<path d="M57.6416 115.095C58.5822 113.026 59.899 108.549 57.6416 107.194C55.3843 105.84 56.701 111.897 57.6416 115.095Z" fill="#475569"/>
</svg>
