<svg width="409" height="236" viewBox="0 0 409 236" fill="none" xmlns="http://www.w3.org/2000/svg">
<path d="M81.4064 209L43.3013 187C32.2253 180.605 26.2792 172.37 25.4627 164L25.4627 141C25.3328 139.668 25.3328 138.332 25.4627 137L25.4627 141C26.2792 149.37 32.2253 157.605 43.3013 164L81.4064 186C105.321 199.807 144.094 199.807 168.009 186L271.5 126.249C289.168 116.049 299.195 143.5 302 158.5C307.722 150.871 310.938 143.165 312.514 135.975C311.7 132.386 310.591 129.427 309.5 127.31L313.768 124.846C313.843 115.838 311.638 108.457 309.5 104.31L322.161 97C333.305 90.5664 339.256 82.2701 340.014 73.8471L340 70C340.125 71.2812 340.13 72.5656 340.014 73.8471L340.091 94.4999C340.316 103.714 334.339 112.969 322.161 120L313.768 124.846C313.74 128.342 313.367 132.083 312.514 135.975C315.058 147.184 314.726 164.532 302 181.5C299.195 166.5 289.168 139.049 271.5 149.249L168.009 209C144.094 222.807 105.321 222.807 81.4064 209Z" fill="#CBD5E1"/>
<path d="M197.454 25L43.3013 114C19.3866 127.807 19.3866 150.193 43.3013 164L81.4064 186C105.321 199.807 144.094 199.807 168.009 186L271.5 126.249C289.168 116.049 299.195 143.5 302 158.5C318.8 136.1 314 113.04 309.5 104.31L322.161 97C346.076 83.1929 346.076 60.8071 322.161 47L284.056 25C260.142 11.1929 221.368 11.1929 197.454 25Z" fill="#F8FAFC"/>
<path d="M82.4653 160.324C80.3861 159.123 78.9865 157.796 78.2668 156.341C77.527 154.875 77.5071 153.421 78.2068 151.978C78.9066 150.512 80.2761 149.191 82.3154 148.013C84.8145 146.57 87.6136 145.716 90.7125 145.451C93.8114 145.185 96.8004 145.537 99.6794 146.507L94.0413 149.762C92.7418 149.496 91.4722 149.456 90.2327 149.641C89.0131 149.814 87.9135 150.183 86.9338 150.749C85.3543 151.661 84.6246 152.717 84.7446 153.917C84.8645 155.118 85.8442 156.249 87.6835 157.311C89.5229 158.373 91.4822 158.939 93.5615 159.008C95.6408 159.077 97.4701 158.656 99.0496 157.744C100.029 157.178 100.669 156.543 100.969 155.839C101.289 155.124 101.219 154.391 100.759 153.64L106.397 150.385C108.076 152.047 108.686 153.773 108.226 155.562C107.747 157.34 106.257 158.95 103.758 160.393C101.719 161.57 99.4395 162.367 96.9203 162.782C94.4012 163.175 91.8821 163.163 89.363 162.748C86.8438 162.332 84.5446 161.524 82.4653 160.324Z" fill="#F87171"/>
<path d="M124.592 148.468C122.953 149.415 121.124 150.067 119.104 150.425C117.105 150.771 115.076 150.788 113.016 150.477C110.977 150.153 109.088 149.49 107.348 148.486C105.629 147.493 104.499 146.402 103.959 145.213C103.4 144.013 103.43 142.829 104.049 141.664C104.669 140.498 105.799 139.442 107.438 138.495C109.078 137.549 110.907 136.896 112.926 136.539C114.946 136.181 116.995 136.163 119.074 136.487C121.134 136.798 123.023 137.45 124.742 138.443C126.462 139.436 127.591 140.538 128.131 141.75C128.671 142.939 128.621 144.122 127.981 145.3C127.361 146.465 126.232 147.522 124.592 148.468ZM120.154 145.906C121.134 145.34 121.603 144.653 121.563 143.845C121.543 143.026 120.864 142.229 119.524 141.456C118.185 140.682 116.815 140.284 115.415 140.261C114.036 140.226 112.856 140.492 111.877 141.058C110.877 141.635 110.407 142.322 110.467 143.118C110.507 143.903 111.207 144.688 112.566 145.473C113.906 146.246 115.256 146.656 116.615 146.702C117.995 146.737 119.174 146.471 120.154 145.906Z" fill="#F87171"/>
<path d="M140.268 119.61C142.348 118.409 144.627 117.821 147.106 117.844C149.605 117.855 151.974 118.507 154.214 119.8L163.99 125.445L158.892 128.388L149.805 123.142C148.726 122.519 147.606 122.207 146.446 122.207C145.287 122.184 144.207 122.461 143.207 123.038C142.208 123.615 141.718 124.244 141.738 124.925C141.758 125.583 142.308 126.224 143.387 126.847L152.474 132.094L147.376 135.037L138.289 129.791C137.21 129.167 136.09 128.856 134.93 128.856C133.771 128.833 132.691 129.11 131.691 129.687C130.692 130.264 130.202 130.893 130.222 131.574C130.242 132.232 130.792 132.873 131.871 133.496L140.958 138.742L135.83 141.703L119.096 132.042L124.224 129.081L126.323 130.293C126.143 129.589 126.273 128.879 126.713 128.163C127.133 127.436 127.873 126.766 128.932 126.155C130.192 125.427 131.581 124.937 133.101 124.683C134.64 124.417 136.19 124.412 137.749 124.666C137.409 123.8 137.449 122.911 137.869 121.999C138.289 121.087 139.089 120.291 140.268 119.61Z" fill="#F87171"/>
<path d="M151.682 111.219C150.783 111.739 149.783 112.016 148.683 112.05C147.584 112.062 146.644 111.843 145.864 111.392C145.065 110.931 144.685 110.388 144.725 109.765C144.765 109.118 145.235 108.536 146.134 108.016C147.014 107.508 148.004 107.248 149.103 107.237C150.203 107.202 151.153 107.416 151.952 107.878C152.732 108.328 153.102 108.876 153.062 109.522C153.022 110.146 152.562 110.711 151.682 111.219ZM155.971 110.752L172.705 120.413L167.577 123.374L150.843 113.713L155.971 110.752Z" fill="#F87171"/>
<path d="M169.704 102.615C171.663 101.484 173.862 100.953 176.301 101.022C178.741 101.069 181.07 101.732 183.289 103.014L193.066 108.658L187.967 111.602L178.881 106.355C177.761 105.709 176.601 105.374 175.402 105.351C174.202 105.328 173.113 105.599 172.133 106.165C171.153 106.73 170.683 107.359 170.723 108.052C170.763 108.745 171.343 109.414 172.463 110.061L181.55 115.307L176.421 118.268L159.687 108.606L164.815 105.645L167.035 106.927C166.815 106.199 166.935 105.461 167.395 104.71C167.834 103.949 168.604 103.25 169.704 102.615Z" fill="#F87171"/>
<path d="M186.013 93.1299C187.193 92.4489 188.462 91.993 189.822 91.7621C191.201 91.5197 192.521 91.4851 193.78 91.6582L191.411 90.2904L196.539 87.3296L213.244 96.9738C214.783 97.8626 215.863 98.8437 216.482 99.9172C217.142 100.991 217.212 102.105 216.692 103.259C216.192 104.402 215.013 105.51 213.154 106.583C210.674 108.015 208.075 108.834 205.356 109.042C202.657 109.261 200.198 108.857 197.979 107.83L203.047 104.904C203.847 105.181 204.726 105.25 205.686 105.112C206.666 104.985 207.595 104.667 208.475 104.159C209.535 103.548 210.065 102.884 210.065 102.168C210.105 101.452 209.455 100.708 208.115 99.9345L205.746 98.5667C206.026 99.3054 205.976 100.073 205.596 100.87C205.196 101.654 204.407 102.387 203.227 103.068C201.847 103.865 200.248 104.384 198.429 104.627C196.589 104.858 194.69 104.788 192.731 104.419C190.771 104.027 188.932 103.334 187.213 102.341C185.493 101.349 184.304 100.292 183.644 99.1727C183.004 98.0415 182.894 96.9507 183.314 95.9003C183.734 94.8498 184.633 93.9264 186.013 93.1299ZM199.778 95.1211C198.499 94.3824 197.129 94.0072 195.67 93.9957C194.23 93.9726 193.001 94.2554 191.981 94.8441C190.961 95.4328 190.461 96.1484 190.481 96.9911C190.501 97.8106 191.151 98.5898 192.431 99.3285C193.71 100.067 195.08 100.454 196.539 100.489C197.999 100.5 199.238 100.212 200.258 99.6229C201.278 99.0342 201.767 98.3243 201.727 97.4932C201.708 96.6506 201.058 95.8599 199.778 95.1211Z" fill="#F87171"/>
<path d="M231.166 86.9032C229.627 87.792 227.997 88.4442 226.278 88.8597C224.558 89.2753 222.839 89.4138 221.12 89.2753C219.42 89.1252 217.861 88.6635 216.441 87.8901L221.899 84.7389C222.759 85.1429 223.629 85.3334 224.508 85.3103C225.368 85.2756 226.168 85.0448 226.908 84.6177C227.667 84.1791 228.097 83.7346 228.197 83.2845C228.277 82.8227 228.007 82.413 227.387 82.0551C226.868 81.755 226.258 81.6107 225.558 81.6223C224.878 81.6223 224.168 81.7088 223.429 81.882C222.709 82.0436 221.739 82.3149 220.52 82.6958C218.74 83.2383 217.211 83.6365 215.931 83.8905C214.652 84.1444 213.292 84.2137 211.853 84.0983C210.413 83.9828 209.034 83.5442 207.714 82.7823C205.755 81.6511 204.935 80.3583 205.255 78.9039C205.555 77.4379 206.844 76.047 209.124 74.7311C211.443 73.3921 213.872 72.636 216.411 72.4629C218.93 72.2782 221.229 72.7284 223.309 73.8134L217.761 77.0166C217.041 76.6472 216.261 76.4856 215.422 76.5318C214.562 76.5664 213.772 76.7915 213.052 77.2071C212.433 77.5649 212.103 77.9516 212.063 78.3671C212.003 78.7712 212.283 79.1521 212.902 79.5099C213.582 79.9024 214.432 80.0236 215.451 79.8735C216.471 79.7235 217.881 79.3829 219.68 78.852C221.499 78.3325 223.039 77.9516 224.298 77.7092C225.578 77.4553 226.928 77.3802 228.347 77.4841C229.767 77.588 231.106 78.0035 232.366 78.7308C233.565 79.4233 234.345 80.2313 234.705 81.1548C235.085 82.0667 234.985 83.0248 234.405 84.029C233.825 85.0332 232.746 85.9913 231.166 86.9032Z" fill="#F87171"/>
<path d="M249.647 76.268C248.007 77.2146 246.178 77.8667 244.159 78.2246C242.159 78.5709 240.13 78.5882 238.071 78.2765C236.031 77.9533 234.142 77.2896 232.403 76.2853C230.683 75.2926 229.554 74.2018 229.014 73.0129C228.454 71.8124 228.484 70.6293 229.104 69.4634C229.724 68.2976 230.853 67.2414 232.493 66.2949C234.132 65.3484 235.961 64.6962 237.981 64.3383C240 63.9805 242.049 63.9632 244.129 64.2864C246.188 64.5981 248.077 65.2502 249.797 66.2429C251.516 67.2356 252.646 68.338 253.185 69.55C253.725 70.7389 253.675 71.9221 253.036 73.0995C252.416 74.2653 251.286 75.3215 249.647 76.268ZM245.208 73.7055C246.188 73.1399 246.658 72.4531 246.618 71.6451C246.598 70.8255 245.918 70.029 244.578 69.2557C243.239 68.4823 241.869 68.084 240.47 68.061C239.09 68.0263 237.911 68.2918 236.931 68.8574C235.931 69.4346 235.462 70.1214 235.522 70.9178C235.562 71.7028 236.261 72.4877 237.621 73.2726C238.96 74.046 240.31 74.4558 241.669 74.502C243.049 74.5366 244.229 74.2711 245.208 73.7055Z" fill="#F87171"/>
<path d="M268.742 65.2436C267.102 66.1901 265.273 66.8423 263.254 67.2001C261.254 67.5464 259.225 67.5637 257.166 67.252C255.126 66.9288 253.237 66.2651 251.498 65.2609C249.778 64.2682 248.649 63.1774 248.109 61.9884C247.549 60.788 247.579 59.6048 248.199 58.439C248.819 57.2731 249.948 56.2169 251.588 55.2704C253.227 54.3239 255.056 53.6717 257.076 53.3139C259.095 52.956 261.144 52.9387 263.224 53.2619C265.283 53.5736 267.172 54.2258 268.892 55.2185C270.611 56.2112 271.741 57.3135 272.28 58.5255C272.82 59.7145 272.77 60.8976 272.13 62.075C271.511 63.2408 270.381 64.297 268.742 65.2436ZM264.303 62.681C265.283 62.1154 265.753 61.4286 265.713 60.6206C265.693 59.801 265.013 59.0046 263.673 58.2312C262.334 57.4578 260.964 57.0596 259.565 57.0365C258.185 57.0019 257.006 57.2673 256.026 57.833C255.026 58.4101 254.557 59.0969 254.617 59.8934C254.657 60.6783 255.356 61.4632 256.716 62.2482C258.055 63.0215 259.405 63.4313 260.764 63.4775C262.144 63.5121 263.324 63.2466 264.303 62.681Z" fill="#F87171"/>
<path d="M273.262 42.8261C275.221 41.6949 277.42 41.1639 279.859 41.2332C282.299 41.2794 284.628 41.9431 286.847 43.2244L296.624 48.8689L291.525 51.8124L282.438 46.5661C281.319 45.9197 280.159 45.5849 278.96 45.5618C277.76 45.5387 276.67 45.81 275.691 46.3756C274.711 46.9412 274.241 47.5703 274.281 48.2629C274.321 48.9555 274.901 49.625 276.021 50.2714L285.108 55.5177L279.979 58.4785L263.245 48.817L268.373 45.8562L270.593 47.1374C270.373 46.4102 270.493 45.6715 270.952 44.9212C271.392 44.1594 272.162 43.461 273.262 42.8261Z" fill="#F87171"/>
</svg>
