<svg width="47" height="40" viewBox="0 0 47 40" fill="none" xmlns="http://www.w3.org/2000/svg">
<circle cx="16.6021" cy="16.6021" r="16.6021" fill="white"/>
<path fill-rule="evenodd" clip-rule="evenodd" d="M20.1594 6.64088C20.3482 6.64088 20.5291 6.71584 20.6626 6.84928C20.796 6.98271 20.871 7.16369 20.871 7.3524V13.0445C20.871 13.2332 20.796 13.4142 20.6626 13.5476C20.5291 13.6811 20.3482 13.756 20.1594 13.756C19.9707 13.756 19.7898 13.6811 19.6563 13.5476C19.5229 13.4142 19.4479 13.2332 19.4479 13.0445V10.91H7.35215C7.16345 10.91 6.98247 10.835 6.84903 10.7016C6.7156 10.5681 6.64063 10.3872 6.64063 10.1985C6.64063 10.0098 6.7156 9.82878 6.84903 9.69534C6.98247 9.56191 7.16345 9.48694 7.35215 9.48694H19.4479V7.3524C19.4479 7.16369 19.5229 6.98271 19.6563 6.84928C19.7898 6.71584 19.9707 6.64088 20.1594 6.64088ZM22.294 10.1985C22.294 10.0098 22.369 9.82878 22.5024 9.69534C22.6358 9.56191 22.8168 9.48694 23.0055 9.48694H25.8516C26.0403 9.48694 26.2213 9.56191 26.3547 9.69534C26.4881 9.82878 26.5631 10.0098 26.5631 10.1985C26.5631 10.3872 26.4881 10.5681 26.3547 10.7016C26.2213 10.835 26.0403 10.91 25.8516 10.91H23.0055C22.8168 10.91 22.6358 10.835 22.5024 10.7016C22.369 10.5681 22.294 10.3872 22.294 10.1985ZM13.0443 13.0445C13.233 13.0445 13.414 13.1195 13.5474 13.2529C13.6808 13.3864 13.7558 13.5673 13.7558 13.756V15.8906H25.8516C26.0403 15.8906 26.2213 15.9656 26.3547 16.099C26.4881 16.2324 26.5631 16.4134 26.5631 16.6021C26.5631 16.7908 26.4881 16.9718 26.3547 17.1052C26.2213 17.2387 26.0403 17.3136 25.8516 17.3136H13.7558V19.4482C13.7558 19.6369 13.6808 19.8179 13.5474 19.9513C13.414 20.0847 13.233 20.1597 13.0443 20.1597C12.8556 20.1597 12.6746 20.0847 12.5412 19.9513C12.4077 19.8179 12.3328 19.6369 12.3328 19.4482V13.756C12.3328 13.5673 12.4077 13.3864 12.5412 13.2529C12.6746 13.1195 12.8556 13.0445 13.0443 13.0445ZM6.64063 16.6021C6.64063 16.4134 6.7156 16.2324 6.84903 16.099C6.98247 15.9656 7.16345 15.8906 7.35215 15.8906H10.1982C10.3869 15.8906 10.5679 15.9656 10.7013 16.099C10.8348 16.2324 10.9097 16.4134 10.9097 16.6021C10.9097 16.7908 10.8348 16.9718 10.7013 17.1052C10.5679 17.2387 10.3869 17.3136 10.1982 17.3136H7.35215C7.16345 17.3136 6.98247 17.2387 6.84903 17.1052C6.7156 16.9718 6.64063 16.7908 6.64063 16.6021ZM20.1594 19.4482C20.3482 19.4482 20.5291 19.5231 20.6626 19.6566C20.796 19.79 20.871 19.971 20.871 20.1597V25.8518C20.871 26.0405 20.796 26.2215 20.6626 26.3549C20.5291 26.4884 20.3482 26.5633 20.1594 26.5633C19.9707 26.5633 19.7898 26.4884 19.6563 26.3549C19.5229 26.2215 19.4479 26.0405 19.4479 25.8518V23.7173H7.35215C7.16345 23.7173 6.98247 23.6423 6.84903 23.5089C6.7156 23.3754 6.64063 23.1945 6.64063 23.0058C6.64063 22.8171 6.7156 22.6361 6.84903 22.5026C6.98247 22.3692 7.16345 22.2942 7.35215 22.2942H19.4479V20.1597C19.4479 19.971 19.5229 19.79 19.6563 19.6566C19.7898 19.5231 19.9707 19.4482 20.1594 19.4482ZM22.294 23.0058C22.294 22.8171 22.369 22.6361 22.5024 22.5026C22.6358 22.3692 22.8168 22.2942 23.0055 22.2942H25.8516C26.0403 22.2942 26.2213 22.3692 26.3547 22.5026C26.4881 22.6361 26.5631 22.8171 26.5631 23.0058C26.5631 23.1945 26.4881 23.3754 26.3547 23.5089C26.2213 23.6423 26.0403 23.7173 25.8516 23.7173H23.0055C22.8168 23.7173 22.6358 23.6423 22.5024 23.5089C22.369 23.3754 22.294 23.1945 22.294 23.0058Z" fill="black"/>
<path fill-rule="evenodd" clip-rule="evenodd" d="M20.1594 6.30884C20.4362 6.30884 20.7016 6.41878 20.8974 6.61449C21.0931 6.81019 21.203 7.07563 21.203 7.3524V13.0445C21.203 13.3213 21.0931 13.5867 20.8974 13.7824C20.7016 13.9781 20.4362 14.0881 20.1594 14.0881C19.8827 14.0881 19.6172 13.9781 19.4215 13.7824C19.2258 13.5867 19.1159 13.3213 19.1159 13.0445V11.242H7.35215C7.07538 11.242 6.80995 11.1321 6.61424 10.9364C6.41854 10.7407 6.30859 10.4752 6.30859 10.1985C6.30859 9.92169 6.41854 9.65626 6.61424 9.46055C6.80995 9.26485 7.07538 9.1549 7.35215 9.1549H19.1159V7.3524C19.1159 7.07563 19.2258 6.81019 19.4215 6.61449C19.6172 6.41878 19.8827 6.30884 20.1594 6.30884ZM19.4479 9.48694H7.35215C7.16345 9.48694 6.98247 9.56191 6.84903 9.69534C6.7156 9.82878 6.64063 10.0098 6.64063 10.1985C6.64063 10.3872 6.7156 10.5681 6.84903 10.7016C6.98247 10.835 7.16345 10.91 7.35215 10.91H19.4479V13.0445C19.4479 13.2332 19.5229 13.4142 19.6563 13.5476C19.7898 13.6811 19.9707 13.756 20.1594 13.756C20.3482 13.756 20.5291 13.6811 20.6626 13.5476C20.796 13.4142 20.871 13.2332 20.871 13.0445V7.3524C20.871 7.16369 20.796 6.98271 20.6626 6.84928C20.5291 6.71584 20.3482 6.64088 20.1594 6.64088C19.9707 6.64088 19.7898 6.71584 19.6563 6.84928C19.5229 6.98271 19.4479 7.16369 19.4479 7.3524V9.48694ZM21.962 10.1985C21.962 9.92169 22.0719 9.65626 22.2676 9.46055C22.4633 9.26485 22.7287 9.1549 23.0055 9.1549H25.8516C26.1283 9.1549 26.3938 9.26485 26.5895 9.46055C26.7852 9.65626 26.8951 9.92169 26.8951 10.1985C26.8951 10.4752 26.7852 10.7407 26.5895 10.9364C26.3938 11.1321 26.1283 11.242 25.8516 11.242H23.0055C22.7287 11.242 22.4633 11.1321 22.2676 10.9364C22.0719 10.7407 21.962 10.4752 21.962 10.1985ZM13.0443 12.7125C13.3211 12.7125 13.5865 12.8224 13.7822 13.0181C13.9779 13.2138 14.0878 13.4793 14.0878 13.756V15.5586H25.8516C26.1283 15.5586 26.3938 15.6685 26.5895 15.8642C26.7852 16.0599 26.8951 16.3253 26.8951 16.6021C26.8951 16.8789 26.7852 17.1443 26.5895 17.34C26.3938 17.5357 26.1283 17.6457 25.8516 17.6457H14.0878V19.4482C14.0878 19.7249 13.9779 19.9904 13.7822 20.1861C13.5865 20.3818 13.321 20.4917 13.0443 20.4917C12.7675 20.4917 12.5021 20.3818 12.3064 20.1861C12.1107 19.9904 12.0007 19.7249 12.0007 19.4482V13.756C12.0007 13.4793 12.1107 13.2138 12.3064 13.0181C12.5021 12.8224 12.7675 12.7125 13.0443 12.7125ZM13.7558 19.4482C13.7558 19.6369 13.6808 19.8179 13.5474 19.9513C13.414 20.0847 13.233 20.1597 13.0443 20.1597C12.8556 20.1597 12.6746 20.0847 12.5412 19.9513C12.4077 19.8179 12.3328 19.6369 12.3328 19.4482V13.756C12.3328 13.5673 12.4077 13.3864 12.5412 13.2529C12.6746 13.1195 12.8556 13.0445 13.0443 13.0445C13.233 13.0445 13.414 13.1195 13.5474 13.2529C13.6808 13.3864 13.7558 13.5673 13.7558 13.756V15.8906H25.8516C26.0403 15.8906 26.2213 15.9656 26.3547 16.099C26.4881 16.2324 26.5631 16.4134 26.5631 16.6021C26.5631 16.7908 26.4881 16.9718 26.3547 17.1052C26.2213 17.2387 26.0403 17.3136 25.8516 17.3136H13.7558V19.4482ZM6.30859 16.6021C6.30859 16.3253 6.41854 16.0599 6.61424 15.8642C6.80995 15.6685 7.07538 15.5586 7.35215 15.5586H10.1982C10.475 15.5586 10.7404 15.6685 10.9361 15.8642C11.1318 16.0599 11.2418 16.3253 11.2418 16.6021C11.2418 16.8789 11.1318 17.1443 10.9361 17.34C10.7404 17.5357 10.475 17.6457 10.1982 17.6457H7.35215C7.07538 17.6457 6.80995 17.5357 6.61424 17.34C6.41854 17.1443 6.30859 16.8789 6.30859 16.6021ZM20.1594 19.1161C20.4362 19.1161 20.7016 19.2261 20.8974 19.4218C21.0931 19.6175 21.203 19.8829 21.203 20.1597V25.8518C21.203 26.1286 21.0931 26.394 20.8974 26.5897C20.7016 26.7854 20.4362 26.8954 20.1594 26.8954C19.8827 26.8954 19.6172 26.7854 19.4215 26.5897C19.2258 26.394 19.1159 26.1286 19.1159 25.8518V24.0493H7.35215C7.07538 24.0493 6.80995 23.9394 6.61424 23.7437C6.41854 23.548 6.30859 23.2825 6.30859 23.0058C6.30859 22.729 6.41854 22.4636 6.61424 22.2678C6.80995 22.0721 7.07538 21.9622 7.35215 21.9622H19.1159V20.1597C19.1159 19.8829 19.2258 19.6175 19.4215 19.4218C19.6172 19.2261 19.8827 19.1161 20.1594 19.1161ZM19.4479 22.2942H7.35215C7.16345 22.2942 6.98247 22.3692 6.84903 22.5026C6.7156 22.6361 6.64063 22.8171 6.64063 23.0058C6.64063 23.1945 6.7156 23.3754 6.84903 23.5089C6.98247 23.6423 7.16345 23.7173 7.35215 23.7173H19.4479V25.8518C19.4479 26.0405 19.5229 26.2215 19.6563 26.3549C19.7898 26.4884 19.9707 26.5633 20.1594 26.5633C20.3482 26.5633 20.5291 26.4884 20.6626 26.3549C20.796 26.2215 20.871 26.0405 20.871 25.8518V20.1597C20.871 19.971 20.796 19.79 20.6626 19.6566C20.5291 19.5231 20.3482 19.4482 20.1594 19.4482C19.9707 19.4482 19.7898 19.5231 19.6563 19.6566C19.5229 19.79 19.4479 19.971 19.4479 20.1597V22.2942ZM21.962 23.0058C21.962 22.729 22.0719 22.4636 22.2676 22.2678C22.4633 22.0721 22.7287 21.9622 23.0055 21.9622H25.8516C26.1283 21.9622 26.3938 22.0721 26.5895 22.2678C26.7852 22.4636 26.8951 22.729 26.8951 23.0058C26.8951 23.2825 26.7852 23.548 26.5895 23.7437C26.3938 23.9394 26.1283 24.0493 25.8516 24.0493H23.0055C22.7287 24.0493 22.4633 23.9394 22.2676 23.7437C22.0719 23.548 21.962 23.2825 21.962 23.0058ZM22.5024 9.69534C22.369 9.82878 22.294 10.0098 22.294 10.1985C22.294 10.3872 22.369 10.5681 22.5024 10.7016C22.6358 10.835 22.8168 10.91 23.0055 10.91H25.8516C26.0403 10.91 26.2213 10.835 26.3547 10.7016C26.4881 10.5681 26.5631 10.3872 26.5631 10.1985C26.5631 10.0098 26.4881 9.82878 26.3547 9.69534C26.2213 9.56191 26.0403 9.48694 25.8516 9.48694H23.0055C22.8168 9.48694 22.6358 9.56191 22.5024 9.69534ZM6.84903 16.099C6.7156 16.2324 6.64063 16.4134 6.64063 16.6021C6.64063 16.7908 6.7156 16.9718 6.84903 17.1052C6.98247 17.2387 7.16345 17.3136 7.35215 17.3136H10.1982C10.3869 17.3136 10.5679 17.2387 10.7013 17.1052C10.8348 16.9718 10.9097 16.7908 10.9097 16.6021C10.9097 16.4134 10.8348 16.2324 10.7013 16.099C10.5679 15.9656 10.3869 15.8906 10.1982 15.8906H7.35215C7.16345 15.8906 6.98247 15.9656 6.84903 16.099ZM22.5024 22.5026C22.369 22.6361 22.294 22.8171 22.294 23.0058C22.294 23.1945 22.369 23.3754 22.5024 23.5089C22.6358 23.6423 22.8168 23.7173 23.0055 23.7173H25.8516C26.0403 23.7173 26.2213 23.6423 26.3547 23.5089C26.4881 23.3754 26.5631 23.1945 26.5631 23.0058C26.5631 22.8171 26.4881 22.6361 26.3547 22.5026C26.2213 22.3692 26.0403 22.2942 25.8516 22.2942H23.0055C22.8168 22.2942 22.6358 22.3692 22.5024 22.5026Z" fill="black"/>
<path d="M27.0891 16.1674L29.4458 20.2494L29.5147 20.2056C29.9732 19.9168 30.616 19.5377 31.1342 19.3627C31.6036 19.2039 32.1065 19.1621 32.4933 19.1552C33.0355 19.1468 33.5127 19.3382 33.892 19.6342L34.08 19.5016C34.528 19.1948 35.2403 18.7555 35.9141 18.6591C36.5986 18.5605 37.3721 18.7932 37.8579 18.9716C38.0487 19.0418 38.2217 19.1123 38.3662 19.1751L39.2409 18.6701C39.6608 18.4277 40.1269 18.2759 40.6091 18.2246C41.0913 18.1734 41.5789 18.2237 42.0404 18.3724C42.502 18.5211 42.9273 18.7648 43.2888 19.0879C43.6504 19.411 43.9403 19.8063 44.1398 20.2483L46.0868 24.5647C46.4378 25.3421 46.6211 26.1847 46.6248 27.0376L46.6463 31.9166C46.6484 32.3755 46.5292 32.8267 46.3008 33.2246C46.0723 33.6226 45.7428 33.9531 45.3455 34.1826L35.8741 39.6509C35.4552 39.8927 34.9772 40.0131 34.4937 39.9984C34.0103 39.9838 33.5404 39.8347 33.137 39.568L29.2024 36.9701L21.8567 32.893C21.2971 32.58 20.871 32.0736 20.6583 31.4687C20.4456 30.8639 20.4609 30.2022 20.7014 29.6078C20.9419 29.0135 21.391 28.5273 21.9645 28.2406C22.538 27.9539 23.1964 27.8863 23.8162 28.0505L27.5064 29.038L21.8289 19.2044C21.4262 18.5069 21.3171 17.6779 21.5255 16.8999C21.734 16.1219 22.243 15.4585 22.9405 15.0558C23.6381 14.6531 24.467 14.5439 25.2451 14.7524C26.0231 14.9609 26.6864 15.4699 27.0891 16.1674Z" fill="white"/>
<path d="M23.8083 16.5587C24.1072 16.3861 24.4625 16.3394 24.7959 16.4287C25.1293 16.518 25.4136 16.7362 25.5862 17.0351L31.0094 26.4284C31.1245 26.6277 31.314 26.7731 31.5363 26.8327C31.7586 26.8922 31.9954 26.8611 32.1947 26.746C32.394 26.6309 32.5395 26.4414 32.599 26.2191C32.6586 25.9968 32.6274 25.76 32.5123 25.5607L30.3144 21.7538L30.4402 21.6731C30.9062 21.38 31.3906 21.1084 31.69 21.0057C31.9148 20.93 32.2152 20.8948 32.5212 20.8905C32.6734 20.8868 32.8742 20.9812 33.0191 21.2322L34.7667 24.2591C34.8818 24.4584 35.0713 24.6038 35.2936 24.6634C35.5159 24.723 35.7527 24.6918 35.952 24.5767C36.1513 24.4616 36.2968 24.2721 36.3563 24.0498C36.4159 23.8275 36.3847 23.5907 36.2696 23.3914L34.9117 21.0393L35.0623 20.9323C35.5164 20.6221 35.9313 20.4105 36.1611 20.3781C36.3783 20.3448 36.7916 20.4289 37.2646 20.6026C37.4696 20.6766 37.6549 20.758 37.7899 20.8184L38.9579 22.8413C39.0729 23.0406 39.2625 23.186 39.4847 23.2456C39.707 23.3051 39.9439 23.274 40.1432 23.1589C40.3425 23.0438 40.4879 22.8543 40.5475 22.632C40.607 22.4097 40.5759 22.1729 40.4608 21.9736L39.5931 20.4707L40.1071 20.1739C40.3171 20.0526 40.5502 19.9767 40.7914 19.9511C41.0326 19.9255 41.2765 19.9507 41.5073 20.0251C41.7381 20.0995 41.9508 20.2215 42.1316 20.3832C42.3124 20.5449 42.4573 20.7426 42.557 20.9637L44.5055 25.2793C44.7557 25.8341 44.8863 26.4352 44.889 27.0438L44.9114 31.9244C44.9121 32.0773 44.8723 32.2277 44.7962 32.3604C44.72 32.493 44.6102 32.6032 44.4778 32.6797L35.0064 38.148C34.8669 38.2285 34.7078 38.2686 34.5469 38.2639C34.3859 38.2591 34.2295 38.2097 34.0951 38.1211L30.1046 35.4854L22.6979 31.3754C22.507 31.2687 22.3616 31.0961 22.289 30.8898C22.2165 30.6836 22.2217 30.4579 22.3038 30.2553C22.3858 30.0526 22.5391 29.8869 22.7347 29.7893C22.9304 29.6916 23.1549 29.6688 23.3662 29.725L29.0794 31.2559C29.2452 31.3005 29.4205 31.295 29.5831 31.24C29.7458 31.1849 29.8884 31.0829 29.9931 30.9468C30.0977 30.8106 30.1596 30.6465 30.1709 30.4752C30.1822 30.3039 30.1424 30.133 30.0566 29.9843L23.3318 18.3367C23.1592 18.0378 23.1125 17.6825 23.2018 17.3491C23.2912 17.0156 23.5093 16.7313 23.8083 16.5587ZM29.4458 20.2494L27.0891 16.1674C26.6864 15.4699 26.0231 14.9609 25.2451 14.7524C24.467 14.5439 23.6381 14.6531 22.9405 15.0558C22.243 15.4585 21.734 16.1219 21.5255 16.8999C21.3171 17.6779 21.4262 18.5069 21.8289 19.2044L27.5064 29.038L23.8153 28.049C23.1955 27.8848 22.5371 27.9523 21.9636 28.2391C21.3901 28.5258 20.941 29.012 20.7005 29.6063C20.46 30.2007 20.4447 30.8624 20.6574 31.4672C20.8701 32.0721 21.2963 32.5785 21.8559 32.8915L29.2032 36.9716L33.1378 39.5695C33.5413 39.8358 34.0111 39.9845 34.4944 39.9989C34.9777 40.0133 35.4554 39.8928 35.8741 39.6509L45.3455 34.1826C45.7428 33.9531 46.0723 33.6226 46.3008 33.2246C46.5292 32.8267 46.6484 32.3755 46.6463 31.9166L46.6248 27.0376C46.6211 26.1847 46.4378 25.3421 46.0868 24.5647L44.1383 20.2492C43.9388 19.8072 43.6489 19.4119 43.2873 19.0888C42.9258 18.7657 42.5005 18.5219 42.0389 18.3732C41.5774 18.2245 41.0898 18.1742 40.6076 18.2255C40.1254 18.2768 39.6593 18.4285 39.2394 18.671L38.3662 19.1751C38.1989 19.1021 38.0294 19.0342 37.8579 18.9716C37.3721 18.7932 36.5986 18.5605 35.9141 18.6591C35.2403 18.7555 34.528 19.1948 34.08 19.5016L33.892 19.6342C33.4955 19.317 33.001 19.1476 32.4933 19.1552C32.0324 19.1554 31.5742 19.2254 31.1342 19.3627C30.6145 19.5385 29.9732 19.9168 29.5163 20.2047L29.4458 20.2494Z" fill="black"/>
</svg>
