<svg width="42" height="41" viewBox="0 0 42 41" fill="none" xmlns="http://www.w3.org/2000/svg">
<path d="M28.4286 14.2609C28.4286 22.1113 22.0646 28.4752 14.2143 28.4752C6.36396 28.4752 0 22.1113 0 14.2609C0 6.41059 6.36396 0.0466309 14.2143 0.0466309C22.0646 0.0466309 28.4286 6.41059 28.4286 14.2609Z" fill="white"/>
<path fill-rule="evenodd" clip-rule="evenodd" d="M14.2143 26.7695C21.1226 26.7695 26.7229 21.1692 26.7229 14.2609C26.7229 7.35263 21.1226 1.75235 14.2143 1.75235C7.306 1.75235 1.70572 7.35263 1.70572 14.2609C1.70572 21.1692 7.306 26.7695 14.2143 26.7695ZM14.2143 28.4752C22.0646 28.4752 28.4286 22.1113 28.4286 14.2609C28.4286 6.41059 22.0646 0.0466309 14.2143 0.0466309C6.36396 0.0466309 0 6.41059 0 14.2609C0 22.1113 6.36396 28.4752 14.2143 28.4752Z" fill="black"/>
<path fill-rule="evenodd" clip-rule="evenodd" d="M17.2601 5.73241C17.4217 5.73241 17.5766 5.7966 17.6909 5.91084C17.8051 6.02508 17.8693 6.18003 17.8693 6.3416V11.2151C17.8693 11.3766 17.8051 11.5316 17.6909 11.6458C17.5766 11.7601 17.4217 11.8243 17.2601 11.8243C17.0986 11.8243 16.9436 11.7601 16.8294 11.6458C16.7151 11.5316 16.6509 11.3766 16.6509 11.2151V9.38752H6.29482C6.13325 9.38752 5.9783 9.32334 5.86406 9.20909C5.74981 9.09485 5.68563 8.9399 5.68563 8.77833C5.68563 8.61677 5.74981 8.46182 5.86406 8.34758C5.9783 8.23333 6.13325 8.16915 6.29482 8.16915H16.6509V6.3416C16.6509 6.18003 16.7151 6.02508 16.8294 5.91084C16.9436 5.7966 17.0986 5.73241 17.2601 5.73241ZM19.0877 8.77833C19.0877 8.61677 19.1519 8.46182 19.2661 8.34758C19.3803 8.23333 19.5353 8.16915 19.6969 8.16915H22.1336C22.2952 8.16915 22.4501 8.23333 22.5644 8.34758C22.6786 8.46182 22.7428 8.61677 22.7428 8.77833C22.7428 8.9399 22.6786 9.09485 22.5644 9.20909C22.4501 9.32334 22.2952 9.38752 22.1336 9.38752H19.6969C19.5353 9.38752 19.3803 9.32334 19.2661 9.20909C19.1519 9.09485 19.0877 8.9399 19.0877 8.77833ZM11.1683 11.2151C11.3299 11.2151 11.4848 11.2793 11.599 11.3935C11.7133 11.5077 11.7775 11.6627 11.7775 11.8243V13.6518H22.1336C22.2952 13.6518 22.4501 13.716 22.5644 13.8302C22.6786 13.9445 22.7428 14.0994 22.7428 14.261C22.7428 14.4226 22.6786 14.5775 22.5644 14.6917C22.4501 14.806 22.2952 14.8702 22.1336 14.8702H11.7775V16.6977C11.7775 16.8593 11.7133 17.0142 11.599 17.1285C11.4848 17.2427 11.3299 17.3069 11.1683 17.3069C11.0067 17.3069 10.8518 17.2427 10.7375 17.1285C10.6233 17.0142 10.5591 16.8593 10.5591 16.6977V11.8243C10.5591 11.6627 10.6233 11.5077 10.7375 11.3935C10.8518 11.2793 11.0067 11.2151 11.1683 11.2151ZM5.68563 14.261C5.68563 14.0994 5.74981 13.9445 5.86406 13.8302C5.9783 13.716 6.13325 13.6518 6.29482 13.6518H8.73155C8.89312 13.6518 9.04807 13.716 9.16231 13.8302C9.27655 13.9445 9.34074 14.0994 9.34074 14.261C9.34074 14.4226 9.27655 14.5775 9.16231 14.6917C9.04807 14.806 8.89312 14.8702 8.73155 14.8702H6.29482C6.13325 14.8702 5.9783 14.806 5.86406 14.6917C5.74981 14.5775 5.68563 14.4226 5.68563 14.261ZM17.2601 16.6977C17.4217 16.6977 17.5766 16.7619 17.6909 16.8762C17.8051 16.9904 17.8693 17.1453 17.8693 17.3069V22.1804C17.8693 22.3419 17.8051 22.4969 17.6909 22.6111C17.5766 22.7254 17.4217 22.7896 17.2601 22.7896C17.0986 22.7896 16.9436 22.7254 16.8294 22.6111C16.7151 22.4969 16.6509 22.3419 16.6509 22.1804V20.3528H6.29482C6.13325 20.3528 5.9783 20.2886 5.86406 20.1744C5.74981 20.0602 5.68563 19.9052 5.68563 19.7436C5.68563 19.5821 5.74981 19.4271 5.86406 19.3129C5.9783 19.1986 6.13325 19.1345 6.29482 19.1345H16.6509V17.3069C16.6509 17.1453 16.7151 16.9904 16.8294 16.8762C16.9436 16.7619 17.0986 16.6977 17.2601 16.6977ZM19.0877 19.7436C19.0877 19.5821 19.1519 19.4271 19.2661 19.3129C19.3803 19.1986 19.5353 19.1345 19.6969 19.1345H22.1336C22.2952 19.1345 22.4501 19.1986 22.5644 19.3129C22.6786 19.4271 22.7428 19.5821 22.7428 19.7436C22.7428 19.9052 22.6786 20.0602 22.5644 20.1744C22.4501 20.2886 22.2952 20.3528 22.1336 20.3528H19.6969C19.5353 20.3528 19.3803 20.2886 19.2661 20.1744C19.1519 20.0602 19.0877 19.9052 19.0877 19.7436Z" fill="black"/>
<path fill-rule="evenodd" clip-rule="evenodd" d="M17.2601 5.44813C17.4971 5.44813 17.7243 5.54226 17.8919 5.70982C18.0595 5.87738 18.1536 6.10464 18.1536 6.3416V11.2151C18.1536 11.452 18.0595 11.6793 17.8919 11.8468C17.7243 12.0144 17.4971 12.1085 17.2601 12.1085C17.0232 12.1085 16.7959 12.0144 16.6283 11.8468C16.4608 11.6793 16.3667 11.452 16.3667 11.2151V9.6718H6.29482C6.05785 9.6718 5.83059 9.57767 5.66304 9.41011C5.49548 9.24255 5.40135 9.0153 5.40135 8.77833C5.40135 8.54137 5.49548 8.31411 5.66304 8.14656C5.83059 7.979 6.05785 7.88486 6.29482 7.88486H16.3667V6.3416C16.3667 6.10464 16.4608 5.87738 16.6283 5.70982C16.7959 5.54226 17.0232 5.44813 17.2601 5.44813ZM16.6509 8.16915H6.29482C6.13325 8.16915 5.9783 8.23333 5.86406 8.34758C5.74981 8.46182 5.68563 8.61677 5.68563 8.77833C5.68563 8.9399 5.74981 9.09485 5.86406 9.20909C5.9783 9.32334 6.13325 9.38752 6.29482 9.38752H16.6509V11.2151C16.6509 11.3766 16.7151 11.5316 16.8294 11.6458C16.9436 11.7601 17.0986 11.8243 17.2601 11.8243C17.4217 11.8243 17.5766 11.7601 17.6909 11.6458C17.8051 11.5316 17.8693 11.3766 17.8693 11.2151V6.3416C17.8693 6.18003 17.8051 6.02508 17.6909 5.91084C17.5766 5.7966 17.4217 5.73241 17.2601 5.73241C17.0986 5.73241 16.9436 5.7966 16.8294 5.91084C16.7151 6.02508 16.6509 6.18003 16.6509 6.3416V8.16915ZM18.8034 8.77833C18.8034 8.54137 18.8975 8.31411 19.0651 8.14656C19.2326 7.979 19.4599 7.88486 19.6969 7.88486H22.1336C22.3706 7.88486 22.5978 7.979 22.7654 8.14656C22.9329 8.31411 23.0271 8.54137 23.0271 8.77833C23.0271 9.0153 22.9329 9.24255 22.7654 9.41011C22.5978 9.57767 22.3706 9.6718 22.1336 9.6718H19.6969C19.4599 9.6718 19.2326 9.57767 19.0651 9.41011C18.8975 9.24255 18.8034 9.0153 18.8034 8.77833ZM11.1683 10.9308C11.4052 10.9308 11.6325 11.0249 11.8001 11.1925C11.9676 11.36 12.0618 11.5873 12.0618 11.8243V13.3675H22.1336C22.3706 13.3675 22.5978 13.4617 22.7654 13.6292C22.9329 13.7968 23.0271 14.024 23.0271 14.261C23.0271 14.498 22.9329 14.7252 22.7654 14.8928C22.5978 15.0603 22.3706 15.1545 22.1336 15.1545H12.0618V16.6977C12.0618 16.9347 11.9676 17.1619 11.8001 17.3295C11.6325 17.4971 11.4052 17.5912 11.1683 17.5912C10.9313 17.5912 10.7041 17.4971 10.5365 17.3295C10.3689 17.1619 10.2748 16.9347 10.2748 16.6977V11.8243C10.2748 11.5873 10.3689 11.36 10.5365 11.1925C10.7041 11.0249 10.9313 10.9308 11.1683 10.9308ZM11.7775 16.6977C11.7775 16.8593 11.7133 17.0142 11.599 17.1285C11.4848 17.2427 11.3299 17.3069 11.1683 17.3069C11.0067 17.3069 10.8518 17.2427 10.7375 17.1285C10.6233 17.0142 10.5591 16.8593 10.5591 16.6977V11.8243C10.5591 11.6627 10.6233 11.5077 10.7375 11.3935C10.8518 11.2793 11.0067 11.2151 11.1683 11.2151C11.3299 11.2151 11.4848 11.2793 11.599 11.3935C11.7133 11.5077 11.7775 11.6627 11.7775 11.8243V13.6518H22.1336C22.2952 13.6518 22.4501 13.716 22.5644 13.8302C22.6786 13.9445 22.7428 14.0994 22.7428 14.261C22.7428 14.4226 22.6786 14.5775 22.5644 14.6917C22.4501 14.806 22.2952 14.8702 22.1336 14.8702H11.7775V16.6977ZM5.40135 14.261C5.40135 14.024 5.49548 13.7968 5.66304 13.6292C5.83059 13.4617 6.05785 13.3675 6.29482 13.3675H8.73155C8.96851 13.3675 9.19577 13.4617 9.36333 13.6292C9.53089 13.7968 9.62502 14.024 9.62502 14.261C9.62502 14.498 9.53089 14.7252 9.36333 14.8928C9.19577 15.0603 8.96851 15.1545 8.73155 15.1545H6.29482C6.05785 15.1545 5.83059 15.0603 5.66304 14.8928C5.49548 14.7252 5.40135 14.498 5.40135 14.261ZM17.2601 16.4134C17.4971 16.4134 17.7243 16.5076 17.8919 16.6751C18.0595 16.8427 18.1536 17.0699 18.1536 17.3069V22.1804C18.1536 22.4173 18.0595 22.6446 17.8919 22.8122C17.7243 22.9797 17.4971 23.0739 17.2601 23.0739C17.0232 23.0739 16.7959 22.9797 16.6283 22.8122C16.4608 22.6446 16.3667 22.4173 16.3667 22.1804V20.6371H6.29482C6.05785 20.6371 5.83059 20.543 5.66304 20.3754C5.49548 20.2079 5.40135 19.9806 5.40135 19.7436C5.40135 19.5067 5.49548 19.2794 5.66304 19.1119C5.8306 18.9443 6.05785 18.8502 6.29482 18.8502H16.3667V17.3069C16.3667 17.0699 16.4608 16.8427 16.6283 16.6751C16.7959 16.5076 17.0232 16.4134 17.2601 16.4134ZM16.6509 19.1345H6.29482C6.13325 19.1345 5.9783 19.1986 5.86406 19.3129C5.74981 19.4271 5.68563 19.5821 5.68563 19.7436C5.68563 19.9052 5.74981 20.0602 5.86406 20.1744C5.9783 20.2886 6.13325 20.3528 6.29482 20.3528H16.6509V22.1804C16.6509 22.3419 16.7151 22.4969 16.8294 22.6111C16.9436 22.7254 17.0986 22.7896 17.2601 22.7896C17.4217 22.7896 17.5766 22.7254 17.6909 22.6111C17.8051 22.4969 17.8693 22.3419 17.8693 22.1804V17.3069C17.8693 17.1453 17.8051 16.9904 17.6909 16.8762C17.5766 16.7619 17.4217 16.6977 17.2601 16.6977C17.0986 16.6977 16.9436 16.7619 16.8294 16.8762C16.7151 16.9904 16.6509 17.1453 16.6509 17.3069V19.1345ZM18.8034 19.7436C18.8034 19.5067 18.8975 19.2794 19.0651 19.1119C19.2326 18.9443 19.4599 18.8502 19.6969 18.8502H22.1336C22.3706 18.8502 22.5978 18.9443 22.7654 19.1119C22.9329 19.2794 23.0271 19.5067 23.0271 19.7436C23.0271 19.9806 22.9329 20.2079 22.7654 20.3754C22.5978 20.543 22.3706 20.6371 22.1336 20.6371H19.6969C19.4599 20.6371 19.2326 20.543 19.0651 20.3754C18.8975 20.2079 18.8034 19.9806 18.8034 19.7436ZM19.2661 8.34758C19.1519 8.46182 19.0877 8.61677 19.0877 8.77833C19.0877 8.9399 19.1519 9.09485 19.2661 9.20909C19.3803 9.32334 19.5353 9.38752 19.6969 9.38752H22.1336C22.2952 9.38752 22.4501 9.32334 22.5644 9.20909C22.6786 9.09485 22.7428 8.9399 22.7428 8.77833C22.7428 8.61677 22.6786 8.46182 22.5644 8.34758C22.4501 8.23333 22.2952 8.16915 22.1336 8.16915H19.6969C19.5353 8.16915 19.3803 8.23333 19.2661 8.34758ZM5.86406 13.8302C5.74981 13.9445 5.68563 14.0994 5.68563 14.261C5.68563 14.4226 5.74981 14.5775 5.86406 14.6917C5.9783 14.806 6.13325 14.8702 6.29482 14.8702H8.73155C8.89312 14.8702 9.04807 14.806 9.16231 14.6917C9.27655 14.5775 9.34074 14.4226 9.34074 14.261C9.34074 14.0994 9.27655 13.9445 9.16231 13.8302C9.04807 13.716 8.89312 13.6518 8.73155 13.6518H6.29482C6.13325 13.6518 5.9783 13.716 5.86406 13.8302ZM19.2661 19.3129C19.1519 19.4271 19.0877 19.5821 19.0877 19.7436C19.0877 19.9052 19.1519 20.0602 19.2661 20.1744C19.3803 20.2886 19.5353 20.3528 19.6969 20.3528H22.1336C22.2952 20.3528 22.4501 20.2886 22.5644 20.1744C22.6786 20.0602 22.7428 19.9052 22.7428 19.7436C22.7428 19.5821 22.6786 19.4271 22.5644 19.3129C22.4501 19.1986 22.2952 19.1345 22.1336 19.1345H19.6969C19.5353 19.1345 19.3803 19.1986 19.2661 19.3129Z" fill="black"/>
<path d="M22.7427 19.1222L25.1934 22.6227L25.2519 22.578C25.6407 22.2827 26.188 21.8918 26.6398 21.6946C27.049 21.5157 27.4978 21.4396 27.8451 21.4039C28.332 21.3549 28.7767 21.4911 29.1418 21.7291L29.3001 21.5952C29.6781 21.2844 30.283 20.8341 30.8811 20.6958C31.4886 20.5547 32.2032 20.7055 32.6545 20.8293C32.8318 20.878 32.993 20.9284 33.1281 20.9741L33.8737 20.4521C34.2316 20.2015 34.6385 20.0291 35.0679 19.9461C35.4974 19.8631 35.94 19.8713 36.3671 19.9702C36.7942 20.069 37.1965 20.2564 37.5478 20.5201C37.8992 20.7838 38.192 21.1181 38.4073 21.5014L40.5086 25.2446C40.8873 25.9187 41.1206 26.6643 41.1931 27.433L41.6086 31.8302C41.6477 32.2437 41.5772 32.6597 41.4041 33.0358C41.2309 33.412 40.9614 33.7351 40.6228 33.9724L32.5493 39.6246C32.1922 39.8746 31.7722 40.0195 31.3362 40.0432C30.9002 40.0668 30.4656 39.9683 30.0811 39.7585L26.332 37.7164L19.3952 34.6006C18.8666 34.3611 18.4422 33.937 18.2018 33.4079C17.9614 32.8788 17.9215 32.281 18.0895 31.7268C18.2575 31.1726 18.622 30.7001 19.1144 30.3978C19.6068 30.0956 20.1935 29.9845 20.7641 30.0853L24.1628 30.6943L18.2589 22.2614C17.8401 21.6632 17.6747 20.9241 17.799 20.2068C17.9233 19.4894 18.3272 18.8526 18.9217 18.4363C19.5163 18.02 20.2529 17.8584 20.9695 17.9871C21.6861 18.1157 22.3239 18.524 22.7427 19.1222Z" fill="white"/>
<path d="M19.8241 19.7251C20.0789 19.5467 20.3946 19.4775 20.7017 19.5326C21.0088 19.5877 21.2822 19.7627 21.4616 20.0191L27.1012 28.0744C27.2208 28.2453 27.4031 28.3619 27.6078 28.3987C27.8125 28.4354 28.023 28.3893 28.1929 28.2703C28.3628 28.1514 28.4782 27.9694 28.5137 27.7645C28.5492 27.5595 28.5019 27.3484 28.3823 27.1775L26.0967 23.9128L26.2032 23.8305C26.5985 23.5308 27.0121 23.2489 27.273 23.1335C27.469 23.0481 27.7362 22.9935 28.0111 22.9662C28.1477 22.9513 28.3359 23.0211 28.4866 23.2364L30.3039 25.8321C30.4236 26.003 30.6058 26.1197 30.8105 26.1564C31.0153 26.1932 31.2257 26.147 31.3956 26.0281C31.5655 25.9092 31.6809 25.7272 31.7164 25.5222C31.7519 25.3173 31.7047 25.1061 31.585 24.9352L30.1729 22.9182L30.2996 22.8102C30.6828 22.4959 31.0388 22.2735 31.2427 22.2268C31.4354 22.1802 31.8139 22.2245 32.2534 22.3451C32.4438 22.3962 32.617 22.4554 32.7433 22.4995L33.9578 24.2343C34.0775 24.4052 34.2597 24.5219 34.4644 24.5586C34.6692 24.5954 34.8796 24.5492 35.0495 24.4303C35.2194 24.3113 35.3348 24.1294 35.3703 23.9244C35.4058 23.7195 35.3586 23.5083 35.2389 23.3374L34.3366 22.0485L34.7747 21.7418C34.9538 21.6164 35.1572 21.5302 35.372 21.4888C35.5868 21.4473 35.8082 21.4514 36.0218 21.5009C36.2355 21.5504 36.4366 21.6441 36.6123 21.7761C36.788 21.9081 36.9344 22.0754 37.042 22.2671L39.1446 26.0094C39.4146 26.4905 39.5809 27.0225 39.6327 27.5709L40.0491 31.9695C40.0621 32.1073 40.0386 32.2459 39.9809 32.3713C39.9232 32.4967 39.8333 32.6044 39.7204 32.6835L31.647 38.3358C31.5281 38.419 31.3883 38.4673 31.2432 38.4753C31.0981 38.4833 30.9534 38.4506 30.8253 38.381L27.0227 36.309L20.0284 33.1682C19.8481 33.0866 19.7033 32.942 19.6213 32.7616C19.5393 32.5812 19.5257 32.3773 19.5831 32.1884C19.6404 31.9994 19.7648 31.8383 19.9328 31.7354C20.1008 31.6324 20.3009 31.5947 20.4954 31.6293L25.7575 32.5739C25.9102 32.6015 26.0674 32.5832 26.2092 32.5211C26.351 32.4591 26.471 32.3563 26.554 32.2255C26.637 32.0948 26.6794 31.9421 26.6756 31.7868C26.6719 31.6315 26.6223 31.4805 26.533 31.353L19.54 21.3645C19.3605 21.1081 19.2896 20.7913 19.3429 20.4839C19.3962 20.1765 19.5692 19.9035 19.8241 19.7251ZM25.1934 22.6227L22.7427 19.1222C22.3239 18.524 21.6861 18.1157 20.9695 17.9871C20.2529 17.8584 19.5163 18.02 18.9217 18.4363C18.3272 18.8526 17.9233 19.4894 17.799 20.2068C17.6747 20.9241 17.8401 21.6632 18.2589 22.2614L24.1628 30.6943L20.7641 30.0853C20.1935 29.9845 19.6068 30.0956 19.1144 30.3978C18.622 30.7001 18.2575 31.1726 18.0895 31.7268C17.9215 32.281 17.9614 32.8788 18.2018 33.4079C18.4422 33.937 18.8666 34.3611 19.3952 34.6006L26.3329 37.7177L30.0811 39.7585C30.4656 39.9683 30.9002 40.0668 31.3362 40.0432C31.7722 40.0195 32.1922 39.8746 32.5493 39.6246L40.6228 33.9724C40.9614 33.7351 41.2309 33.412 41.4041 33.0358C41.5772 32.6597 41.6477 32.2437 41.6086 31.8302L41.1931 27.433C41.1206 26.6643 40.8873 25.9187 40.5086 25.2446L38.406 21.5023C38.1907 21.119 37.898 20.7847 37.5466 20.521C37.1952 20.2573 36.7942 20.069 36.3671 19.9702C35.94 19.8713 35.4961 19.864 35.0667 19.947C34.6372 20.03 34.2304 20.2024 33.8724 20.453L33.1281 20.9741C32.9717 20.921 32.8138 20.8727 32.6545 20.8293C32.2032 20.7055 31.4886 20.5547 30.8811 20.6958C30.283 20.8341 29.6781 21.2844 29.3001 21.5952L29.1418 21.7291C28.7595 21.4733 28.3011 21.3583 27.8451 21.4039C27.4307 21.4392 27.0243 21.5372 26.6398 21.6946C26.1867 21.8927 25.6407 22.2827 25.2531 22.5771L25.1934 22.6227Z" fill="black"/>
</svg>
