<svg width="590" height="409" viewBox="0 0 590 409" fill="none" xmlns="http://www.w3.org/2000/svg" shape-rendering="geometricPrecision">
<path d="M367.735 116.524L330.813 148.499L293.892 0L367.735 116.524Z" fill="#595247"/>
<path d="M293.892 0L302.797 35.8135V21.0451L310.27 25.8448L293.892 0Z" fill="#9B968E"/>
<path d="M330.813 148.499H256.971L293.892 0L330.813 148.499Z" fill="#80766D"/>
<path d="M293.892 0L285.031 35.6397L296.108 27.6909L302.753 35.6397L293.892 0Z" fill="#BDB7B1"/>
<path d="M256.971 148.499L220.05 116.524L293.892 0L256.971 148.499Z" fill="#A59E94"/>
<path d="M276.578 27.3217L293.892 0L284.988 35.8135L283.924 22.1527L276.578 27.3217Z" fill="#FAF5EE"/>
<path d="M256.971 148.13L220.05 116.155V153.075L256.971 185.049H330.813L367.735 153.075V116.155L330.813 148.13H256.971Z" fill="#AA7751"/>
<path d="M220.788 116.671L257.71 148.646L220.788 180.62H146.946L110.025 148.646L146.946 116.671H220.788Z" fill="#2ECC71"/>
<path d="M146.946 180.62L110.025 148.646V185.566L146.946 217.539H220.788L257.71 185.566V148.646L220.788 180.62H146.946Z" fill="#31BF61"/>
<path d="M189.759 126.886H192.409V142.755L189.759 144.427V126.886Z" fill="#AA7751"/>
<path d="M189.759 126.886H187.109V142.755L189.759 144.427V126.886Z" fill="#C59161"/>
<path d="M189.759 99.0922L197.955 136.95H181.563L189.759 99.0922Z" fill="#62A25E"/>
<path d="M189.791 98.9984L181.613 136.951L177.96 129.947L189.791 98.9984Z" fill="#6CB968"/>
<path d="M189.759 98.9487L197.936 136.901L201.589 129.897L189.759 98.9487Z" fill="#497C46"/>
<path d="M174.252 133.532H176.902V149.401L174.252 151.073V133.532Z" fill="#AA7751"/>
<path d="M174.252 133.532H171.602V149.401L174.252 151.073V133.532Z" fill="#C59161"/>
<path d="M174.252 105.738L182.449 143.596H166.056L174.252 105.738Z" fill="#62A25E"/>
<path d="M174.284 105.644L166.107 143.597L162.453 136.593L174.284 105.644Z" fill="#6CB968"/>
<path d="M174.252 105.595L182.429 143.547L186.083 136.543L174.252 105.595Z" fill="#497C46"/>
<path d="M209.696 129.84H212.346V145.708L209.696 147.38V129.84Z" fill="#AA7751"/>
<path d="M209.696 129.84H207.046V145.708L209.696 147.38V129.84Z" fill="#C59161"/>
<path d="M209.696 102.046L217.893 139.904H201.5L209.696 102.046Z" fill="#62A25E"/>
<path d="M209.728 101.952L201.551 139.905L197.897 132.901L209.728 101.952Z" fill="#6CB968"/>
<path d="M209.696 101.902L217.873 139.855L221.527 132.851L209.696 101.902Z" fill="#497C46"/>
<path d="M224.465 133.532H227.115V149.401L224.465 151.073V133.532Z" fill="#AA7751"/>
<path d="M224.465 133.532H221.815V149.401L224.465 151.073V133.532Z" fill="#C59161"/>
<path d="M224.465 105.738L232.661 143.596H216.268L224.465 105.738Z" fill="#62A25E"/>
<path d="M224.496 105.644L216.319 143.597L212.666 136.593L224.496 105.644Z" fill="#6CB968"/>
<path d="M224.465 105.595L232.642 143.547L236.295 136.543L224.465 105.595Z" fill="#497C46"/>
<path d="M187.544 149.777H190.194V165.646L187.544 167.318V149.777Z" fill="#AA7751"/>
<path d="M187.544 149.777H184.894V165.646L187.544 167.318V149.777Z" fill="#C59161"/>
<path d="M187.544 121.983L195.74 159.841H179.347L187.544 121.983Z" fill="#62A25E"/>
<path d="M187.575 121.89L179.398 159.842L175.745 152.838L187.575 121.89Z" fill="#6CB968"/>
<path d="M187.544 121.84L195.721 159.792L199.374 152.789L187.544 121.84Z" fill="#497C46"/>
<path d="M155.791 128.363H158.441V144.232L155.791 145.904V128.363Z" fill="#AA7751"/>
<path d="M155.791 128.363H153.141V144.232L155.791 145.904V128.363Z" fill="#C59161"/>
<path d="M155.792 100.569L163.988 138.427H147.595L155.792 100.569Z" fill="#62A25E"/>
<path d="M155.823 100.475L147.646 138.428L143.992 131.424L155.823 100.475Z" fill="#6CB968"/>
<path d="M155.791 100.426L163.968 138.378L167.622 131.374L155.791 100.426Z" fill="#497C46"/>
<path d="M145.303 144.6H148.583V164.24L145.303 166.309V144.6Z" fill="#AA7751"/>
<path d="M145.303 144.6H142.024V164.24L145.303 166.309V144.6Z" fill="#C59161"/>
<path d="M145.303 110.203L155.447 157.055H135.159L145.303 110.203Z" fill="#62A25E"/>
<path d="M145.342 110.086L135.222 157.056L130.701 148.388L145.342 110.086Z" fill="#6CB968"/>
<path d="M145.303 110.025L155.423 156.995L159.945 148.327L145.303 110.025Z" fill="#497C46"/>
<path d="M166.718 156.415H169.997V176.054L166.718 178.124V156.415Z" fill="#AA7751"/>
<path d="M166.718 156.415H163.438V176.054L166.718 178.124V156.415Z" fill="#C59161"/>
<path d="M166.718 122.017L176.862 168.87H156.574L166.718 122.017Z" fill="#62A25E"/>
<path d="M166.757 121.901L156.637 168.871L152.115 160.203L166.757 121.901Z" fill="#6CB968"/>
<path d="M166.718 121.84L176.838 168.81L181.359 160.142L166.718 121.84Z" fill="#497C46"/>
<path d="M207.575 154.582H211.031V175.277L207.575 177.457V154.582Z" fill="#AA7751"/>
<path d="M207.575 154.582H204.119V175.277L207.575 177.457V154.582Z" fill="#C59161"/>
<path d="M207.575 118.335L218.264 167.707H196.886L207.575 118.335Z" fill="#62A25E"/>
<path d="M207.616 118.212L196.952 167.707L192.188 158.573L207.616 118.212Z" fill="#6CB968"/>
<path d="M207.575 118.148L218.239 167.643L223.004 158.509L207.575 118.148Z" fill="#497C46"/>
<path d="M111.502 148.421L148.423 180.396L111.502 212.37H37.6596L0.738403 180.396L37.6596 148.421H111.502Z" fill="#2ECC71"/>
<path d="M62.0275 148.421H87.8723V164.2V171.874L111.502 178.695L140.67 185.64V187.115L122.209 203.103L90.9335 194.074C73.8139 189.132 62.0275 173.462 62.0275 155.643V148.421Z" fill="#414040"/>
<path d="M62.0275 146.946H87.8723V155.356C87.8723 164.266 93.7655 172.101 102.325 174.572L140.67 185.641L122.209 201.628L90.9335 192.599C73.8139 187.657 62.0275 171.987 62.0275 154.169V146.946Z" fill="#6C6C6C"/>
<path d="M37.6596 212.37L0.738403 180.396V217.316L37.6596 249.289H111.502L148.423 217.316V180.396L111.502 212.37H37.6596Z" fill="#31BF61"/>
<path d="M477.76 149.753L440.839 181.728L403.917 33.229L477.76 149.753Z" fill="#595247"/>
<path d="M403.917 33.229L412.822 69.0426V54.2741L420.295 59.0738L403.917 33.229Z" fill="#9B968E"/>
<path d="M440.839 181.728H366.996L403.917 33.229L440.839 181.728Z" fill="#80766D"/>
<path d="M403.917 33.229L395.056 68.8687L406.133 60.9199L412.778 68.8687L403.917 33.229Z" fill="#BDB7B1"/>
<path d="M366.996 181.728L330.075 149.753L403.917 33.229L366.996 181.728Z" fill="#A59E94"/>
<path d="M386.603 60.5507L403.917 33.229L395.013 69.0426L393.949 55.3817L386.603 60.5507Z" fill="#FAF5EE"/>
<path d="M366.996 181.359L330.075 149.384V186.304L366.996 218.278H440.839L477.76 186.304V149.384L440.839 181.359H366.996Z" fill="#AA7751"/>
<path d="M331.552 148.423L368.473 180.398L331.552 212.372H257.71L220.789 180.398L257.71 148.423H331.552Z" fill="#2ECC71"/>
<path d="M257.71 212.372L220.789 180.398V217.318L257.71 249.292H331.552L368.473 217.318V180.398L331.552 212.372H257.71Z" fill="#31BF61"/>
<path d="M300.522 158.638H303.172V174.507L300.522 176.179V158.638Z" fill="#AA7751"/>
<path d="M300.522 158.638H297.872V174.507L300.522 176.179V158.638Z" fill="#C59161"/>
<path d="M300.523 130.844L308.719 168.702H292.326L300.523 130.844Z" fill="#62A25E"/>
<path d="M300.554 130.751L292.377 168.703L288.723 161.699L300.554 130.751Z" fill="#6CB968"/>
<path d="M300.522 130.701L308.699 168.653L312.353 161.65L300.522 130.701Z" fill="#497C46"/>
<path d="M285.016 165.284H287.666V181.153L285.016 182.825V165.284Z" fill="#AA7751"/>
<path d="M285.016 165.284H282.365V181.153L285.016 182.825V165.284Z" fill="#C59161"/>
<path d="M285.016 137.49L293.212 175.348H276.819L285.016 137.49Z" fill="#62A25E"/>
<path d="M285.047 137.396L276.87 175.349L273.217 168.345L285.047 137.396Z" fill="#6CB968"/>
<path d="M285.016 137.347L293.193 175.299L296.846 168.295L285.016 137.347Z" fill="#497C46"/>
<path d="M320.46 161.592H323.11V177.461L320.46 179.133V161.592Z" fill="#AA7751"/>
<path d="M320.46 161.592H317.81V177.461L320.46 179.133V161.592Z" fill="#C59161"/>
<path d="M320.46 133.798L328.656 171.656H312.263L320.46 133.798Z" fill="#62A25E"/>
<path d="M320.491 133.704L312.314 171.657L308.661 164.653L320.491 133.704Z" fill="#6CB968"/>
<path d="M320.46 133.655L328.637 171.607L332.29 164.603L320.46 133.655Z" fill="#497C46"/>
<path d="M335.228 165.284H337.878V181.153L335.228 182.825V165.284Z" fill="#AA7751"/>
<path d="M335.228 165.284H332.578V181.153L335.228 182.825V165.284Z" fill="#C59161"/>
<path d="M335.228 137.49L343.425 175.348H327.032L335.228 137.49Z" fill="#62A25E"/>
<path d="M335.26 137.396L327.083 175.349L323.429 168.345L335.26 137.396Z" fill="#6CB968"/>
<path d="M335.228 137.347L343.405 175.299L347.059 168.295L335.228 137.347Z" fill="#497C46"/>
<path d="M298.307 181.529H300.957V197.398L298.307 199.07V181.529Z" fill="#AA7751"/>
<path d="M298.307 181.529H295.657V197.398L298.307 199.07V181.529Z" fill="#C59161"/>
<path d="M298.307 153.735L306.504 191.593H290.111L298.307 153.735Z" fill="#62A25E"/>
<path d="M298.339 153.642L290.162 191.594L286.508 184.59L298.339 153.642Z" fill="#6CB968"/>
<path d="M298.307 153.592L306.484 191.544L310.138 184.541L298.307 153.592Z" fill="#497C46"/>
<path d="M266.555 160.115H269.205V175.984L266.555 177.656V160.115Z" fill="#AA7751"/>
<path d="M266.555 160.115H263.905V175.984L266.555 177.656V160.115Z" fill="#C59161"/>
<path d="M266.555 132.321L274.751 170.179H258.359L266.555 132.321Z" fill="#62A25E"/>
<path d="M266.587 132.227L258.409 170.18L254.756 163.176L266.587 132.227Z" fill="#6CB968"/>
<path d="M266.555 132.178L274.732 170.13L278.385 163.126L266.555 132.178Z" fill="#497C46"/>
<path d="M256.067 176.353H259.347V195.992L256.067 198.061V176.353Z" fill="#AA7751"/>
<path d="M256.067 176.353H252.787V195.992L256.067 198.061V176.353Z" fill="#C59161"/>
<path d="M256.067 141.955L266.211 188.808H245.923L256.067 141.955Z" fill="#62A25E"/>
<path d="M256.106 141.838L245.986 188.808L241.464 180.14L256.106 141.838Z" fill="#6CB968"/>
<path d="M256.067 141.777L266.187 188.747L270.708 180.079L256.067 141.777Z" fill="#497C46"/>
<path d="M277.481 188.167H280.761V207.807L277.481 209.876V188.167Z" fill="#AA7751"/>
<path d="M277.481 188.167H274.201V207.807L277.481 209.876V188.167Z" fill="#C59161"/>
<path d="M277.481 153.77L287.625 200.622H267.337L277.481 153.77Z" fill="#62A25E"/>
<path d="M277.52 153.653L267.4 200.623L262.879 191.955L277.52 153.653Z" fill="#6CB968"/>
<path d="M277.481 153.592L287.601 200.562L292.123 191.894L277.481 153.592Z" fill="#497C46"/>
<path d="M318.339 186.334H321.795V207.029L318.339 209.21V186.334Z" fill="#AA7751"/>
<path d="M318.339 186.334H314.883V207.029L318.339 209.21V186.334Z" fill="#C59161"/>
<path d="M318.339 150.087L329.028 199.459H307.649L318.339 150.087Z" fill="#62A25E"/>
<path d="M318.38 149.964L307.716 199.459L302.951 190.326L318.38 149.964Z" fill="#6CB968"/>
<path d="M318.339 149.9L329.003 199.395L333.767 190.261L318.339 149.9Z" fill="#497C46"/>
<path d="M553.079 148.423L590 180.398L553.079 212.372H479.237L442.315 180.398L479.237 148.423H553.079Z" fill="#2ECC71"/>
<path d="M479.237 212.372L442.315 180.398V217.318L479.237 249.292H553.079L590 217.318V180.398L553.079 212.372H479.237Z" fill="#31BF61"/>
<path d="M522.049 158.638H524.699V174.507L522.049 176.179V158.638Z" fill="#AA7751"/>
<path d="M522.049 158.638H519.399V174.507L522.049 176.179V158.638Z" fill="#C59161"/>
<path d="M522.049 130.844L530.246 168.702H513.853L522.049 130.844Z" fill="#62A25E"/>
<path d="M522.081 130.751L513.904 168.703L510.25 161.699L522.081 130.751Z" fill="#6CB968"/>
<path d="M522.049 130.701L530.226 168.653L533.88 161.65L522.049 130.701Z" fill="#497C46"/>
<path d="M506.542 165.284H509.192V181.153L506.542 182.825V165.284Z" fill="#AA7751"/>
<path d="M506.542 165.284H503.892V181.153L506.542 182.825V165.284Z" fill="#C59161"/>
<path d="M506.542 137.49L514.739 175.348H498.346L506.542 137.49Z" fill="#62A25E"/>
<path d="M506.574 137.396L498.397 175.349L494.743 168.345L506.574 137.396Z" fill="#6CB968"/>
<path d="M506.542 137.347L514.719 175.299L518.373 168.295L506.542 137.347Z" fill="#497C46"/>
<path d="M541.987 161.592H544.637V177.461L541.987 179.133V161.592Z" fill="#AA7751"/>
<path d="M541.987 161.592H539.337V177.461L541.987 179.133V161.592Z" fill="#C59161"/>
<path d="M541.987 133.798L550.183 171.656H533.79L541.987 133.798Z" fill="#62A25E"/>
<path d="M542.018 133.704L533.841 171.657L530.188 164.653L542.018 133.704Z" fill="#6CB968"/>
<path d="M541.987 133.655L550.164 171.607L553.817 164.603L541.987 133.655Z" fill="#497C46"/>
<path d="M556.755 165.284H559.405V181.153L556.755 182.825V165.284Z" fill="#AA7751"/>
<path d="M556.755 165.284H554.105V181.153L556.755 182.825V165.284Z" fill="#C59161"/>
<path d="M556.755 137.49L564.952 175.348H548.559L556.755 137.49Z" fill="#62A25E"/>
<path d="M556.787 137.396L548.61 175.349L544.956 168.345L556.787 137.396Z" fill="#6CB968"/>
<path d="M556.755 137.347L564.932 175.299L568.586 168.295L556.755 137.347Z" fill="#497C46"/>
<path d="M519.834 181.529H522.484V197.398L519.834 199.07V181.529Z" fill="#AA7751"/>
<path d="M519.834 181.529H517.184V197.398L519.834 199.07V181.529Z" fill="#C59161"/>
<path d="M519.834 153.735L528.031 191.593H511.638L519.834 153.735Z" fill="#62A25E"/>
<path d="M519.866 153.642L511.689 191.594L508.035 184.59L519.866 153.642Z" fill="#6CB968"/>
<path d="M519.834 153.592L528.011 191.544L531.665 184.541L519.834 153.592Z" fill="#497C46"/>
<path d="M488.082 160.115H490.732V175.984L488.082 177.656V160.115Z" fill="#AA7751"/>
<path d="M488.082 160.115H485.432V175.984L488.082 177.656V160.115Z" fill="#C59161"/>
<path d="M488.082 132.321L496.278 170.179H479.885L488.082 132.321Z" fill="#62A25E"/>
<path d="M488.113 132.227L479.936 170.18L476.283 163.176L488.113 132.227Z" fill="#6CB968"/>
<path d="M488.082 132.178L496.259 170.13L499.912 163.126L488.082 132.178Z" fill="#497C46"/>
<path d="M477.594 176.353H480.873V195.992L477.594 198.061V176.353Z" fill="#AA7751"/>
<path d="M477.594 176.353H474.314V195.992L477.594 198.061V176.353Z" fill="#C59161"/>
<path d="M477.594 141.955L487.738 188.808H467.45L477.594 141.955Z" fill="#62A25E"/>
<path d="M477.633 141.838L467.513 188.808L462.991 180.14L477.633 141.838Z" fill="#6CB968"/>
<path d="M477.594 141.777L487.714 188.747L492.235 180.079L477.594 141.777Z" fill="#497C46"/>
<path d="M499.008 188.167H502.288V207.807L499.008 209.876V188.167Z" fill="#AA7751"/>
<path d="M499.008 188.167H495.728V207.807L499.008 209.876V188.167Z" fill="#C59161"/>
<path d="M499.008 153.77L509.152 200.622H488.864L499.008 153.77Z" fill="#62A25E"/>
<path d="M499.047 153.653L488.927 200.623L484.405 191.955L499.047 153.653Z" fill="#6CB968"/>
<path d="M499.008 153.592L509.128 200.562L513.649 191.894L499.008 153.592Z" fill="#497C46"/>
<path d="M539.865 186.334H543.321V207.029L539.865 209.21V186.334Z" fill="#AA7751"/>
<path d="M539.865 186.334H536.409V207.029L539.865 209.21V186.334Z" fill="#C59161"/>
<path d="M539.866 150.087L550.555 199.459H529.176L539.866 150.087Z" fill="#62A25E"/>
<path d="M539.907 149.964L529.243 199.459L524.478 190.326L539.907 149.964Z" fill="#6CB968"/>
<path d="M539.865 149.9L550.529 199.395L555.294 190.261L539.865 149.9Z" fill="#497C46"/>
<path d="M442.315 180.175L479.237 212.15L442.315 244.125H368.473L331.552 212.15L368.473 180.175H442.315Z" fill="#2ECC71"/>
<path d="M368.473 244.125L331.552 212.15V249.07L368.473 281.044H442.315L479.237 249.07V212.15L442.315 244.125H368.473Z" fill="#31BF61"/>
<path d="M411.286 190.39H413.936V206.259L411.286 207.931V190.39Z" fill="#AA7751"/>
<path d="M411.286 190.39H408.636V206.259L411.286 207.931V190.39Z" fill="#C59161"/>
<path d="M411.286 162.597L419.482 200.454H403.089L411.286 162.597Z" fill="#62A25E"/>
<path d="M411.317 162.503L403.14 200.455L399.487 193.452L411.317 162.503Z" fill="#6CB968"/>
<path d="M411.286 162.453L419.463 200.405L423.116 193.402L411.286 162.453Z" fill="#497C46"/>
<path d="M395.779 197.036H398.429V212.905L395.779 214.577V197.036Z" fill="#AA7751"/>
<path d="M395.779 197.036H393.129V212.905L395.779 214.577V197.036Z" fill="#C59161"/>
<path d="M395.779 169.242L403.975 207.1H387.583L395.779 169.242Z" fill="#62A25E"/>
<path d="M395.811 169.149L387.634 207.101L383.98 200.097L395.811 169.149Z" fill="#6CB968"/>
<path d="M395.779 169.099L403.956 207.051L407.609 200.048L395.779 169.099Z" fill="#497C46"/>
<path d="M431.223 193.344H433.873V209.213L431.223 210.885V193.344Z" fill="#AA7751"/>
<path d="M431.223 193.344H428.573V209.213L431.223 210.885V193.344Z" fill="#C59161"/>
<path d="M431.223 165.55L439.42 203.408H423.027L431.223 165.55Z" fill="#62A25E"/>
<path d="M431.255 165.457L423.078 203.409L419.424 196.405L431.255 165.457Z" fill="#6CB968"/>
<path d="M431.223 165.407L439.4 203.359L443.054 196.355L431.223 165.407Z" fill="#497C46"/>
<path d="M445.992 197.036H448.642V212.905L445.992 214.577V197.036Z" fill="#AA7751"/>
<path d="M445.992 197.036H443.342V212.905L445.992 214.577V197.036Z" fill="#C59161"/>
<path d="M445.992 169.242L454.188 207.1H437.795L445.992 169.242Z" fill="#62A25E"/>
<path d="M446.023 169.149L437.846 207.101L434.193 200.097L446.023 169.149Z" fill="#6CB968"/>
<path d="M445.992 169.099L454.169 207.051L457.822 200.048L445.992 169.099Z" fill="#497C46"/>
<path d="M409.071 213.282H411.721V229.15L409.071 230.822V213.282Z" fill="#AA7751"/>
<path d="M409.071 213.282H406.421V229.15L409.071 230.822V213.282Z" fill="#C59161"/>
<path d="M409.071 185.488L417.267 223.345H400.874L409.071 185.488Z" fill="#62A25E"/>
<path d="M409.102 185.394L400.925 223.346L397.272 216.343L409.102 185.394Z" fill="#6CB968"/>
<path d="M409.071 185.344L417.248 223.297L420.901 216.293L409.071 185.344Z" fill="#497C46"/>
<path d="M377.318 191.867H379.968V207.736L377.318 209.408V191.867Z" fill="#AA7751"/>
<path d="M377.318 191.867H374.668V207.736L377.318 209.408V191.867Z" fill="#C59161"/>
<path d="M377.318 164.073L385.515 201.931H369.122L377.318 164.073Z" fill="#62A25E"/>
<path d="M377.35 163.98L369.173 201.932L365.519 194.928L377.35 163.98Z" fill="#6CB968"/>
<path d="M377.318 163.93L385.495 201.882L389.149 194.879L377.318 163.93Z" fill="#497C46"/>
<path d="M366.83 208.105H370.11V227.744L366.83 229.813V208.105Z" fill="#AA7751"/>
<path d="M366.83 208.105H363.551V227.744L366.83 229.813V208.105Z" fill="#C59161"/>
<path d="M366.83 173.707L376.974 220.56H356.686L366.83 173.707Z" fill="#62A25E"/>
<path d="M366.869 173.59L356.749 220.56L352.228 211.893L366.869 173.59Z" fill="#6CB968"/>
<path d="M366.83 173.529L376.95 220.499L381.472 211.832L366.83 173.529Z" fill="#497C46"/>
<path d="M388.245 219.92H391.524V239.559L388.245 241.628V219.92Z" fill="#AA7751"/>
<path d="M388.245 219.92H384.965V239.559L388.245 241.628V219.92Z" fill="#C59161"/>
<path d="M388.245 185.522L398.388 232.375H378.101L388.245 185.522Z" fill="#62A25E"/>
<path d="M388.284 185.405L378.164 232.375L373.642 223.707L388.284 185.405Z" fill="#6CB968"/>
<path d="M388.245 185.344L398.364 232.314L402.886 223.646L388.245 185.344Z" fill="#497C46"/>
<path d="M429.102 218.086H432.558V238.781L429.102 240.962V218.086Z" fill="#AA7751"/>
<path d="M429.102 218.086H425.646V238.781L429.102 240.962V218.086Z" fill="#C59161"/>
<path d="M429.102 181.839L439.791 231.211H418.413L429.102 181.839Z" fill="#62A25E"/>
<path d="M429.143 181.716L418.479 231.212L413.714 222.078L429.143 181.716Z" fill="#6CB968"/>
<path d="M429.102 181.652L439.766 231.147L444.531 222.013L429.102 181.652Z" fill="#497C46"/>
<path d="M221.527 180.175L258.448 212.15L221.527 244.125H147.685L110.763 212.15L147.685 180.175H221.527Z" fill="#2ECC71"/>
<path d="M232.234 234.783L121.471 202.808V201.331L139.931 185.344L250.695 217.466V218.796L232.234 234.783Z" fill="#414040"/>
<path d="M147.685 244.125L110.763 212.15V249.07L147.685 281.044H221.527L258.448 249.07V212.15L221.527 244.125H147.685Z" fill="#31BF61"/>
<path d="M232.234 233.306L121.471 201.332L139.931 185.344L250.695 217.319L232.234 233.306Z" fill="#6C6C6C"/>
<path d="M331.552 211.927L368.473 243.902L331.552 275.877H257.71L220.789 243.902L257.71 211.927H331.552Z" fill="#2ECC71"/>
<path d="M342.259 266.535L231.496 234.561V233.083L249.956 217.096L360.72 249.218V250.548L342.259 266.535Z" fill="#414040"/>
<path d="M257.71 275.877L220.789 243.902V280.822L257.71 312.796H331.552L368.473 280.822V243.902L331.552 275.877H257.71Z" fill="#31BF61"/>
<path d="M342.259 265.058L231.496 233.084L249.956 217.096L360.72 249.071L342.259 265.058Z" fill="#6C6C6C"/>
<path d="M110.763 230.388L147.685 262.363L110.763 294.337H36.9212L0 262.363L36.9212 230.388H110.763Z" fill="#00B2FF"/>
<path d="M36.9212 294.337L0 262.363V280.822L36.9212 312.796H110.763L147.685 280.822V262.363L110.763 294.337H36.9212Z" fill="#1F50FF"/>
<path d="M220.788 262.14L257.71 294.115L220.788 326.09H146.946L110.025 294.115L146.946 262.14H220.788Z" fill="#00B2FF"/>
<path d="M146.946 326.09L110.025 294.115V312.574L146.946 344.548H220.788L257.71 312.574V294.115L220.788 326.09H146.946Z" fill="#1F50FF"/>
<path d="M478.498 211.927L441.577 243.902L478.498 275.877H552.34L589.262 243.902L552.34 211.927H478.498Z" fill="#2ECC71"/>
<path d="M467.791 266.535L578.554 234.561V233.083L577.062 233.268L560.094 218.573L458.289 247.962L449.33 249.07V250.548L467.791 266.535Z" fill="#414040"/>
<path d="M467.791 265.058L578.554 233.084L560.094 217.096L449.33 249.071L467.791 265.058Z" fill="#6C6C6C"/>
<path d="M552.34 275.877L589.262 243.902V280.822L552.34 312.796H478.498L441.577 280.822V243.902L478.498 275.877H552.34Z" fill="#31BF61"/>
<path d="M442.315 243.68L479.237 275.654L442.315 307.629H368.473L331.552 275.654L368.473 243.68H442.315Z" fill="#2ECC71"/>
<path d="M418.686 259.459L450.069 250.399L468.529 264.911V266.387L442.315 273.954L424.809 279.008C412.125 282.669 398.664 282.669 385.98 279.008L368.473 273.954L342.259 266.387V264.911L360.72 250.399L392.841 259.672L405.394 263.296L418.686 259.459Z" fill="#414040"/>
<path d="M450.069 248.925L468.529 264.912L424.809 277.533C412.125 281.195 398.664 281.195 385.98 277.533L342.259 264.912L360.72 248.925L385.98 256.217C398.664 259.878 412.125 259.878 424.809 256.217L450.069 248.925Z" fill="#6C6C6C"/>
<path d="M368.473 307.629L331.552 275.654V312.575L368.473 344.548H442.315L479.237 312.575V275.654L442.315 307.629H368.473Z" fill="#31BF61"/>
<path d="M331.552 293.892L368.473 325.867L331.552 357.842H257.71L220.789 325.867L257.71 293.892H331.552Z" fill="#00B2FF"/>
<path d="M257.71 357.842L220.789 325.867V344.327L257.71 376.3H331.552L368.473 344.327V325.867L331.552 357.842H257.71Z" fill="#1F50FF"/>
<path d="M553.079 293.892L590 325.867L553.079 357.842H479.237L442.315 325.867L479.237 293.892H553.079Z" fill="#00B2FF"/>
<path d="M479.237 357.842L442.315 325.867V344.327L479.237 376.3H553.079L590 344.327V325.867L553.079 357.842H479.237Z" fill="#1F50FF"/>
<path d="M442.315 325.645L479.237 357.619L442.315 389.594H368.473L331.552 357.619L368.473 325.645H442.315Z" fill="#00B2FF"/>
<path d="M368.473 389.594L331.552 357.619V376.079L368.473 408.053H442.315L479.237 376.079V357.619L442.315 389.594H368.473Z" fill="#1F50FF"/>
</svg>
