<svg width="799" height="539" viewBox="0 0 799 539" fill="none" xmlns="http://www.w3.org/2000/svg">
<path d="M450 106.45L500 149.751L450 193.053H350L300 149.751L350 106.45H450Z" fill="#22C55E"/>
<path d="M350 193.053L300 149.751V187.25L350 230.551H450L500 187.25V149.751L450 193.053H350Z" fill="#A16207"/>
<path d="M500 149.751L450 193.053V230.551L500 187.25V149.751Z" fill="#713F12"/>
<path d="M450 193.053H350V230.551H450V193.053Z" fill="#854D0E"/>
<path d="M450 94.45L500 137.751L450 181.053H350L300 137.751L350 94.45H450Z" fill="#22C55E"/>
<path d="M300 137.751L350 181.053H450L500 137.751V150.251L450 193.552H350L300 150.251V137.751Z" fill="#16A34A"/>
<path d="M500 137.751L450 181.053V193.552L500 150.251V137.751Z" fill="#166534"/>
<path d="M450 181.053H350V193.552H450V181.053Z" fill="#15803D"/>
<path d="M441.25 92.74L483 128.897L441.25 165.053H357.75L316 128.897L357.75 92.74H441.25Z" fill="#A1A1AA"/>
<path d="M357.75 165.053L316 128.897V137.83L357.75 174.152H441.25L483 137.83V128.897L441.25 165.053H357.75Z" fill="#78716C"/>
<path d="M441.25 165.053H357.75V174.152H441.25V165.053Z" fill="#57534E"/>
<path d="M483 128.897L441.25 165.053V174.152L483 137.83V128.897Z" fill="#44403C"/>
<path d="M483 128.9L441.25 165.048L399.5 0L483 128.9Z" fill="#52525B"/>
<path d="M399.5 0L409.569 39.8047V23.3904L418.12 28.725L399.5 0Z" fill="#CBD5E1"/>
<path d="M441.25 165.048H357.75L399.5 0L441.25 165.048Z" fill="#71717A"/>
<path d="M399.5 0L389.48 39.6115L402.005 30.7768L409.52 39.6115L399.5 0Z" fill="#E2E8F0"/>
<path d="M357.75 165.048L316 128.9L399.5 0L357.75 165.048Z" fill="#A1A1AA"/>
<path d="M379.82 30.3665L399.5 0L389.431 39.8047L388.227 24.6215L379.82 30.3665Z" fill="#F1F5F9"/>
<path d="M600 149.45L650 192.751L600 236.053H500L450 192.751L500 149.45H600Z" fill="#22C55E"/>
<path d="M500 236.053L450 192.751V230.25L500 273.551H600L650 230.25V192.751L600 236.053H500Z" fill="#A16207"/>
<path d="M650 192.751L600 236.053V273.551L650 230.25V192.751Z" fill="#713F12"/>
<path d="M600 236.053H500V273.551H600V236.053Z" fill="#854D0E"/>
<path d="M600 137.45L650 180.751L600 224.053H500L450 180.751L500 137.45H600Z" fill="#22C55E"/>
<path d="M450 180.751L500 224.053H600L650 180.751V193.251L600 236.552H500L450 193.251V180.751Z" fill="#16A34A"/>
<path d="M650 180.751L600 224.053V236.552L650 193.251V180.751Z" fill="#166534"/>
<path d="M600 224.053H500V236.552H600V224.053Z" fill="#15803D"/>
<path d="M591.25 135.74L633 171.897L591.25 208.053H507.75L466 171.897L507.75 135.74H591.25Z" fill="#A1A1AA"/>
<path d="M507.75 208.053L466 171.897V180.83L507.75 217.152H591.25L633 180.83V171.897L591.25 208.053H507.75Z" fill="#78716C"/>
<path d="M591.25 208.053H507.75V217.152H591.25V208.053Z" fill="#57534E"/>
<path d="M633 171.897L591.25 208.053V217.152L633 180.83V171.897Z" fill="#44403C"/>
<path d="M633 171.9L591.25 208.048L549.5 43L633 171.9Z" fill="#52525B"/>
<path d="M549.5 43L559.569 82.8047V66.3904L568.12 71.725L549.5 43Z" fill="#CBD5E1"/>
<path d="M591.25 208.048H507.75L549.5 43L591.25 208.048Z" fill="#71717A"/>
<path d="M549.5 43L539.48 82.6115L552.005 73.7768L559.52 82.6115L549.5 43Z" fill="#E2E8F0"/>
<path d="M507.75 208.048L466 171.9L549.5 43L507.75 208.048Z" fill="#A1A1AA"/>
<path d="M529.82 73.3665L549.5 43L539.431 82.8047L538.228 67.6215L529.82 73.3665Z" fill="#F1F5F9"/>
<path d="M749 193L799 236.301L749 279.603H649L599 236.301L649 193H749Z" fill="#22C55E"/>
<path d="M649 279.603L599 236.301V273.8L649 317.101H749L799 273.8V236.301L749 279.603H649Z" fill="#A16207"/>
<path d="M799 236.301L749 279.603V317.101L799 273.8V236.301Z" fill="#713F12"/>
<path d="M749 279.603H649V317.101H749V279.603Z" fill="#854D0E"/>
<path d="M749 181L799 224.301L749 267.603H649L599 224.301L649 181H749Z" fill="#22C55E"/>
<path d="M599 224.301L649 267.603H749L799 224.301V236.801L749 280.102H649L599 236.801V224.301Z" fill="#16A34A"/>
<path d="M799 224.301L749 267.603V280.102L799 236.801V224.301Z" fill="#166534"/>
<path d="M749 267.603H649V280.102H749V267.603Z" fill="#15803D"/>
<path d="M759.969 187.817H765.128V218.709L759.969 221.964V187.817Z" fill="#A16207"/>
<path d="M759.969 187.817H754.81V218.709L759.969 221.964V187.817Z" fill="#CA8A04"/>
<path d="M759.969 133.71L775.925 207.408H744.013L759.969 133.71Z" fill="#15803D"/>
<path d="M760.031 133.526L744.112 207.408L737 193.774L760.031 133.526Z" fill="#16A34A"/>
<path d="M759.969 133.431L775.888 207.313L783 193.679L759.969 133.431Z" fill="#166534"/>
<path d="M722.972 174.657H727.682V202.862L722.972 205.834V174.657Z" fill="#A16207"/>
<path d="M722.972 174.657H718.262V202.862L722.972 205.834V174.657Z" fill="#CA8A04"/>
<path d="M722.972 125.255L737.541 192.545H708.403L722.972 125.255Z" fill="#15803D"/>
<path d="M723.028 125.087L708.494 192.545L702 180.096L723.028 125.087Z" fill="#16A34A"/>
<path d="M722.972 125L737.506 192.458L744 180.009L722.972 125Z" fill="#166534"/>
<path d="M659.972 169.657H664.682V197.862L659.972 200.834V169.657Z" fill="#A16207"/>
<path d="M659.972 169.657H655.262V197.862L659.972 200.834V169.657Z" fill="#CA8A04"/>
<path d="M659.972 120.255L674.541 187.545H645.403L659.972 120.255Z" fill="#15803D"/>
<path d="M660.028 120.087L645.494 187.545L639 175.096L660.028 120.087Z" fill="#16A34A"/>
<path d="M659.972 120L674.506 187.458L681 175.009L659.972 120Z" fill="#166534"/>
<path d="M682.972 176.657H687.682V204.862L682.972 207.834V176.657Z" fill="#A16207"/>
<path d="M682.972 176.657H678.262V204.862L682.972 207.834V176.657Z" fill="#CA8A04"/>
<path d="M682.972 127.255L697.541 194.545H668.403L682.972 127.255Z" fill="#15803D"/>
<path d="M683.028 127.087L668.494 194.545L662 182.096L683.028 127.087Z" fill="#16A34A"/>
<path d="M682.972 127L697.506 194.458L704 182.009L682.972 127Z" fill="#166534"/>
<path d="M633.701 195.118H639.024V226.994L633.701 230.352V195.118Z" fill="#A16207"/>
<path d="M633.701 195.118H628.378V226.994L633.701 230.352V195.118Z" fill="#CA8A04"/>
<path d="M633.701 139.288L650.165 215.333H617.236L633.701 139.288Z" fill="#15803D"/>
<path d="M633.764 139.098L617.339 215.333L610 201.265L633.764 139.098Z" fill="#16A34A"/>
<path d="M633.701 139L650.126 215.235L657.465 201.167L633.701 139Z" fill="#166534"/>
<path d="M707.967 215.115H713.574V248.693L707.967 252.232V215.115Z" fill="#A16207"/>
<path d="M707.967 215.115H702.359V248.693L707.967 252.232V215.115Z" fill="#CA8A04"/>
<path d="M707.967 156.304L725.31 236.41H690.623L707.967 156.304Z" fill="#15803D"/>
<path d="M708.033 156.103L690.731 236.41L683 221.59L708.033 156.103Z" fill="#16A34A"/>
<path d="M707.967 156L725.269 236.307L733 221.487L707.967 156Z" fill="#166534"/>
<path d="M665.964 218.845H672.02V255.109L665.964 258.93V218.845Z" fill="#A16207"/>
<path d="M665.964 218.845H659.908V255.109L665.964 258.93V218.845Z" fill="#CA8A04"/>
<path d="M665.964 155.328L684.695 241.843H647.233L665.964 155.328Z" fill="#15803D"/>
<path d="M666.036 155.112L647.349 241.843L639 225.838L666.036 155.112Z" fill="#16A34A"/>
<path d="M665.964 155L684.651 241.732L693 225.726L665.964 155Z" fill="#166534"/>
<path d="M741.768 223.91H746.882V254.532L741.768 257.759V223.91Z" fill="#A16207"/>
<path d="M741.768 223.91H736.655V254.532L741.768 257.759V223.91Z" fill="#CA8A04"/>
<path d="M741.768 170.277L757.585 243.33H725.952L741.768 170.277Z" fill="#15803D"/>
<path d="M741.829 170.094L726.05 243.33L719 229.816L741.829 170.094Z" fill="#16A34A"/>
<path d="M741.768 170L757.548 243.236L764.598 229.721L741.768 170Z" fill="#166534"/>
<path d="M299 150L349 193.301L299 236.603H199L149 193.301L199 150H299Z" fill="#22C55E"/>
<path d="M199 236.603L149 193.301V230.8L199 274.101H299L349 230.8V193.301L299 236.603H199Z" fill="#A16207"/>
<path d="M349 193.301L299 236.603V274.101L349 230.8V193.301Z" fill="#713F12"/>
<path d="M299 236.603H199V274.101H299V236.603Z" fill="#854D0E"/>
<path d="M299 138L349 181.301L299 224.603H199L149 181.301L199 138H299Z" fill="#22C55E"/>
<path d="M149 181.301L199 224.603H299L349 181.301V193.801L299 237.102H199L149 193.801V181.301Z" fill="#16A34A"/>
<path d="M349 181.301L299 224.603V237.102L349 193.801V181.301Z" fill="#166534"/>
<path d="M299 224.603H199V237.102H299V224.603Z" fill="#15803D"/>
<path d="M309.969 144.817H315.128V175.709L309.969 178.964V144.817Z" fill="#A16207"/>
<path d="M309.969 144.817H304.81V175.709L309.969 178.964V144.817Z" fill="#CA8A04"/>
<path d="M309.969 90.7102L325.926 164.408H294.013L309.969 90.7102Z" fill="#15803D"/>
<path d="M310.031 90.526L294.112 164.408L287 150.774L310.031 90.526Z" fill="#16A34A"/>
<path d="M309.969 90.4309L325.888 164.313L333 150.679L309.969 90.4309Z" fill="#166534"/>
<path d="M272.972 131.657H277.682V159.862L272.972 162.834V131.657Z" fill="#A16207"/>
<path d="M272.972 131.657H268.262V159.862L272.972 162.834V131.657Z" fill="#CA8A04"/>
<path d="M272.972 82.255L287.54 149.545H258.403L272.972 82.255Z" fill="#15803D"/>
<path d="M273.028 82.0867L258.494 149.545L252 137.096L273.028 82.0867Z" fill="#16A34A"/>
<path d="M272.972 82L287.506 149.458L294 137.009L272.972 82Z" fill="#166534"/>
<path d="M209.972 126.657H214.682V154.862L209.972 157.834V126.657Z" fill="#A16207"/>
<path d="M209.972 126.657H205.262V154.862L209.972 157.834V126.657Z" fill="#CA8A04"/>
<path d="M209.972 77.255L224.54 144.545H195.403L209.972 77.255Z" fill="#15803D"/>
<path d="M210.028 77.0867L195.494 144.545L189 132.096L210.028 77.0867Z" fill="#16A34A"/>
<path d="M209.972 77L224.506 144.458L231 132.009L209.972 77Z" fill="#166534"/>
<path d="M232.972 133.657H237.682V161.862L232.972 164.834V133.657Z" fill="#A16207"/>
<path d="M232.972 133.657H228.262V161.862L232.972 164.834V133.657Z" fill="#CA8A04"/>
<path d="M232.972 84.255L247.54 151.545H218.403L232.972 84.255Z" fill="#15803D"/>
<path d="M233.028 84.0867L218.494 151.545L212 139.096L233.028 84.0867Z" fill="#16A34A"/>
<path d="M232.972 84L247.506 151.458L254 139.009L232.972 84Z" fill="#166534"/>
<path d="M183.701 152.118H189.024V183.994L183.701 187.352V152.118Z" fill="#A16207"/>
<path d="M183.701 152.118H178.378V183.994L183.701 187.352V152.118Z" fill="#CA8A04"/>
<path d="M183.701 96.2882L200.165 172.333H167.236L183.701 96.2882Z" fill="#15803D"/>
<path d="M183.764 96.098L167.339 172.333L160 158.265L183.764 96.098Z" fill="#16A34A"/>
<path d="M183.701 96L200.126 172.235L207.465 158.167L183.701 96Z" fill="#166534"/>
<path d="M257.967 172.115H263.574V205.693L257.967 209.232V172.115Z" fill="#A16207"/>
<path d="M257.967 172.115H252.359V205.693L257.967 209.232V172.115Z" fill="#CA8A04"/>
<path d="M257.967 113.304L275.31 193.41H240.623L257.967 113.304Z" fill="#15803D"/>
<path d="M258.033 113.103L240.731 193.41L233 178.59L258.033 113.103Z" fill="#16A34A"/>
<path d="M257.967 113L275.269 193.307L283 178.487L257.967 113Z" fill="#166534"/>
<path d="M215.964 175.845H222.02V212.109L215.964 215.93V175.845Z" fill="#A16207"/>
<path d="M215.964 175.845H209.908V212.109L215.964 215.93V175.845Z" fill="#CA8A04"/>
<path d="M215.964 112.328L234.695 198.843H197.233L215.964 112.328Z" fill="#15803D"/>
<path d="M216.036 112.112L197.349 198.843L189 182.838L216.036 112.112Z" fill="#16A34A"/>
<path d="M215.964 112L234.651 198.732L243 182.726L215.964 112Z" fill="#166534"/>
<path d="M291.769 180.91H296.882V211.532L291.769 214.759V180.91Z" fill="#A16207"/>
<path d="M291.769 180.91H286.655V211.532L291.769 214.759V180.91Z" fill="#CA8A04"/>
<path d="M291.768 127.277L307.585 200.33H275.952L291.768 127.277Z" fill="#15803D"/>
<path d="M291.829 127.094L276.05 200.33L269 186.816L291.829 127.094Z" fill="#16A34A"/>
<path d="M291.768 127L307.548 200.236L314.598 186.721L291.768 127Z" fill="#166534"/>
<path d="M449 193L499 236.301L449 279.603H349L299 236.301L349 193H449Z" fill="#22C55E"/>
<path d="M349 279.603L299 236.301V273.8L349 317.101H449L499 273.8V236.301L449 279.603H349Z" fill="#A16207"/>
<path d="M499 236.301L449 279.603V317.101L499 273.8V236.301Z" fill="#713F12"/>
<path d="M449 279.603H349V317.101H449V279.603Z" fill="#854D0E"/>
<path d="M449 181L499 224.301L449 267.603H349L299 224.301L349 181H449Z" fill="#22C55E"/>
<path d="M299 224.301L349 267.603H449L499 224.301V236.801L449 280.102H349L299 236.801V224.301Z" fill="#16A34A"/>
<path d="M499 224.301L449 267.603V280.102L499 236.801V224.301Z" fill="#166534"/>
<path d="M449 267.603H349V280.102H449V267.603Z" fill="#15803D"/>
<path d="M459.969 187.817H465.128V218.709L459.969 221.964V187.817Z" fill="#A16207"/>
<path d="M459.969 187.817H454.81V218.709L459.969 221.964V187.817Z" fill="#CA8A04"/>
<path d="M459.969 133.71L475.926 207.408H444.013L459.969 133.71Z" fill="#15803D"/>
<path d="M460.031 133.526L444.112 207.408L437 193.774L460.031 133.526Z" fill="#16A34A"/>
<path d="M459.969 133.431L475.888 207.313L483 193.679L459.969 133.431Z" fill="#166534"/>
<path d="M422.972 174.657H427.682V202.862L422.972 205.834V174.657Z" fill="#A16207"/>
<path d="M422.972 174.657H418.262V202.862L422.972 205.834V174.657Z" fill="#CA8A04"/>
<path d="M422.972 125.255L437.54 192.545H408.403L422.972 125.255Z" fill="#15803D"/>
<path d="M423.028 125.087L408.494 192.545L402 180.096L423.028 125.087Z" fill="#16A34A"/>
<path d="M422.972 125L437.506 192.458L444 180.009L422.972 125Z" fill="#166534"/>
<path d="M359.972 169.657H364.682V197.862L359.972 200.834V169.657Z" fill="#A16207"/>
<path d="M359.972 169.657H355.262V197.862L359.972 200.834V169.657Z" fill="#CA8A04"/>
<path d="M359.972 120.255L374.54 187.545H345.403L359.972 120.255Z" fill="#15803D"/>
<path d="M360.028 120.087L345.494 187.545L339 175.096L360.028 120.087Z" fill="#16A34A"/>
<path d="M359.972 120L374.506 187.458L381 175.009L359.972 120Z" fill="#166534"/>
<path d="M382.972 176.657H387.682V204.862L382.972 207.834V176.657Z" fill="#A16207"/>
<path d="M382.972 176.657H378.262V204.862L382.972 207.834V176.657Z" fill="#CA8A04"/>
<path d="M382.972 127.255L397.54 194.545H368.403L382.972 127.255Z" fill="#15803D"/>
<path d="M383.028 127.087L368.494 194.545L362 182.096L383.028 127.087Z" fill="#16A34A"/>
<path d="M382.972 127L397.506 194.458L404 182.009L382.972 127Z" fill="#166534"/>
<path d="M333.701 195.118H339.024V226.994L333.701 230.352V195.118Z" fill="#A16207"/>
<path d="M333.701 195.118H328.378V226.994L333.701 230.352V195.118Z" fill="#CA8A04"/>
<path d="M333.701 139.288L350.165 215.333H317.236L333.701 139.288Z" fill="#15803D"/>
<path d="M333.764 139.098L317.339 215.333L310 201.265L333.764 139.098Z" fill="#16A34A"/>
<path d="M333.701 139L350.126 215.235L357.465 201.167L333.701 139Z" fill="#166534"/>
<path d="M407.967 215.115H413.574V248.693L407.967 252.232V215.115Z" fill="#A16207"/>
<path d="M407.967 215.115H402.359V248.693L407.967 252.232V215.115Z" fill="#CA8A04"/>
<path d="M407.967 156.304L425.31 236.41H390.623L407.967 156.304Z" fill="#15803D"/>
<path d="M408.033 156.103L390.731 236.41L383 221.59L408.033 156.103Z" fill="#16A34A"/>
<path d="M407.967 156L425.269 236.307L433 221.487L407.967 156Z" fill="#166534"/>
<path d="M365.964 218.845H372.02V255.109L365.964 258.93V218.845Z" fill="#A16207"/>
<path d="M365.964 218.845H359.908V255.109L365.964 258.93V218.845Z" fill="#CA8A04"/>
<path d="M365.964 155.328L384.695 241.843H347.233L365.964 155.328Z" fill="#15803D"/>
<path d="M366.036 155.112L347.349 241.843L339 225.838L366.036 155.112Z" fill="#16A34A"/>
<path d="M365.964 155L384.651 241.732L393 225.726L365.964 155Z" fill="#166534"/>
<path d="M441.769 223.91H446.882V254.532L441.769 257.759V223.91Z" fill="#A16207"/>
<path d="M441.769 223.91H436.655V254.532L441.769 257.759V223.91Z" fill="#CA8A04"/>
<path d="M441.768 170.277L457.585 243.33H425.952L441.768 170.277Z" fill="#15803D"/>
<path d="M441.829 170.094L426.05 243.33L419 229.816L441.829 170.094Z" fill="#16A34A"/>
<path d="M441.768 170L457.548 243.236L464.598 229.721L441.768 170Z" fill="#166534"/>
<path d="M599 236L649 279.301L599 322.603H499L449 279.301L499 236H599Z" fill="#22C55E"/>
<path d="M499 322.603L449 279.301V316.8L499 360.101H599L649 316.8V279.301L599 322.603H499Z" fill="#A16207"/>
<path d="M649 279.301L599 322.603V360.101L649 316.8V279.301Z" fill="#713F12"/>
<path d="M599 322.603H499V360.101H599V322.603Z" fill="#854D0E"/>
<path d="M599 224L649 267.301L599 310.603H499L449 267.301L499 224H599Z" fill="#22C55E"/>
<path d="M449 267.301L499 310.603H599L649 267.301V279.801L599 323.102H499L449 279.801V267.301Z" fill="#16A34A"/>
<path d="M649 267.301L599 310.603V323.102L649 279.801V267.301Z" fill="#166534"/>
<path d="M599 310.603H499V323.102H599V310.603Z" fill="#15803D"/>
<path d="M609.969 230.817H615.128V261.709L609.969 264.964V230.817Z" fill="#A16207"/>
<path d="M609.969 230.817H604.81V261.709L609.969 264.964V230.817Z" fill="#CA8A04"/>
<path d="M609.969 176.71L625.925 250.408H594.013L609.969 176.71Z" fill="#15803D"/>
<path d="M610.031 176.526L594.112 250.408L587 236.774L610.031 176.526Z" fill="#16A34A"/>
<path d="M609.969 176.431L625.888 250.313L633 236.679L609.969 176.431Z" fill="#166534"/>
<path d="M572.972 217.657H577.682V245.862L572.972 248.834V217.657Z" fill="#A16207"/>
<path d="M572.972 217.657H568.262V245.862L572.972 248.834V217.657Z" fill="#CA8A04"/>
<path d="M572.972 168.255L587.541 235.545H558.403L572.972 168.255Z" fill="#15803D"/>
<path d="M573.028 168.087L558.494 235.545L552 223.096L573.028 168.087Z" fill="#16A34A"/>
<path d="M572.972 168L587.506 235.458L594 223.009L572.972 168Z" fill="#166534"/>
<path d="M509.972 212.657H514.682V240.862L509.972 243.834V212.657Z" fill="#A16207"/>
<path d="M509.972 212.657H505.262V240.862L509.972 243.834V212.657Z" fill="#CA8A04"/>
<path d="M509.972 163.255L524.54 230.545H495.403L509.972 163.255Z" fill="#15803D"/>
<path d="M510.028 163.087L495.494 230.545L489 218.096L510.028 163.087Z" fill="#16A34A"/>
<path d="M509.972 163L524.506 230.458L531 218.009L509.972 163Z" fill="#166534"/>
<path d="M532.972 219.657H537.682V247.862L532.972 250.834V219.657Z" fill="#A16207"/>
<path d="M532.972 219.657H528.262V247.862L532.972 250.834V219.657Z" fill="#CA8A04"/>
<path d="M532.972 170.255L547.541 237.545H518.403L532.972 170.255Z" fill="#15803D"/>
<path d="M533.028 170.087L518.494 237.545L512 225.096L533.028 170.087Z" fill="#16A34A"/>
<path d="M532.972 170L547.506 237.458L554 225.009L532.972 170Z" fill="#166534"/>
<path d="M483.701 238.118H489.024V269.994L483.701 273.352V238.118Z" fill="#A16207"/>
<path d="M483.701 238.118H478.378V269.994L483.701 273.352V238.118Z" fill="#CA8A04"/>
<path d="M483.701 182.288L500.165 258.333H467.236L483.701 182.288Z" fill="#15803D"/>
<path d="M483.764 182.098L467.339 258.333L460 244.265L483.764 182.098Z" fill="#16A34A"/>
<path d="M483.701 182L500.126 258.235L507.465 244.167L483.701 182Z" fill="#166534"/>
<path d="M557.967 258.115H563.574V291.693L557.967 295.232V258.115Z" fill="#A16207"/>
<path d="M557.967 258.115H552.359V291.693L557.967 295.232V258.115Z" fill="#CA8A04"/>
<path d="M557.967 199.304L575.31 279.41H540.623L557.967 199.304Z" fill="#15803D"/>
<path d="M558.033 199.103L540.731 279.41L533 264.59L558.033 199.103Z" fill="#16A34A"/>
<path d="M557.967 199L575.269 279.307L583 264.487L557.967 199Z" fill="#166534"/>
<path d="M515.964 261.845H522.02V298.109L515.964 301.93V261.845Z" fill="#A16207"/>
<path d="M515.964 261.845H509.908V298.109L515.964 301.93V261.845Z" fill="#CA8A04"/>
<path d="M515.964 198.328L534.695 284.843H497.233L515.964 198.328Z" fill="#15803D"/>
<path d="M516.036 198.112L497.349 284.843L489 268.838L516.036 198.112Z" fill="#16A34A"/>
<path d="M515.964 198L534.651 284.732L543 268.726L515.964 198Z" fill="#166534"/>
<path d="M591.768 266.91H596.882V297.532L591.768 300.759V266.91Z" fill="#A16207"/>
<path d="M591.768 266.91H586.655V297.532L591.768 300.759V266.91Z" fill="#CA8A04"/>
<path d="M591.768 213.277L607.585 286.33H575.952L591.768 213.277Z" fill="#15803D"/>
<path d="M591.829 213.094L576.05 286.33L569 272.816L591.829 213.094Z" fill="#16A34A"/>
<path d="M591.768 213L607.548 286.236L614.598 272.721L591.768 213Z" fill="#166534"/>
<path d="M50 193L0 236.301L50 279.603H150L200 236.301L150 193H50Z" fill="#22C55E"/>
<path d="M150 279.603L200 236.301V273.8L150 317.101H50L0 273.8V236.301L50 279.603H150Z" fill="#713F12"/>
<path d="M0 236.301L50 279.603V317.101L0 273.8V236.301Z" fill="#A16207"/>
<path d="M50 279.603H150V317.101H50V279.603Z" fill="#854D0E"/>
<path d="M50 181L0 224.301L50 267.603H150L200 224.301L150 181H50Z" fill="#22C55E"/>
<path d="M162.5 256.777L96.6795 237.777C83.8398 234.07 75 222.317 75 208.953V175H125V207.324C125 209.551 126.473 211.51 128.613 212.127L187.5 229.127V235.127L162.5 256.777Z" fill="#44403C"/>
<path d="M162.5 250.777L175 239.952L187.5 229.127L128.613 212.127C126.473 211.51 125 209.551 125 207.324V175H100H75V202.953C75 216.317 83.8398 228.07 96.6795 231.777L162.5 250.777Z" fill="#78716C"/>
<path d="M200 224.301L150 267.603H50L0 224.301V236.801L50 280.102H150L200 236.801V224.301Z" fill="#166534"/>
<path d="M0 224.301L50 267.603V280.102L0 236.801V224.301Z" fill="#16A34A"/>
<path d="M50 267.603H150V280.102H50V267.603Z" fill="#15803D"/>
<path d="M199 236L149 279.301L199 322.603H299L349 279.301L299 236H199Z" fill="#22C55E"/>
<path d="M299 322.603L349 279.301V316.8L299 360.101H199L149 316.8V279.301L199 322.603H299Z" fill="#713F12"/>
<path d="M149 279.301L199 322.603V360.101L149 316.8V279.301Z" fill="#A16207"/>
<path d="M199 322.603H299V360.101H199V322.603Z" fill="#854D0E"/>
<path d="M199 224L149 267.301L199 310.603H299L349 267.301L299 224H199Z" fill="#22C55E"/>
<path d="M186.5 228.825L174 239.651L161.5 250.476L311.5 293.777L324 282.952L336.5 272.127L186.5 228.825Z" fill="#78716C"/>
<path d="M311.5 299.777L324 288.952L336.5 278.127V272.127L324 282.952L311.5 293.777L161.5 250.476V256.476L311.5 299.777Z" fill="#44403C"/>
<path d="M349 267.301L299 310.603H199L149 267.301V279.801L199 323.102H299L349 279.801V267.301Z" fill="#166534"/>
<path d="M149 267.301L199 310.603V323.102L149 279.801V267.301Z" fill="#16A34A"/>
<path d="M199 310.603H299V323.102H199V310.603Z" fill="#15803D"/>
<path d="M349 279L299 322.301L349 365.603H449L499 322.301L449 279H349Z" fill="#22C55E"/>
<path d="M449 365.603L499 322.301V359.8L449 403.101H349L299 359.8V322.301L349 365.603H449Z" fill="#713F12"/>
<path d="M299 322.301L349 365.603V403.101L299 359.8V322.301Z" fill="#A16207"/>
<path d="M349 365.603H449V403.101H349V365.603Z" fill="#854D0E"/>
<path d="M349 267L299 310.301L349 353.603H449L499 310.301L449 267H349Z" fill="#22C55E"/>
<path d="M336.5 271.825L324 282.651L311.5 293.476L461.5 336.777L474 325.952L486.5 315.127L336.5 271.825Z" fill="#78716C"/>
<path d="M461.5 342.777L474 331.952L486.5 321.127V315.127L474 325.952L461.5 336.777L311.5 293.476V299.476L461.5 342.777Z" fill="#44403C"/>
<path d="M499 310.301L449 353.603H349L299 310.301V322.801L349 366.102H449L499 322.801V310.301Z" fill="#166534"/>
<path d="M299 310.301L349 353.603V366.102L299 322.801V310.301Z" fill="#16A34A"/>
<path d="M349 353.603H449V366.102H349V353.603Z" fill="#15803D"/>
<path d="M747 279L797 322.301L747 365.603H647L597 322.301L647 279H747Z" fill="#22C55E"/>
<path d="M647 365.603L597 322.301V359.8L647 403.101H747L797 359.8V322.301L747 365.603H647Z" fill="#A16207"/>
<path d="M797 322.301L747 365.603V403.101L797 359.8V322.301Z" fill="#713F12"/>
<path d="M747 365.603H647V403.101H747V365.603Z" fill="#854D0E"/>
<path d="M747 267L797 310.301L747 353.603H647L597 310.301L647 267H747Z" fill="#22C55E"/>
<path d="M759.5 271.825L772 282.651L784.5 293.476L634.5 336.777L622 325.952L609.5 315.127L759.5 271.825Z" fill="#78716C"/>
<path d="M634.5 342.777L622 331.952L609.5 321.127V315.127L622 325.952L634.5 336.777L784.5 293.476V299.476L634.5 342.777Z" fill="#44403C"/>
<path d="M597 310.301L647 353.603H747L797 310.301V322.801L747 366.102H647L597 322.801V310.301Z" fill="#16A34A"/>
<path d="M797 310.301L747 353.603V366.102L797 322.801V310.301Z" fill="#166534"/>
<path d="M747 353.603H647V366.102H747V353.603Z" fill="#15803D"/>
<path d="M598 322L648 365.301L598 408.603H498L448 365.301L498 322H598Z" fill="#22C55E"/>
<path d="M498 408.603L448 365.301V402.8L498 446.101H598L648 402.8V365.301L598 408.603H498Z" fill="#A16207"/>
<path d="M648 365.301L598 408.603V446.101L648 402.8V365.301Z" fill="#713F12"/>
<path d="M598 408.603H498V446.101H598V408.603Z" fill="#854D0E"/>
<path d="M598 310L648 353.301L598 396.603H498L448 353.301L498 310H598Z" fill="#22C55E"/>
<path d="M598 353.301L635.5 342.476V336.476L598 347.301L561.868 357.732C552.807 360.347 543.193 360.347 534.132 357.732L498 347.301L460.5 336.476V342.476L498 353.301L534.132 363.732C543.193 366.347 552.807 366.347 561.868 363.732L598 353.301Z" fill="#44403C"/>
<path d="M460.5 336.476L473 325.651L485.5 314.825L541.066 330.866C545.596 332.174 550.404 332.174 554.934 330.866L610.5 314.825L623 325.651L635.5 336.476L561.868 357.732C552.807 360.347 543.193 360.347 534.132 357.732L460.5 336.476Z" fill="#78716C"/>
<path d="M448 353.301L498 396.603H598L648 353.301V365.801L598 409.102H498L448 365.801V353.301Z" fill="#16A34A"/>
<path d="M648 353.301L598 396.603V409.102L648 365.801V353.301Z" fill="#166534"/>
<path d="M598 396.603H498V409.102H598V396.603Z" fill="#15803D"/>
<path d="M749 384L799 427.301L749 470.603H649L599 427.301L649 384H749Z" fill="#38BDF8"/>
<path d="M649 470.603L599 427.301V452.3L649 495.6H749L799 452.3V427.301L749 470.603H649Z" fill="#0EA5E9"/>
<path d="M749 470.603H649V495.6H749V470.603Z" fill="#0284C7"/>
<path d="M799 427.301L749 470.603V495.6L799 452.3V427.301Z" fill="#0369A1"/>
<path d="M150 298L200 341.301L150 384.603H50L0 341.301L50 298H150Z" fill="#38BDF8"/>
<path d="M50 384.603L0 341.301V366.3L50 409.6H150L200 366.3V341.301L150 384.603H50Z" fill="#0EA5E9"/>
<path d="M150 384.603H50V409.6H150V384.603Z" fill="#0284C7"/>
<path d="M200 341.301L150 384.603V409.6L200 366.3V341.301Z" fill="#0369A1"/>
<path d="M299 341L349 384.301L299 427.603H199L149 384.301L199 341H299Z" fill="#38BDF8"/>
<path d="M199 427.603L149 384.301V409.3L199 452.6H299L349 409.3V384.301L299 427.603H199Z" fill="#0EA5E9"/>
<path d="M299 427.603H199V452.6H299V427.603Z" fill="#0284C7"/>
<path d="M349 384.301L299 427.603V452.6L349 409.3V384.301Z" fill="#0369A1"/>
<path d="M449 384L499 427.301L449 470.603H349L299 427.301L349 384H449Z" fill="#38BDF8"/>
<path d="M349 470.603L299 427.301V452.3L349 495.6H449L499 452.3V427.301L449 470.603H349Z" fill="#0EA5E9"/>
<path d="M449 470.603H349V495.6H449V470.603Z" fill="#0284C7"/>
<path d="M499 427.301L449 470.603V495.6L499 452.3V427.301Z" fill="#0369A1"/>
<path d="M599 427L649 470.301L599 513.603H499L449 470.301L499 427H599Z" fill="#38BDF8"/>
<path d="M499 513.603L449 470.301V495.3L499 538.6H599L649 495.3V470.301L599 513.603H499Z" fill="#0EA5E9"/>
<path d="M599 513.603H499V538.6H599V513.603Z" fill="#0284C7"/>
<path d="M649 470.301L599 513.603V538.6L649 495.3V470.301Z" fill="#0369A1"/>
</svg>
