<svg width="165" height="390" viewBox="0 0 165 390" fill="none" xmlns="http://www.w3.org/2000/svg">
<path d="M37.5 388C37.5 388 75 352.463 75 325.5C75 315.554 71.0491 306.016 64.0165 298.983C56.9839 291.951 47.4456 288 37.5 288C27.5544 288 18.0161 291.951 10.9835 298.983C3.95088 306.016 1.48201e-07 315.554 0 325.5C0 352.463 37.5 388 37.5 388ZM37.5 344.25C32.5272 344.25 27.7581 342.275 24.2417 338.758C20.7254 335.242 18.75 330.473 18.75 325.5C18.75 320.527 20.7254 315.758 24.2417 312.242C27.7581 308.725 32.5272 306.75 37.5 306.75C42.4728 306.75 47.2419 308.725 50.7583 312.242C54.2746 315.758 56.25 320.527 56.25 325.5C56.25 330.473 54.2746 335.242 50.7583 338.758C47.2419 342.275 42.4728 344.25 37.5 344.25Z" fill="#FDFDFD"/>
<path d="M103.5 62C103.5 62 127 39.9668 127 23.25C127 17.0837 124.524 11.17 120.117 6.80977C115.71 2.44955 109.733 0 103.5 0C97.2674 0 91.2901 2.44955 86.883 6.80977C82.4759 11.17 80 17.0837 80 23.25C80 39.9668 103.5 62 103.5 62ZM103.5 34.875C100.384 34.875 97.395 33.6502 95.1915 31.4701C92.9879 29.29 91.75 26.3331 91.75 23.25C91.75 20.1669 92.9879 17.21 95.1915 15.0299C97.395 12.8498 100.384 11.625 103.5 11.625C106.616 11.625 109.605 12.8498 111.809 15.0299C114.012 17.21 115.25 20.1669 115.25 23.25C115.25 26.3331 114.012 29.29 111.809 31.4701C109.605 33.6502 106.616 34.875 103.5 34.875Z" fill="#FDFDFD"/>
<path fill-rule="evenodd" clip-rule="evenodd" d="M105.051 63.7684C102.932 64.7503 100.879 65.7333 98.8919 66.7169L96.6739 62.2358C98.7008 61.2325 100.792 60.231 102.949 59.2317L105.051 63.7684ZM86.93 73.0836C82.7669 75.4742 78.9691 77.8615 75.5117 80.2384L72.6791 76.1182C76.2568 73.6586 80.1698 71.1999 84.4401 68.7477L86.93 73.0836ZM64.8833 88.3989C61.215 91.5762 58.1246 94.7154 55.5462 97.7987L51.7106 94.5912C54.4783 91.2815 57.7609 87.9531 61.6098 84.6195L64.8833 88.3989ZM48.3302 108.69C46.2468 112.922 45.0604 117.006 44.5764 120.905L39.6145 120.289C40.1703 115.812 41.526 111.191 43.8444 106.482L48.3302 108.69ZM45.3967 133.566C46.4705 137.773 48.2883 141.716 50.5818 145.316L46.3649 148.003C43.8284 144.021 41.7749 139.593 40.552 134.802L45.3967 133.566ZM63.9093 159.433C62.2445 158.208 60.574 156.829 58.9485 155.31L55.534 158.962C57.3288 160.64 59.1761 162.163 61.0215 163.516L61.0915 163.567L61.1649 163.614C63.268 164.942 65.4673 166.379 67.7443 167.917L70.5436 163.774C68.2525 162.226 66.0351 160.777 63.9093 159.433ZM83.6182 173.125C87.7274 176.223 91.9515 179.559 96.2111 183.104L93.0129 186.947C88.8166 183.455 84.6552 180.169 80.6078 177.117L83.6182 173.125ZM108.308 193.681C112.206 197.266 116.074 201.004 119.848 204.875L116.268 208.366C112.562 204.565 108.76 200.889 104.924 197.362L108.308 193.681ZM130.728 216.741C134.249 220.841 137.619 225.054 140.777 229.357L136.746 232.315C133.671 228.125 130.381 224.012 126.935 219.999L130.728 216.741ZM149.738 242.829C152.556 247.564 155.068 252.382 157.198 257.257L152.616 259.259C150.579 254.596 148.166 249.964 145.442 245.386L149.738 242.829ZM162.53 272.692C163.885 278.091 164.694 283.533 164.854 288.98L159.856 289.127C159.708 284.077 158.957 278.995 157.68 273.909L162.53 272.692ZM163.249 305.431C162.631 308.096 161.832 310.747 160.839 313.381C159.926 315.806 158.937 318.16 157.878 320.445L153.341 318.342C154.349 316.168 155.29 313.928 156.16 311.619C157.075 309.192 157.81 306.752 158.379 304.302L163.249 305.431ZM150.429 333.785C147.563 338.118 144.424 342.141 141.071 345.873L137.351 342.531C140.547 338.974 143.534 335.145 146.259 331.026L150.429 333.785ZM130.104 356.485C126.176 359.801 122.076 362.816 117.87 365.553L115.143 361.362C119.187 358.73 123.12 355.838 126.879 352.664L130.104 356.485ZM104.684 373.11C100.079 375.427 95.4279 377.46 90.8059 379.236L89.0122 374.569C93.4907 372.848 97.9899 370.881 102.437 368.644L104.684 373.11ZM76.4332 384.012C71.3417 385.452 66.3856 386.597 61.6754 387.485L60.7496 382.571C65.3191 381.71 70.1298 380.599 75.0726 379.201L76.4332 384.012ZM46.6453 389.576C43.9403 389.811 41.3986 389.949 39.0542 389.999L38.9456 385.001C41.1741 384.952 43.6075 384.821 46.2124 384.594L46.6453 389.576Z" fill="white"/>
</svg>
