<svg width="200" height="198" viewBox="0 0 200 198" fill="none" xmlns="http://www.w3.org/2000/svg">
<path d="M50 159.603L0 116.301V153.8L50 197.101H150L200 153.8V116.301L150 159.603H50Z" fill="#334155"/>
<path d="M200 116.301L150 159.603V197.101L200 153.8V116.301Z" fill="#0F172A"/>
<path d="M150 159.603H50V197.101H150V159.603Z" fill="#1E293B"/>
<path d="M150 61L200 104.301L150 147.603H50L0 104.301L50 61H150Z" fill="#F8FAFC"/>
<path d="M0 104.301L50 147.603H150L200 104.301V116.801L150 160.102H50L0 116.801V104.301Z" fill="#94A3B8"/>
<path d="M200 104.301L150 147.603V160.102L200 116.801V104.301Z" fill="#475569"/>
<path d="M150 147.603H50V160.102H150V147.603Z" fill="#64748B"/>
<path d="M160.969 67.8171H166.128V98.709L160.969 101.964V67.8171Z" fill="#334155"/>
<path d="M160.969 67.8171H155.81V98.709L160.969 101.964V67.8171Z" fill="#475569"/>
<path d="M160.969 13.7102L176.925 87.4084H145.013L160.969 13.7102Z" fill="#64748B"/>
<path d="M161.031 13.5259L145.112 87.4084L138 73.7742L161.031 13.5259Z" fill="#94A3B8"/>
<path d="M160.969 13.4309L176.888 87.3134L184 73.6792L160.969 13.4309Z" fill="#475569"/>
<path d="M123.972 54.657H128.682V82.8626L123.972 85.8345V54.657Z" fill="#334155"/>
<path d="M123.972 54.657H119.262V82.8626L123.972 85.8345V54.657Z" fill="#475569"/>
<path d="M123.972 5.25513L138.541 72.5448H109.403L123.972 5.25513Z" fill="#64748B"/>
<path d="M124.028 5.08667L109.494 72.5445L103 60.096L124.028 5.08667Z" fill="#94A3B8"/>
<path d="M123.972 5L138.506 72.4579L145 60.0093L123.972 5Z" fill="#475569"/>
<path d="M60.972 49.657H65.6822V77.8626L60.972 80.8345V49.657Z" fill="#334155"/>
<path d="M60.972 49.657H56.2617V77.8626L60.972 80.8345V49.657Z" fill="#475569"/>
<path d="M60.9719 0.255127L75.5406 67.5448H46.4033L60.9719 0.255127Z" fill="#64748B"/>
<path d="M61.028 0.0866699L46.4939 67.5445L40 55.096L61.028 0.0866699Z" fill="#94A3B8"/>
<path d="M60.972 0L75.5061 67.4579L82 55.0093L60.972 0Z" fill="#475569"/>
<path d="M83.972 56.657H88.6822V84.8626L83.972 87.8345V56.657Z" fill="#334155"/>
<path d="M83.972 56.657H79.2617V84.8626L83.972 87.8345V56.657Z" fill="#475569"/>
<path d="M83.9719 7.25513L98.5406 74.5448H69.4033L83.9719 7.25513Z" fill="#64748B"/>
<path d="M84.028 7.08667L69.4939 74.5445L63 62.096L84.028 7.08667Z" fill="#94A3B8"/>
<path d="M83.972 7L98.5061 74.4579L105 62.0093L83.972 7Z" fill="#475569"/>
<path d="M34.7007 75.1179H40.0238V106.993L34.7007 110.352V75.1179Z" fill="#334155"/>
<path d="M34.7007 75.1179H29.3775V106.993L34.7007 110.352V75.1179Z" fill="#475569"/>
<path d="M34.7007 19.2881L51.165 95.3331H18.2365L34.7007 19.2881Z" fill="#64748B"/>
<path d="M34.7641 19.0979L18.3388 95.3331L11 81.2647L34.7641 19.0979Z" fill="#94A3B8"/>
<path d="M34.7008 19L51.126 95.2352L58.4648 81.1668L34.7008 19Z" fill="#475569"/>
<path d="M108.967 95.1155H114.574V128.694L108.967 132.232V95.1155Z" fill="#334155"/>
<path d="M108.967 95.1155H103.359V128.694L108.967 132.232V95.1155Z" fill="#475569"/>
<path d="M108.967 36.3037L126.31 116.41H91.623L108.967 36.3037Z" fill="#64748B"/>
<path d="M109.033 36.1033L91.7308 116.41L84 101.591L109.033 36.1033Z" fill="#94A3B8"/>
<path d="M108.967 36L126.269 116.307L134 101.487L108.967 36Z" fill="#475569"/>
<path d="M66.9639 98.8445H73.02V135.109L66.9639 138.93V98.8445Z" fill="#334155"/>
<path d="M66.9639 98.8445H60.9079V135.109L66.9639 138.93V98.8445Z" fill="#475569"/>
<path d="M66.9639 35.3279L85.695 121.843H48.2328L66.9639 35.3279Z" fill="#64748B"/>
<path d="M67.036 35.1116L48.3493 121.843L40 105.838L67.036 35.1116Z" fill="#94A3B8"/>
<path d="M66.964 35L85.6507 121.732L94 105.726L66.964 35Z" fill="#475569"/>
<path d="M142.768 103.91H147.882V134.532L142.768 137.759V103.91Z" fill="#334155"/>
<path d="M142.768 103.91H137.655V134.532L142.768 137.759V103.91Z" fill="#475569"/>
<path d="M142.768 50.2769L158.585 123.33H126.952L142.768 50.2769Z" fill="#64748B"/>
<path d="M142.829 50.0942L127.05 123.33L120 109.816L142.829 50.0942Z" fill="#94A3B8"/>
<path d="M142.768 50L158.547 123.236L165.598 109.721L142.768 50Z" fill="#475569"/>
</svg>
