<svg width="200" height="251" viewBox="0 0 200 251" fill="none" xmlns="http://www.w3.org/2000/svg">
<path d="M200 157.801L150 201.103L100 0L200 157.801Z" fill="#2C3E50"/>
<path d="M100 0L112.059 48.5V28.5L122.18 35L100 0Z" fill="#9B968E"/>
<path d="M150 201.103H50L100 0L150 201.103Z" fill="#34495E"/>
<path d="M100 0L88 48.2646L103 37.5L112 48.2646L100 0Z" fill="#BDC3C7"/>
<path d="M50 201.103L0 157.801L100 0L50 201.103Z" fill="#405870"/>
<path d="M76.5527 37L99.9999 0L87.9414 48.5L86.4999 30L76.5527 37Z" fill="#ECF0F1"/>
<path d="M50 200.603L0 157.301V207.3L50 250.6H150L200 207.3V157.301L150 200.603H50Z" fill="#BDC3C7"/>
</svg>
