
<svg width="99" height="171" viewBox="0 0 99 171" fill="none" xmlns="http://www.w3.org/2000/svg">
<path d="M21.3832 6.99243L38.365 1.39844L37.3661 13.9849L21.3832 6.99243Z" fill="#0EA5E9"/>
<path d="M41.8891 170.262L58.8709 164.668L60.9409 140.949H39.5639L41.8891 170.262Z" fill="#0EA5E9"/>
<path fill-rule="evenodd" clip-rule="evenodd" d="M50.3313 91.0645C45.8326 88.4015 41.6965 83.0861 39.3869 76.2942C36.0196 66.3919 37.6432 56.6107 42.8827 52.6051C39.8364 50.8019 36.6239 50.2149 33.6996 51.2092C26.4571 53.6721 23.7261 64.903 27.5997 76.2942C31.4734 87.6854 40.4848 94.9232 47.7273 92.4604C48.6739 92.1385 49.5435 91.6668 50.3313 91.0645Z" fill="#0EA5E9"/>
<path fill-rule="evenodd" clip-rule="evenodd" d="M58.8709 164.668L19.9127 66.8729C13.9191 44.0973 13.7993 -3.83121 52.4777 0.244416C95.9311 13.7299 104.722 74.6645 95.9311 94.9427L58.8709 164.668ZM47.7272 92.4605C40.4847 94.9233 31.4733 87.6855 27.5997 76.2943C23.7261 64.9031 26.4571 53.6722 33.6996 51.2093C40.9421 48.7465 49.9535 55.9843 53.8271 67.3755C57.7008 78.7667 54.9697 89.9976 47.7272 92.4605Z" fill="#0EA5E9"/>
<path fill-rule="evenodd" clip-rule="evenodd" d="M41.8892 170.262L2.93101 72.4669C-3.06255 49.6913 -3.18243 1.76279 35.496 5.83841C78.9494 19.3239 87.7399 80.2585 78.9494 100.537L41.8892 170.262ZM47.7272 92.4602C40.4847 94.923 31.4733 87.6852 27.5997 76.294C23.7261 64.9028 26.4571 53.6719 33.6996 51.209C40.9421 48.7462 49.9535 55.9841 53.8271 67.3753C57.7008 78.7665 54.9697 89.9974 47.7272 92.4602Z" fill="#38BDF8"/>
</svg>
