<svg width="75" height="100" viewBox="0 0 75 100" fill="none" xmlns="http://www.w3.org/2000/svg">
<path d="M38.4046 97.7129C38.0468 98.0703 37.7431 98.37 37.5 98.6081C37.2569 98.37 36.9532 98.0703 36.5954 97.7129C35.5769 96.6953 34.1198 95.2098 32.3704 93.3423C28.8706 89.6062 24.2062 84.3473 19.5442 78.2533C14.88 72.1564 10.2332 65.2431 6.75611 58.1979C3.27356 51.1416 1 44.0241 1 37.5C1 27.8196 4.84552 18.5357 11.6906 11.6906C18.5357 4.84552 27.8196 1 37.5 1C47.1804 1 56.4643 4.84552 63.3094 11.6906C70.1545 18.5357 74 27.8196 74 37.5C74 44.0241 71.7264 51.1416 68.2439 58.1979C64.7668 65.2431 60.12 72.1564 55.4558 78.2533C50.7938 84.3473 46.1294 89.6062 42.6296 93.3423C40.8802 95.2098 39.4231 96.6953 38.4046 97.7129ZM23.5346 51.4654C27.2385 55.1692 32.262 57.25 37.5 57.25C42.738 57.25 47.7615 55.1692 51.4654 51.4654C55.1692 47.7615 57.25 42.738 57.25 37.5C57.25 32.262 55.1692 27.2385 51.4654 23.5346C47.7615 19.8308 42.738 17.75 37.5 17.75C32.262 17.75 27.2385 19.8308 23.5346 23.5346C19.8308 27.2385 17.75 32.262 17.75 37.5C17.75 42.738 19.8308 47.7615 23.5346 51.4654Z" fill="#00B2FF" stroke="black" stroke-width="2"/>
</svg>
