<svg width="200" height="137" viewBox="0 0 200 137" fill="none" xmlns="http://www.w3.org/2000/svg">
<path d="M50 12L0 55.3013L50 98.6026H150L200 55.3013L150 12H50Z" fill="#22C55E"/>
<path d="M150 98.6026L200 55.3013V92.8003L150 136.101H50L0 92.8003V55.3013L50 98.6026H150Z" fill="#0F172A"/>
<path d="M0 55.3013L50 98.6026V136.101L0 92.8003V55.3013Z" fill="#334155"/>
<path d="M50 98.6025H150V136.101H50V98.6025Z" fill="#1E293B"/>
<path d="M50 0L0 43.3013L50 86.6026H150L200 43.3013L150 0H50Z" fill="#F8FAFC"/>
<path d="M37.5 4.8252L25 15.6505L12.5 26.4758L162.5 69.7771L175 58.9518L187.5 48.1265L37.5 4.8252Z" fill="#475569"/>
<path d="M162.5 75.7774L175 64.9521L187.5 54.1267V48.1267L175 58.952L162.5 69.7774L12.5 26.4761V32.4761L162.5 75.7774Z" fill="#334155"/>
<path d="M200 43.3013L150 86.6026H50L0 43.3013V55.8009L50 99.1019H150L200 55.8009V43.3013Z" fill="#475569"/>
<path d="M0 43.3013L50 86.6026V99.1019L0 55.8009V43.3013Z" fill="#94A3B8"/>
<path d="M50 86.6025H150V99.1019H50V86.6025Z" fill="#64748B"/>
</svg>
