
<svg width="200" height="137" viewBox="0 0 200 137" fill="none" xmlns="http://www.w3.org/2000/svg">
<path d="M150 12L200 55.3013L150 98.6026H50L0 55.3013L50 12H150Z" fill="#22C55E"/>
<path d="M50 98.6026L0 55.3013V92.8003L50 136.101H150L200 92.8003V55.3013L150 98.6026H50Z" fill="#A16207"/>
<path d="M200 55.3013L150 98.6026V136.101L200 92.8003V55.3013Z" fill="#713F12"/>
<path d="M150 98.6025H50V136.101H150V98.6025Z" fill="#854D0E"/>
<path d="M150 0L200 43.3013L150 86.6026H50L0 43.3013L50 0H150Z" fill="#22C55E"/>
<path d="M150 43.3014L187.5 32.4761V26.4761L150 37.3014L113.868 47.732C104.807 50.3474 95.1925 50.3474 86.1325 47.732L50 37.3014L12.5 26.4761V32.4761L50 43.3014L86.1325 53.732C95.1925 56.3474 104.807 56.3474 113.868 53.732L150 43.3014Z" fill="#44403C"/>
<path d="M12.5 26.4758L25 15.6505L37.5 4.8252L93.0662 20.8658C97.5963 22.1735 102.404 22.1735 106.934 20.8658L162.5 4.8252L175 15.6505L187.5 26.4758L113.868 47.7317C104.807 50.3471 95.1925 50.3471 86.1325 47.7317L12.5 26.4758Z" fill="#78716C"/>
<path d="M0 43.3013L50 86.6026H150L200 43.3013V55.8009L150 99.1019H50L0 55.8009V43.3013Z" fill="#16A34A"/>
<path d="M200 43.3013L150 86.6026V99.1019L200 55.8009V43.3013Z" fill="#166534"/>
<path d="M150 86.6025H50V99.1019H150V86.6025Z" fill="#15803D"/>
</svg>
