<svg width="200" height="137" viewBox="0 0 200 137" fill="none" xmlns="http://www.w3.org/2000/svg">
<path d="M150 0L200 43.3013L150 86.6026H50L0 43.3013L50 0H150Z" fill="#2ECC71"/>
<path d="M118 21.3688L160.5 9.1001L185.5 28.7529V30.7507L150 40.9987L119.415 49.828C106.73 53.4896 93.2695 53.4896 80.5855 49.828L50 40.9987L14.5 30.7507V28.7529L39.5 9.1001L83 21.6575L100 26.565L118 21.3688Z" fill="#414040"/>
<path d="M160.5 7.10303L185.5 28.7537L119.415 47.8309C106.73 51.4925 93.2695 51.4925 80.5855 47.8309L14.5 28.7537L39.5 7.10303L80.5855 18.9634C93.2695 22.625 106.73 22.625 119.415 18.9634L160.5 7.10303Z" fill="#6C6C6C"/>
<path d="M50 86.6026L0 43.3013V93.3L50 136.6H150L200 93.3V43.3013L150 86.6026H50Z" fill="#31BF61"/>
</svg>
