<svg width="200" height="139" viewBox="0 0 200 139" fill="none" xmlns="http://www.w3.org/2000/svg">
<path d="M50 1.99707L0 45.2984L50 88.5997H150L200 45.2984L150 1.99707H50Z" fill="#2ECC71"/>
<path d="M117 1.99707H82V23.3659V33.7582L50 42.9958L10.5 52.4V54.3985L35.5 76.0491L88.094 60.8665C105.214 55.9245 117 40.2544 117 22.4358V1.99707Z" fill="#414040"/>
<path d="M117 0H82V16.718C82 25.6273 76.1068 33.4623 67.547 35.9333L10.5 52.4014L35.5 74.052L88.094 58.8695C105.214 53.9274 117 38.2574 117 20.4387V0Z" fill="#6C6C6C"/>
<path d="M150 88.5996L200 45.2983V95.297L150 138.597H50L0 95.297V45.2983L50 88.5996H150Z" fill="#31BF61"/>
</svg>
