<svg width="200" height="137" viewBox="0 0 200 137" fill="none" xmlns="http://www.w3.org/2000/svg">
<path d="M50 0L0 43.3013L50 86.6026H150L200 43.3013L150 0H50Z" fill="#2ECC71"/>
<path d="M35.5 74.052L10.5 52.4014V50.4029L50 40.9987L117 21.6575L160.5 9.1001L185.5 28.7529V30.7507L150 40.9987L189.5 50.4V52.4014L164.5 74.052L117 60.34V86.6H82V60.6286L35.5 74.052Z" fill="#414040"/>
<path d="M10.5 50.4043L50 39.0017L117 19.6604L160.5 7.10303L185.5 28.7537L150 39.0017L189.5 50.4043L164.5 72.055L117 58.3429V84.6029H82V58.6316L35.5 72.055L10.5 50.4043Z" fill="#6C6C6C"/>
<path d="M150 86.6026L200 43.3013V93.3L150 136.6H50L0 93.3V43.3013L50 86.6026H150Z" fill="#31BF61"/>
</svg>
