<svg width="200" height="137" viewBox="0 0 200 137" fill="none" xmlns="http://www.w3.org/2000/svg">
<path d="M150 0L200 43.3013L150 86.6026H50L0 43.3013L50 0H150Z" fill="#2ECC71"/>
<path d="M118 86.6H83V65.5682C83 56.6588 77.1068 48.8238 68.547 46.3528L14.5 30.7507V28.7529L39.5 9.1001L89.094 23.4167C106.214 28.3587 118 44.0288 118 61.8474V86.6Z" fill="#414040"/>
<path d="M118 84.6029H83V63.5711C83 54.6618 77.1068 46.8267 68.547 44.3557L14.5 28.7537L39.5 7.10303L89.094 21.4196C106.214 26.3616 118 42.0317 118 59.8504V84.6029Z" fill="#6C6C6C"/>
<path d="M50 86.6026L0 43.3013V93.3L50 136.6H150L200 93.3V43.3013L150 86.6026H50Z" fill="#31BF61"/>
</svg>
