<svg width="200" height="137" viewBox="0 0 200 137" fill="none" xmlns="http://www.w3.org/2000/svg">
<path d="M50 0L0 43.3013L50 86.6026H150L200 43.3013L150 0H50Z" fill="#2ECC71"/>
<path d="M10.5 52.4014L35.5 74.052L82 60.6286L100 55.4325L117 60.34L164.5 74.052L189.5 52.4014V50.4L150 40.9987L185.5 30.7507V28.7529L160.5 9.1001L117 21.6575L50 40.9987L10.5 50.4029V52.4014Z" fill="#414040"/>
<path d="M50 39.0017L10.5 50.4043L35.5 72.055L82 58.6316L100 53.4354L117 58.3429L164.5 72.055L189.5 50.4043L150 39.0017L185.5 28.7537L160.5 7.10303L117 19.6604L50 39.0017Z" fill="#6C6C6C"/>
<path d="M150 86.6026L200 43.3013V93.3L150 136.6H50L0 93.3V43.3013L50 86.6026H150Z" fill="#31BF61"/>
</svg>
