
<svg width="200" height="137" viewBox="0 0 200 137" fill="none" xmlns="http://www.w3.org/2000/svg">
<path d="M150 12L200 55.3013L150 98.6026H50L0 55.3013L50 12H150Z" fill="#22C55E"/>
<path d="M50 98.6026L0 55.3013V92.8003L50 136.101H150L200 92.8003V55.3013L150 98.6026H50Z" fill="#A16207"/>
<path d="M200 55.3013L150 98.6026V136.101L200 92.8003V55.3013Z" fill="#713F12"/>
<path d="M150 98.6025H50V136.101H150V98.6025Z" fill="#854D0E"/>
<path d="M150 0L200 43.3013L150 86.6026H50L0 43.3013L50 0H150Z" fill="#22C55E"/>
<path d="M37.5 75.7773L25 64.9519L12.5 54.1266V48.1266L25 58.9519L37.5 69.7773L100 51.735L162.5 69.7773L187.5 48.1266V54.1266L162.5 75.7773L100 57.7351L37.5 75.7773Z" fill="#44403C"/>
<path d="M187.5 32.476L150 43.3013V37.3013L187.5 26.476V32.476Z" fill="#44403C"/>
<path d="M37.5 69.7773L25 58.9519L12.5 48.1266L162.5 4.82532L175 15.6506L187.5 26.476L150 37.3013L187.5 48.1266L175 58.9519L162.5 69.7773L100 51.7351L37.5 69.7773Z" fill="#78716C"/>
<path d="M0 43.3013L50 86.6026H150L200 43.3013V55.8009L150 99.1019H50L0 55.8009V43.3013Z" fill="#16A34A"/>
<path d="M200 43.3013L150 86.6026V99.1019L200 55.8009V43.3013Z" fill="#166534"/>
<path d="M150 86.6025H50V99.1019H150V86.6025Z" fill="#15803D"/>
</svg>
