<svg width="200" height="138" viewBox="0 0 200 138" fill="none" xmlns="http://www.w3.org/2000/svg">
<path d="M50 0.99707L0 44.2984L50 87.5997H150L200 44.2984L150 0.99707H50Z" fill="#2ECC71"/>
<path d="M82 87.5971H117V66.5652C117 57.6559 122.893 49.8209 131.453 47.3499L185.5 31.7478V29.75L160.5 10.0972L110.906 24.4137C93.7864 29.3557 82 45.0258 82 62.8445V87.5971Z" fill="#414040"/>
<path d="M82 85.6H117V64.5682C117 55.6588 122.893 47.8238 131.453 45.3528L185.5 29.7507L160.5 8.1001L110.906 22.4167C93.7864 27.3587 82 43.0288 82 60.8474V85.6Z" fill="#6C6C6C"/>
<path d="M150 87.5996L200 44.2983V94.297L150 137.597H50L0 94.297V44.2983L50 87.5996H150Z" fill="#31BF61"/>
</svg>
