<svg width="200" height="139" viewBox="0 0 200 139" fill="none" xmlns="http://www.w3.org/2000/svg">
<path d="M150 1.99707L200 45.2984L150 88.5997H50L0 45.2984L50 1.99707H150Z" fill="#2ECC71"/>
<path d="M83 1.99707H118V23.3659L160.5 11.0972L185.5 30.75V32.7478L150 42.9958L118 52.2334V62.6257V88.5971H83V62.337V23.6545V1.99707Z" fill="#414040"/>
<path d="M83 0H118V21.3688L160.5 9.1001L185.5 30.7507L150 40.9987L118 50.2363V60.6286V86.6H83V60.34V21.6575V0Z" fill="#6C6C6C"/>
<path d="M50 88.5996L0 45.2983V95.297L50 138.597H150L200 95.297V45.2983L150 88.5996H50Z" fill="#31BF61"/>
</svg>
