
<svg width="200" height="137" viewBox="0 0 200 137" fill="none" xmlns="http://www.w3.org/2000/svg">
<path d="M50 12L0 55.3013L50 98.6026H150L200 55.3013L150 12H50Z" fill="#22C55E"/>
<path d="M150 98.6026L200 55.3013V92.8003L150 136.101H50L0 92.8003V55.3013L50 98.6026H150Z" fill="#713F12"/>
<path d="M0 55.3013L50 98.6026V136.101L0 92.8003V55.3013Z" fill="#A16207"/>
<path d="M50 98.6025H150V136.101H50V98.6025Z" fill="#854D0E"/>
<path d="M50 0L0 43.3013L50 86.6026H150L200 43.3013L150 0H50Z" fill="#22C55E"/>
<path d="M131.387 66.7957L162.5 75.7774L187.5 54.1267V48.1267L162.5 69.7774L125 58.952V71.5996V80.6027H75V86.6027H125V80.6027V71.5996C125 68.272 128.19 65.8728 131.387 66.7957Z" fill="#44403C"/>
<path d="M75 80.6026H100H125V65.5995C125 62.2719 128.19 59.8727 131.387 60.7956L162.5 69.7773L175 58.9519L187.5 48.1266L113.321 26.7128C94.1383 21.1754 75 35.5704 75 55.5359V80.6026Z" fill="#78716C"/>
<path d="M200 43.3013L150 86.6026H50L0 43.3013V55.8009L50 99.1019H150L200 55.8009V43.3013Z" fill="#166534"/>
<path d="M0 43.3013L50 86.6026V99.1019L0 55.8009V43.3013Z" fill="#16A34A"/>
<path d="M50 86.6025H150V99.1019H50V86.6025Z" fill="#15803D"/>
</svg>
