<svg width="200" height="138" viewBox="0 0 200 138" fill="none" xmlns="http://www.w3.org/2000/svg">
<path d="M150 0.99707L200 44.2984L150 87.5997H50L0 44.2984L50 0.99707H150Z" fill="#2ECC71"/>
<path d="M164.5 75.0492L189.5 53.3985V51.4001L150 41.9958H50L10.5 51.3971V53.3985L35.5 75.0492L80.5855 62.0341C93.2695 58.3725 106.73 58.3725 119.415 62.0341L164.5 75.0492Z" fill="#414040"/>
<path d="M164.5 73.052L189.5 51.4013L119.237 31.118C106.522 27.4475 93.0265 27.4566 80.3165 31.1444L10.5 51.4013L35.5 73.052L83 59.3399C94.1066 56.1337 105.893 56.1337 117 59.3399L118 59.6286L164.5 73.052Z" fill="#6C6C6C"/>
<path d="M50 87.5996L0 44.2983V94.297L50 137.597H150L200 94.297V44.2983L150 87.5996H50Z" fill="#31BF61"/>
</svg>
