<svg width="200" height="138" viewBox="0 0 200 138" fill="none" xmlns="http://www.w3.org/2000/svg">
<path d="M150 0.99707L200 44.2984L150 87.5997H50L0 44.2984L50 0.99707H150Z" fill="#2ECC71"/>
<path d="M83 61.337L35.5 75.0491L10.5 53.3985V51.3971L50 41.9958L14.5 31.7478V29.75L39.5 10.0972L83 22.6545C102.271 28.2175 102.271 55.7741 83 61.337Z" fill="#414040"/>
<path d="M83 59.34L35.5 73.052L10.5 51.4014L50 39.9987L14.5 29.7507L39.5 8.1001L83 20.6575C102.271 26.2204 102.271 53.777 83 59.34Z" fill="#6C6C6C"/>
<path d="M50 87.5996L0 44.2983V94.297L50 137.597H150L200 94.297V44.2983L150 87.5996H50Z" fill="#31BF61"/>
</svg>
