
<svg width="200" height="143" viewBox="0 0 200 143" fill="none" xmlns="http://www.w3.org/2000/svg">
<path d="M150 18L200 61.3013L150 104.603H50L0 61.3013L50 18H150Z" fill="#22C55E"/>
<path d="M50 104.603L0 61.3013V98.8003L50 142.101H150L200 98.8003V61.3013L150 104.603H50Z" fill="#A16207"/>
<path d="M200 61.3013L150 104.603V142.101L200 98.8003V61.3013Z" fill="#713F12"/>
<path d="M150 104.603H50V142.101H150V104.603Z" fill="#854D0E"/>
<path d="M150 6L200 49.3013L150 92.6026H50L0 49.3013L50 6H150Z" fill="#22C55E"/>
<path d="M113.32 59.8898L187.5 38.476V32.476L162.5 10.8253L127.555 20.9132C126.276 21.2823 125 20.3227 125 18.9916V0H75V31.0667C75 51.0322 94.1382 65.4272 113.32 59.8898Z" fill="#44403C"/>
<path d="M100 0H125V18.9916C125 20.3227 126.276 21.2823 127.555 20.9132L162.5 10.8253L175 21.6507L187.5 32.476L113.32 53.8898C94.1382 59.4272 75 45.0322 75 25.0667V0H100Z" fill="#78716C"/>
<path d="M0 49.3013L50 92.6026H150L200 49.3013V61.8009L150 105.102H50L0 61.8009V49.3013Z" fill="#16A34A"/>
<path d="M200 49.3013L150 92.6026V105.102L200 61.8009V49.3013Z" fill="#166534"/>
<path d="M150 92.6025H50V105.102H150V92.6025Z" fill="#15803D"/>
</svg>
