<svg width="200" height="139" viewBox="0 0 200 139" fill="none" xmlns="http://www.w3.org/2000/svg">
<path d="M50 1.99707L0 45.2984L50 88.5997H150L200 45.2984L150 1.99707H50Z" fill="#2ECC71"/>
<path d="M117 1.99707H82V23.3659V33.7582L50 42.9958L10.5 52.4V54.3985L35.5 76.0491L82 62.6257V88.5971H117V62.337L164.5 76.0491L189.5 54.3985V52.3971L150 42.9958L185.5 32.7478V30.75L160.5 11.0972L117 23.6545V1.99707Z" fill="#414040"/>
<path d="M117 0H82V21.3688V31.7611L50 40.9987L10.5 52.4014L35.5 74.052L82 60.6286V86.6H117V60.34L164.5 74.052L189.5 52.4014L150 40.9987L185.5 30.7507L160.5 9.1001L117 21.6575V0Z" fill="#6C6C6C"/>
<path d="M150 88.5996L200 45.2983V95.297L150 138.597H50L0 95.297V45.2983L50 88.5996H150Z" fill="#31BF61"/>
</svg>
