<svg width="200" height="137" viewBox="0 0 200 137" fill="none" xmlns="http://www.w3.org/2000/svg">
<path d="M150 0L200 43.3013L150 86.6026H50L0 43.3013L50 0H150Z" fill="#2ECC71"/>
<path d="M164.5 74.052L189.5 52.4014V50.4029L150 40.9987L83 21.6575L39.5 9.1001L14.5 28.7529V30.7507L50 40.9987L10.5 50.4V52.4014L35.5 74.052L83 60.34V86.6H118V60.6286L164.5 74.052Z" fill="#414040"/>
<path d="M189.5 50.4043L150 39.0017L83 19.6604L39.5 7.10303L14.5 28.7537L50 39.0017L10.5 50.4043L35.5 72.055L83 58.3429V84.6029H118V58.6316L164.5 72.055L189.5 50.4043Z" fill="#6C6C6C"/>
<path d="M50 86.6026L0 43.3013V93.3L50 136.6H150L200 93.3V43.3013L150 86.6026H50Z" fill="#31BF61"/>
</svg>
