<svg width="200" height="138" viewBox="0 0 200 138" fill="none" xmlns="http://www.w3.org/2000/svg">
<path d="M50 0.99707L0 44.2984L50 87.5997H150L200 44.2984L150 0.99707H50Z" fill="#2ECC71"/>
<path d="M35.5 75.0491L10.5 53.3985V51.4L50 41.9958L79.8351 33.3831C98.4389 28.0127 117 41.9736 117 61.337V87.5971H82V68.2732C82 64.9457 78.8103 62.5465 75.6132 63.4694L35.5 75.0491Z" fill="#414040"/>
<path d="M10.5 51.4014L50 39.9987L79.8351 31.3861C98.4389 26.0156 117 39.9765 117 59.34V85.6H82V66.2762C82 62.9486 78.8103 60.5494 75.6132 61.4723L35.5 73.052L10.5 51.4014Z" fill="#6C6C6C"/>
<path d="M150 87.5996L200 44.2983V94.297L150 137.597H50L0 94.297V44.2983L50 87.5996H150Z" fill="#31BF61"/>
</svg>
