<svg width="200" height="139" viewBox="0 0 200 139" fill="none" xmlns="http://www.w3.org/2000/svg">
<path d="M50 1.99707L0 45.2984L50 88.5997H150L200 45.2984L150 1.99707H50Z" fill="#2ECC71"/>
<path d="M117 1.99707H82V23.3659C82 43.0183 100.838 57.1876 119.72 51.737L150 42.9958L185.5 32.7478V30.75L160.5 11.0972L123.387 21.8108C120.19 22.7338 117 20.3346 117 17.007V1.99707Z" fill="#414040"/>
<path d="M117 0H82V21.3688C82 41.0213 100.838 55.1905 119.72 49.7399L150 40.9987L185.5 30.7507L160.5 9.1001L123.387 19.8138C120.19 20.7367 117 18.3375 117 15.0099V0Z" fill="#6C6C6C"/>
<path d="M150 88.5996L200 45.2983V95.297L150 138.597H50L0 95.297V45.2983L50 88.5996H150Z" fill="#31BF61"/>
</svg>
