
<svg width="200" height="143" viewBox="0 0 200 143" fill="none" xmlns="http://www.w3.org/2000/svg">
<path d="M50 18L0 61.3013L50 104.603H150L200 61.3013L150 18H50Z" fill="#22C55E"/>
<path d="M150 104.603L200 61.3013V98.8003L150 142.101H50L0 98.8003V61.3013L50 104.603H150Z" fill="#713F12"/>
<path d="M0 61.3013L50 104.603V142.101L0 98.8003V61.3013Z" fill="#A16207"/>
<path d="M50 104.603H150V142.101H50V104.603Z" fill="#854D0E"/>
<path d="M50 6L0 49.3013L50 92.6026H150L200 49.3013L150 6H50Z" fill="#22C55E"/>
<path d="M75 92.6026H100H125V86.6026V70.9519L162.5 81.7773L187.5 60.1266V54.1266L160.392 46.3013L187.5 38.476V32.476L150 43.3013L160.392 46.3013L150 49.3013L182.304 58.6266L162.5 75.7773L125 64.9519V70.9519V86.6026H100H75V92.6026Z" fill="#44403C"/>
<path d="M75 86.6026H100H125V64.952L162.5 75.7773L175 64.952L187.5 54.1266L150 43.3013L187.5 32.476L175 21.6507L162.5 10.8253L125 21.6507V0H100H75V86.6026Z" fill="#78716C"/>
<path d="M200 49.3013L150 92.6026H50L0 49.3013V61.8009L50 105.102H150L200 61.8009V49.3013Z" fill="#166534"/>
<path d="M0 49.3013L50 92.6026V105.102L0 61.8009V49.3013Z" fill="#16A34A"/>
<path d="M50 92.6025H150V105.102H50V92.6025Z" fill="#15803D"/>
</svg>
