
<svg width="200" height="137" viewBox="0 0 200 137" fill="none" xmlns="http://www.w3.org/2000/svg">
<path d="M150 12L200 55.3013L150 98.6026H50L0 55.3013L50 12H150Z" fill="#22C55E"/>
<path d="M50 98.6026L0 55.3013V92.8003L50 136.101H150L200 92.8003V55.3013L150 98.6026H50Z" fill="#A16207"/>
<path d="M200 55.3013L150 98.6026V136.101L200 92.8003V55.3013Z" fill="#713F12"/>
<path d="M150 98.6025H50V136.101H150V98.6025Z" fill="#854D0E"/>
<path d="M150 0L200 43.3013L150 86.6026H50L0 43.3013L50 0H150Z" fill="#22C55E"/>
<path d="M68.6133 66.7957L37.5 75.7774L12.5 54.1267V48.1267L37.5 69.7774L75 58.952V71.5996V80.6027H125V86.6027H75V80.6027V71.5996C75 68.272 71.8103 65.8728 68.6133 66.7957Z" fill="#44403C"/>
<path d="M125 80.6026H100H75V65.5995C75 62.2719 71.8103 59.8727 68.6133 60.7956L37.5 69.7773L25 58.9519L12.5 48.1266L86.6795 26.7128C105.862 21.1754 125 35.5704 125 55.5359V80.6026Z" fill="#78716C"/>
<path d="M0 43.3013L50 86.6026H150L200 43.3013V55.8009L150 99.1019H50L0 55.8009V43.3013Z" fill="#16A34A"/>
<path d="M200 43.3013L150 86.6026V99.1019L200 55.8009V43.3013Z" fill="#166534"/>
<path d="M150 86.6025H50V99.1019H150V86.6025Z" fill="#15803D"/>
</svg>
