
<svg width="200" height="137" viewBox="0 0 200 137" fill="none" xmlns="http://www.w3.org/2000/svg">
<path d="M150 12L200 55.3013L150 98.6026H50L0 55.3013L50 12H150Z" fill="#22C55E"/>
<path d="M50 98.6026L0 55.3013V92.8003L50 136.101H150L200 92.8003V55.3013L150 98.6026H50Z" fill="#A16207"/>
<path d="M200 55.3013L150 98.6026V136.101L200 92.8003V55.3013Z" fill="#713F12"/>
<path d="M150 98.6025H50V136.101H150V98.6025Z" fill="#854D0E"/>
<path d="M150 0L200 43.3013L150 86.6026H50L0 43.3013L50 0H150Z" fill="#22C55E"/>
<path d="M160.392 40.3011L187.5 32.4757V26.4757L119.736 24.1926C117.634 24.1218 115.496 24.3129 113.583 25.183C97.3506 32.5627 98.3444 57.2569 116.564 62.5164L162.5 75.777L187.5 54.1264V48.1264L160.392 40.3011Z" fill="#44403C"/>
<path d="M162.5 4.8252L175 15.6505L187.5 26.4758L153.328 36.3404C152.365 36.6185 152.365 37.9838 153.328 38.2619L187.5 48.1265L175 58.9518L162.5 69.7771L116.564 56.5165C97.2933 50.9536 97.2933 23.6488 116.564 18.0858L162.5 4.8252Z" fill="#78716C"/>
<path d="M0 43.3013L50 86.6026H150L200 43.3013V55.8009L150 99.1019H50L0 55.8009V43.3013Z" fill="#16A34A"/>
<path d="M200 43.3013L150 86.6026V99.1019L200 55.8009V43.3013Z" fill="#166534"/>
<path d="M150 86.6025H50V99.1019H150V86.6025Z" fill="#15803D"/>
</svg>
