
<svg width="200" height="137" viewBox="0 0 200 137" fill="none" xmlns="http://www.w3.org/2000/svg">
<path d="M150 12L200 55.3013L150 98.6026H50L0 55.3013L50 12H150Z" fill="#22C55E"/>
<path d="M50 98.6026L0 55.3013V92.8003L50 136.101H150L200 92.8003V55.3013L150 98.6026H50Z" fill="#A16207"/>
<path d="M200 55.3013L150 98.6026V136.101L200 92.8003V55.3013Z" fill="#713F12"/>
<path d="M150 98.6025H50V136.101H150V98.6025Z" fill="#854D0E"/>
<path d="M150 0L200 43.3013L150 86.6026H50L0 43.3013L50 0H150Z" fill="#22C55E"/>
<path d="M106.934 59.7367L162.5 75.7773L187.5 54.1267V48.1267L162.5 69.7774L101.387 52.1355C100.481 51.8739 99.5192 51.8739 98.6133 52.1355L37.5 69.7774L12.5 48.1267V54.1267L37.5 75.7773L93.0662 59.7367C97.5963 58.429 102.404 58.429 106.934 59.7367Z" fill="#44403C"/>
<path d="M37.5 69.7774L25 58.9521L12.5 48.1268L86.1325 26.8709C95.1925 24.2555 104.807 24.2555 113.868 26.8709L187.5 48.1268L175 58.9521L162.5 69.7774L106.934 53.7368C102.404 52.4291 97.5963 52.4291 93.0662 53.7368L37.5 69.7774Z" fill="#78716C"/>
<path d="M0 43.3013L50 86.6026H150L200 43.3013V55.8009L150 99.1019H50L0 55.8009V43.3013Z" fill="#16A34A"/>
<path d="M200 43.3013L150 86.6026V99.1019L200 55.8009V43.3013Z" fill="#166534"/>
<path d="M150 86.6025H50V99.1019H150V86.6025Z" fill="#15803D"/>
</svg>
