<svg width="200" height="137" viewBox="0 0 200 137" fill="none" xmlns="http://www.w3.org/2000/svg">
<path d="M50 0L0 43.3013L50 86.6026H150L200 43.3013L150 0H50Z" fill="#2ECC71"/>
<path d="M117 60.34L164.5 74.052L189.5 52.4014V50.4L150 40.9987L185.5 30.7507V28.7529L160.5 9.1001L117 21.6575C97.7293 27.2204 97.7293 54.777 117 60.34Z" fill="#414040"/>
<path d="M117 58.3429L164.5 72.055L189.5 50.4043L150 39.0017L185.5 28.7537L160.5 7.10303L117 19.6604C97.7293 25.2234 97.7293 52.7799 117 58.3429Z" fill="#6C6C6C"/>
<path d="M150 86.6026L200 43.3013V93.3L150 136.6H50L0 93.3V43.3013L50 86.6026H150Z" fill="#31BF61"/>
</svg>
