<svg width="200" height="139" viewBox="0 0 200 139" fill="none" xmlns="http://www.w3.org/2000/svg">
<path d="M150 1.99707L200 45.2984L150 88.5997H50L0 45.2984L50 1.99707H150Z" fill="#2ECC71"/>
<path d="M83 1.99707H118V23.3659V33.7582L150 42.9958L189.5 52.4V54.3985L164.5 76.0491L111.906 60.8665C94.7864 55.9245 83 40.2544 83 22.4358V1.99707Z" fill="#414040"/>
<path d="M83 0H118V16.718C118 25.6273 123.893 33.4623 132.453 35.9333L189.5 52.4014L164.5 74.052L111.906 58.8695C94.7864 53.9274 83 38.2574 83 20.4387V0Z" fill="#6C6C6C"/>
<path d="M50 88.5996L0 45.2983V95.297L50 138.597H150L200 95.297V45.2983L150 88.5996H50Z" fill="#31BF61"/>
</svg>
