
<svg width="200" height="137" viewBox="0 0 200 137" fill="none" xmlns="http://www.w3.org/2000/svg">
<path d="M50 12L0 55.3013L50 98.6026H150L200 55.3013L150 12H50Z" fill="#22C55E"/>
<path d="M150 98.6026L200 55.3013V92.8003L150 136.101H50L0 92.8003V55.3013L50 98.6026H150Z" fill="#713F12"/>
<path d="M0 55.3013L50 98.6026V136.101L0 92.8003V55.3013Z" fill="#A16207"/>
<path d="M50 98.6025H150V136.101H50V98.6025Z" fill="#854D0E"/>
<path d="M50 0L0 43.3013L50 86.6026H150L200 43.3013L150 0H50Z" fill="#22C55E"/>
<path d="M71.3868 49.475L12.5 32.4758V26.4758L37.5 4.8252L103.321 23.826C116.16 27.5325 125 39.285 125 52.649V80.6025V86.6025H75V80.6025V54.2788C75 52.0515 73.5267 50.0928 71.3868 49.475Z" fill="#44403C"/>
<path d="M100 80.6025H125V52.649C125 39.285 116.16 27.5325 103.321 23.826L37.5 4.8252L25 15.6505L12.5 26.4758L71.3868 43.475C73.5267 44.0928 75 46.0515 75 48.2788V80.6025H100Z" fill="#78716C"/>
<path d="M200 43.3013L150 86.6026H50L0 43.3013V55.8009L50 99.1019H150L200 55.8009V43.3013Z" fill="#166534"/>
<path d="M0 43.3013L50 86.6026V99.1019L0 55.8009V43.3013Z" fill="#16A34A"/>
<path d="M50 86.6025H150V99.1019H50V86.6025Z" fill="#15803D"/>
</svg>
