
<svg width="200" height="143" viewBox="0 0 200 143" fill="none" xmlns="http://www.w3.org/2000/svg">
<path d="M150 18L200 61.3013L150 104.603H50L0 61.3013L50 18H150Z" fill="#22C55E"/>
<path d="M50 104.603L0 61.3013V98.8003L50 142.101H150L200 98.8003V61.3013L150 104.603H50Z" fill="#A16207"/>
<path d="M200 61.3013L150 104.603V142.101L200 98.8003V61.3013Z" fill="#713F12"/>
<path d="M150 104.603H50V142.101H150V104.603Z" fill="#854D0E"/>
<path d="M150 6L200 49.3013L150 92.6026H50L0 49.3013L50 6H150Z" fill="#22C55E"/>
<path d="M125 86.6026H100H75V50.5182L12.5 32.476L25 21.6507L37.5 10.8253L75 21.6507V0H100H125V36.0844L187.5 54.1266L175 64.952L162.5 75.7773L125 64.952V86.6026Z" fill="#78716C"/>
<path d="M125 92.6026H100H75V86.6026V56.5182L12.5 38.476V32.476L75 50.5182V56.5182V86.6026H100H125V70.9519V64.9519L162.5 75.7773L175 64.9519L187.5 54.1266V60.1266L175 70.9519L162.5 81.7773L125 70.9519V86.6026V92.6026Z" fill="#44403C"/>
<path d="M0 49.3013L50 92.6026H150L200 49.3013V61.8009L150 105.102H50L0 61.8009V49.3013Z" fill="#16A34A"/>
<path d="M200 49.3013L150 92.6026V105.102L200 61.8009V49.3013Z" fill="#166534"/>
<path d="M150 92.6025H50V105.102H150V92.6025Z" fill="#15803D"/>
</svg>
