
<svg width="200" height="137" viewBox="0 0 200 137" fill="none" xmlns="http://www.w3.org/2000/svg">
<path d="M50 12L0 55.3013L50 98.6026H150L200 55.3013L150 12H50Z" fill="#22C55E"/>
<path d="M150 98.6026L200 55.3013V92.8003L150 136.101H50L0 92.8003V55.3013L50 98.6026H150Z" fill="#713F12"/>
<path d="M0 55.3013L50 98.6026V136.101L0 92.8003V55.3013Z" fill="#A16207"/>
<path d="M50 98.6025H150V136.101H50V98.6025Z" fill="#854D0E"/>
<path d="M50 0L0 43.3013L50 86.6026H150L200 43.3013L150 0H50Z" fill="#22C55E"/>
<path d="M39.6077 40.3011L12.5 32.4757V26.4757L80.2645 24.1926C82.3657 24.1218 84.5035 24.3129 86.4175 25.183C102.649 32.5627 101.656 57.2569 83.436 62.5164L37.5 75.777L12.5 54.1264V48.1264L39.6077 40.3011Z" fill="#44403C"/>
<path d="M37.5 4.8252L25 15.6505L12.5 26.4758L46.6718 36.3404C47.6353 36.6185 47.6353 37.9838 46.6718 38.2619L12.5 48.1265L25 58.9518L37.5 69.7771L83.436 56.5165C102.707 50.9536 102.707 23.6488 83.436 18.0858L37.5 4.8252Z" fill="#78716C"/>
<path d="M200 43.3013L150 86.6026H50L0 43.3013V55.8009L50 99.1019H150L200 55.8009V43.3013Z" fill="#166534"/>
<path d="M0 43.3013L50 86.6026V99.1019L0 55.8009V43.3013Z" fill="#16A34A"/>
<path d="M50 86.6025H150V99.1019H50V86.6025Z" fill="#15803D"/>
</svg>
