
<svg width="200" height="137" viewBox="0 0 200 137" fill="none" xmlns="http://www.w3.org/2000/svg">
<path d="M50 12L0 55.3013L50 98.6026H150L200 55.3013L150 12H50Z" fill="#22C55E"/>
<path d="M150 98.6026L200 55.3013V92.8003L150 136.101H50L0 92.8003V55.3013L50 98.6026H150Z" fill="#713F12"/>
<path d="M0 55.3013L50 98.6026V136.101L0 92.8003V55.3013Z" fill="#A16207"/>
<path d="M50 98.6025H150V136.101H50V98.6025Z" fill="#854D0E"/>
<path d="M50 0L0 43.3013L50 86.6026H150L200 43.3013L150 0H50Z" fill="#22C55E"/>
<path d="M25 64.9519L37.5 75.7773L75 64.9519V80.6026V86.6026H100H125V80.6026V50.5182L187.5 32.476V26.476L125 44.5182V50.5182V80.6026H100H75V64.9519V58.9519L37.5 69.7773L25 58.9519L17.6962 52.6266L50 43.3013L39.6077 40.3013L50 37.3013L12.5 26.476V32.476L39.6077 40.3013L12.5 48.1266V54.1266L25 64.9519Z" fill="#44403C"/>
<path d="M25 58.9519L37.5 69.7773L75 58.9519V80.6026H100H125V44.5182L187.5 26.476L175 15.6506L162.5 4.82532L100 22.8675L37.5 4.82532L25 15.6506L12.5 26.476L50 37.3013L12.5 48.1266L25 58.9519Z" fill="#78716C"/>
<path d="M200 43.3013L150 86.6026H50L0 43.3013V55.8009L50 99.1019H150L200 55.8009V43.3013Z" fill="#166534"/>
<path d="M0 43.3013L50 86.6026V99.1019L0 55.8009V43.3013Z" fill="#16A34A"/>
<path d="M50 86.6025H150V99.1019H50V86.6025Z" fill="#15803D"/>
</svg>
