
<svg width="200" height="143" viewBox="0 0 200 143" fill="none" xmlns="http://www.w3.org/2000/svg">
<path d="M50 18L0 61.3013L50 104.603H150L200 61.3013L150 18H50Z" fill="#22C55E"/>
<path d="M150 104.603L200 61.3013V98.8003L150 142.101H50L0 98.8003V61.3013L50 104.603H150Z" fill="#713F12"/>
<path d="M0 61.3013L50 104.603V142.101L0 98.8003V61.3013Z" fill="#A16207"/>
<path d="M50 104.603H150V142.101H50V104.603Z" fill="#854D0E"/>
<path d="M50 6L0 49.3013L50 92.6026H150L200 49.3013L150 6H50Z" fill="#22C55E"/>
<path d="M86.6795 59.8898L12.5 38.476V32.476L37.5 10.8253L72.4453 20.9132C73.7241 21.2823 75 20.3227 75 18.9916V0H125V31.0667C125 51.0322 105.862 65.4272 86.6795 59.8898Z" fill="#44403C"/>
<path d="M100 0H75V18.9916C75 20.3227 73.7241 21.2823 72.4453 20.9132L37.5 10.8253L25 21.6507L12.5 32.476L86.6795 53.8898C105.862 59.4272 125 45.0322 125 25.0667V0H100Z" fill="#78716C"/>
<path d="M200 49.3013L150 92.6026H50L0 49.3013V61.8009L50 105.102H150L200 61.8009V49.3013Z" fill="#166534"/>
<path d="M0 49.3013L50 92.6026V105.102L0 61.8009V49.3013Z" fill="#16A34A"/>
<path d="M50 92.6025H150V105.102H50V92.6025Z" fill="#15803D"/>
</svg>
