<svg width="200" height="137" viewBox="0 0 200 137" fill="none" xmlns="http://www.w3.org/2000/svg">
<path d="M150 0L200 43.3013L150 86.6026H50L0 43.3013L50 0H150Z" fill="#2ECC71"/>
<path d="M164.5 74.052L189.5 52.4014V50.4029L150 40.9987L120.165 32.3861C101.561 27.0156 83 40.9765 83 60.34V86.6H118V67.2762C118 63.9486 121.19 61.5494 124.387 62.4723L164.5 74.052Z" fill="#414040"/>
<path d="M189.5 50.4043L150 39.0016L120.165 30.389C101.561 25.0185 83 38.9794 83 58.3429V84.6029H118V65.2791C118 61.9515 121.19 59.5524 124.387 60.4753L164.5 72.055L189.5 50.4043Z" fill="#6C6C6C"/>
<path d="M50 86.6026L0 43.3013V93.3L50 136.6H150L200 93.3V43.3013L150 86.6026H50Z" fill="#31BF61"/>
</svg>
