<svg width="200" height="139" viewBox="0 0 200 139" fill="none" xmlns="http://www.w3.org/2000/svg">
<path d="M150 1.99707L200 45.2984L150 88.5997H50L0 45.2984L50 1.99707H150Z" fill="#2ECC71"/>
<path d="M83 1.99707H118V23.3659C118 43.0183 99.1618 57.1876 80.2803 51.737L50 42.9958L14.5 32.7478V30.75L39.5 11.0972L76.6133 21.8108C79.8103 22.7338 83 20.3346 83 17.007V1.99707Z" fill="#414040"/>
<path d="M83 0H118V21.3688C118 41.0213 99.1618 55.1905 80.2803 49.7399L50 40.9987L14.5 30.7507L39.5 9.1001L76.6133 19.8138C79.8103 20.7367 83 18.3375 83 15.0099V0Z" fill="#6C6C6C"/>
<path d="M50 88.5996L0 45.2983V95.297L50 138.597H150L200 95.297V45.2983L150 88.5996H50Z" fill="#31BF61"/>
</svg>
