<svg width="200" height="137" viewBox="0 0 200 137" fill="none" xmlns="http://www.w3.org/2000/svg">
<path d="M50 0L0 43.3013L50 86.6026H150L200 43.3013L150 0H50Z" fill="#2ECC71"/>
<path d="M82 21.3688L39.5 9.1001L14.5 28.7529V30.7507L50 40.9987L10.5 50.4029V52.4014L35.5 74.052L82 60.6286V86.6H117V60.34V50.525L150 40.9987L185.5 30.7507V28.7529L160.5 9.1001L117 21.6575L100 26.565L82 21.3688Z" fill="#414040"/>
<path d="M82 19.3717L39.5 7.10303L14.5 28.7537L50 39.0017L10.5 50.4043L35.5 72.055L82 58.6316V84.6029H117V58.3429V48.5279L150 39.0017L185.5 28.7537L160.5 7.10303L117 19.6604L100 24.5679L82 19.3717Z" fill="#6C6C6C"/>
<path d="M150 86.6026L200 43.3013V93.3L150 136.6H50L0 93.3V43.3013L50 86.6026H150Z" fill="#31BF61"/>
</svg>
