
<svg width="200" height="143" viewBox="0 0 200 143" fill="none" xmlns="http://www.w3.org/2000/svg">
<path d="M50 18L0 61.3013L50 104.603H150L200 61.3013L150 18H50Z" fill="#22C55E"/>
<path d="M150 104.603L200 61.3013V98.8003L150 142.101H50L0 98.8003V61.3013L50 104.603H150Z" fill="#713F12"/>
<path d="M0 61.3013L50 104.603V142.101L0 98.8003V61.3013Z" fill="#A16207"/>
<path d="M50 104.603H150V142.101H50V104.603Z" fill="#854D0E"/>
<path d="M50 6L0 49.3013L50 92.6026H150L200 49.3013L150 6H50Z" fill="#22C55E"/>
<path d="M162.5 81.7773L96.6795 62.7765C83.8398 59.07 75 47.3175 75 33.9535V0H125V32.3236C125 34.551 126.473 36.5097 128.613 37.1275L187.5 54.1266V60.1266L162.5 81.7773Z" fill="#44403C"/>
<path d="M162.5 75.7773L175 64.952L187.5 54.1266L128.613 37.1275C126.473 36.5097 125 34.551 125 32.3236V0H100H75V27.9535C75 41.3174 83.8398 53.07 96.6795 56.7765L162.5 75.7773Z" fill="#78716C"/>
<path d="M200 49.3013L150 92.6026H50L0 49.3013V61.8009L50 105.102H150L200 61.8009V49.3013Z" fill="#166534"/>
<path d="M0 49.3013L50 92.6026V105.102L0 61.8009V49.3013Z" fill="#16A34A"/>
<path d="M50 92.6025H150V105.102H50V92.6025Z" fill="#15803D"/>
</svg>
