<svg width="200" height="137" viewBox="0 0 200 137" fill="none" xmlns="http://www.w3.org/2000/svg">
<path d="M150 0L200 43.3013L150 86.6026H50L0 43.3013L50 0H150Z" fill="#2ECC71"/>
<path d="M118 21.3688L160.5 9.1001L185.5 28.7529V30.7507L150 40.9987L189.5 50.4029V52.4014L164.5 74.052L118 60.6286L100 55.4325L83 60.34L35.5 74.052L10.5 52.4014V50.4L50 40.9987L14.5 30.7507V28.7529L39.5 9.1001L83 21.6575L100 26.565L118 21.3688Z" fill="#414040"/>
<path d="M118 19.3717L160.5 7.10303L185.5 28.7537L150 39.0017L189.5 50.4043L164.5 72.055L118 58.6316L100 53.4354L83 58.3429L35.5 72.055L10.5 50.4043L50 39.0017L14.5 28.7537L39.5 7.10303L83 19.6604L100 24.5679L118 19.3717Z" fill="#6C6C6C"/>
<path d="M50 86.6026L0 43.3013V93.3L50 136.6H150L200 93.3V43.3013L150 86.6026H50Z" fill="#31BF61"/>
</svg>
