
<svg width="200" height="137" viewBox="0 0 200 137" fill="none" xmlns="http://www.w3.org/2000/svg">
<path d="M150 12L200 55.3013L150 98.6026H50L0 55.3013L50 12H150Z" fill="#22C55E"/>
<path d="M50 98.6026L0 55.3013V92.8003L50 136.101H150L200 92.8003V55.3013L150 98.6026H50Z" fill="#A16207"/>
<path d="M200 55.3013L150 98.6026V136.101L200 92.8003V55.3013Z" fill="#713F12"/>
<path d="M150 98.6025H50V136.101H150V98.6025Z" fill="#854D0E"/>
<path d="M150 0L200 43.3013L150 86.6026H50L0 43.3013L50 0H150Z" fill="#22C55E"/>
<path d="M128.613 49.475L187.5 32.4758V26.4758L162.5 4.8252L96.6795 23.826C83.8398 27.5325 75 39.285 75 52.649V80.6025V86.6025H125V80.6025V54.2788C125 52.0515 126.473 50.0928 128.613 49.475Z" fill="#44403C"/>
<path d="M100 80.6025H75V52.649C75 39.285 83.8398 27.5325 96.6795 23.826L162.5 4.8252L175 15.6505L187.5 26.4758L128.613 43.475C126.473 44.0928 125 46.0515 125 48.2788V80.6025H100Z" fill="#78716C"/>
<path d="M0 43.3013L50 86.6026H150L200 43.3013V55.8009L150 99.1019H50L0 55.8009V43.3013Z" fill="#16A34A"/>
<path d="M200 43.3013L150 86.6026V99.1019L200 55.8009V43.3013Z" fill="#166534"/>
<path d="M150 86.6025H50V99.1019H150V86.6025Z" fill="#15803D"/>
</svg>
