
<svg width="200" height="143" viewBox="0 0 200 143" fill="none" xmlns="http://www.w3.org/2000/svg">
<path d="M150 18L200 61.3013L150 104.603H50L0 61.3013L50 18H150Z" fill="#22C55E"/>
<path d="M50 104.603L0 61.3013V98.8003L50 142.101H150L200 98.8003V61.3013L150 104.603H50Z" fill="#A16207"/>
<path d="M200 61.3013L150 104.603V142.101L200 98.8003V61.3013Z" fill="#713F12"/>
<path d="M150 104.603H50V142.101H150V104.603Z" fill="#854D0E"/>
<path d="M150 6L200 49.3013L150 92.6026H50L0 49.3013L50 6H150Z" fill="#22C55E"/>
<path d="M37.5 81.7773L103.321 62.7765C116.16 59.07 125 47.3175 125 33.9535V0H75V32.3236C75 34.551 73.5267 36.5097 71.3868 37.1275L12.5 54.1266V60.1266L37.5 81.7773Z" fill="#44403C"/>
<path d="M37.5 75.7773L25 64.952L12.5 54.1266L71.3868 37.1275C73.5267 36.5097 75 34.551 75 32.3236V0H100H125V27.9535C125 41.3174 116.16 53.07 103.321 56.7765L37.5 75.7773Z" fill="#78716C"/>
<path d="M0 49.3013L50 92.6026H150L200 49.3013V61.8009L150 105.102H50L0 61.8009V49.3013Z" fill="#16A34A"/>
<path d="M200 49.3013L150 92.6026V105.102L200 61.8009V49.3013Z" fill="#166534"/>
<path d="M150 92.6025H50V105.102H150V92.6025Z" fill="#15803D"/>
</svg>
