<svg width="200" height="138" viewBox="0 0 200 138" fill="none" xmlns="http://www.w3.org/2000/svg">
<path d="M150 0.99707L200 44.2984L150 87.5997H50L0 44.2984L50 0.99707H150Z" fill="#2ECC71"/>
<path d="M118 22.3659L160.5 10.0972L185.5 29.75V31.7478L150 41.9958L189.5 51.4V53.3985L164.5 75.0491L118 61.6257V87.5971H83V61.337L35.5 75.0491L10.5 53.3985V51.3971L50 41.9958L14.5 31.7478V29.75L39.5 10.0972L83 22.6545L100 27.562L118 22.3659Z" fill="#414040"/>
<path d="M118 20.3688L160.5 8.1001L185.5 29.7507L150 39.9987L189.5 51.4014L164.5 73.052L118 59.6286V85.6H83V59.34L35.5 73.052L10.5 51.4014L50 39.9987L14.5 29.7507L39.5 8.1001L82 20.3688L83 20.6575L100 25.565L118 20.3688Z" fill="#6C6C6C"/>
<path d="M50 87.5996L0 44.2983V94.297L50 137.597H150L200 94.297V44.2983L150 87.5996H50Z" fill="#31BF61"/>
</svg>
