<svg width="200" height="205" viewBox="0 0 200 205" fill="none" xmlns="http://www.w3.org/2000/svg">
<path d="M150 68L200 111.301L150 154.603H50L0 111.301L50 68H150Z" fill="#4F4F4F"/>
<path d="M50 154.603L0 111.301V161.3L50 204.6H150L200 161.3V111.301L150 154.603H50Z" fill="#454545"/>
<path d="M113.591 59.5989L147.828 39.832V129.342L113.591 149.109L113.591 59.5989Z" fill="#7424A6"/>
<rect width="79.8133" height="39.5337" transform="matrix(0.866025 0.5 -0.866025 0.5 78.6067 0)" fill="#464444"/>
<rect width="14.7259" height="11.2584" transform="matrix(0.866025 0.5 -0.866025 0.5 114.923 29.1962)" fill="#C4C4C4"/>
<path d="M117.901 42.1883L127.651 36.5591L127.651 40.7731L117.901 46.5616L105.148 39.6154L105.148 34.8254L117.901 42.1883Z" fill="#939393"/>
<rect width="14.7259" height="11.2584" transform="matrix(0.866025 0.5 -0.866025 0.5 77.9233 8)" fill="#C4C4C4"/>
<path d="M80.9011 20.9921L90.6512 15.3629L90.6512 19.577L80.9011 25.3655L68.1481 18.4193L68.1481 13.6292L80.9011 20.9921Z" fill="#939393"/>
<path d="M44.5181 19.8414L113.638 59.7481L113.638 149.258L44.5178 108L44.5181 19.8414Z" fill="#863AB4"/>
<path d="M49.7593 31L55.7864 34.4798L55.7864 42.2849L49.7593 38.6872L49.7593 31Z" fill="#363636"/>
<path d="M49.7593 42L55.7864 45.4798L55.7864 53.2849L49.7593 49.6872L49.7593 42Z" fill="#363636"/>
<path d="M49.7593 53L55.7864 56.4798L55.7864 64.2849L49.7593 60.6872L49.7593 53Z" fill="#363636"/>
<path d="M49.7593 64L55.7864 67.4798L55.7864 75.2849L49.7593 71.6872L49.7593 64Z" fill="#363636"/>
<path d="M49.7593 75L55.7864 78.4798L55.7864 86.2849L49.7593 82.6872L49.7593 75Z" fill="#363636"/>
<path d="M49.7593 86L55.7864 89.4798L55.7864 97.2849L49.7593 93.6872L49.7593 86Z" fill="#363636"/>
<path d="M49.7593 97L55.7864 100.48L55.7864 108.285L49.7593 104.687L49.7593 97Z" fill="#363636"/>
<path d="M58.7593 36L64.7864 39.4798L64.7864 47.2849L58.7593 43.6872L58.7593 36Z" fill="#363636"/>
<path d="M58.7593 47L64.7864 50.4798L64.7864 58.2849L58.7593 54.6872L58.7593 47Z" fill="#363636"/>
<path d="M58.7593 58L64.7864 61.4798L64.7864 69.2849L58.7593 65.6872L58.7593 58Z" fill="#363636"/>
<path d="M58.7593 69L64.7864 72.4798L64.7864 80.2849L58.7593 76.6872L58.7593 69Z" fill="#363636"/>
<path d="M58.7593 80L64.7864 83.4798L64.7864 91.2849L58.7593 87.6872L58.7593 80Z" fill="#363636"/>
<path d="M58.7593 91L64.7864 94.4798L64.7864 102.285L58.7593 98.6872L58.7593 91Z" fill="#363636"/>
<path d="M58.7593 102L64.7864 105.48L64.7864 113.285L58.7593 109.687L58.7593 102Z" fill="#363636"/>
<path d="M67.7593 41L73.7864 44.4798L73.7864 52.2849L67.7593 48.6872L67.7593 41Z" fill="#363636"/>
<path d="M67.7593 52L73.7864 55.4798L73.7864 63.2849L67.7593 59.6872L67.7593 52Z" fill="#363636"/>
<path d="M67.7593 63L73.7864 66.4798L73.7864 74.2849L67.7593 70.6872L67.7593 63Z" fill="#363636"/>
<path d="M67.7593 74L73.7864 77.4798L73.7864 85.2849L67.7593 81.6872L67.7593 74Z" fill="#363636"/>
<path d="M67.7593 85L73.7864 88.4798L73.7864 96.2849L67.7593 92.6872L67.7593 85Z" fill="#363636"/>
<path d="M67.7593 96L73.7864 99.4798L73.7864 107.285L67.7593 103.687L67.7593 96Z" fill="#363636"/>
<path d="M67.7593 107L73.7864 110.48L73.7864 118.285L67.7593 114.687L67.7593 107Z" fill="#363636"/>
<path d="M76.7593 46L82.7864 49.4798L82.7864 57.2849L76.7593 53.6872L76.7593 46Z" fill="#363636"/>
<path d="M76.7593 57L82.7864 60.4798L82.7864 68.2849L76.7593 64.6872L76.7593 57Z" fill="#363636"/>
<path d="M76.7593 68L82.7864 71.4798L82.7864 79.2849L76.7593 75.6872L76.7593 68Z" fill="#363636"/>
<path d="M76.7593 79L82.7864 82.4798L82.7864 90.2849L76.7593 86.6872L76.7593 79Z" fill="#363636"/>
<path d="M76.7593 90L82.7864 93.4798L82.7864 101.285L76.7593 97.6872L76.7593 90Z" fill="#363636"/>
<path d="M76.7593 101L82.7864 104.48L82.7864 112.285L76.7593 108.687L76.7593 101Z" fill="#363636"/>
<path d="M76.7593 112L82.7864 115.48L82.7864 123.285L76.7593 119.687L76.7593 112Z" fill="#363636"/>
<path d="M85.7593 51L91.7864 54.4798L91.7864 62.2849L85.7593 58.6872L85.7593 51Z" fill="#363636"/>
<path d="M85.7593 62L91.7864 65.4798L91.7864 73.2849L85.7593 69.6872L85.7593 62Z" fill="#363636"/>
<path d="M85.7593 73L91.7864 76.4798L91.7864 84.2849L85.7593 80.6872L85.7593 73Z" fill="#363636"/>
<path d="M85.7593 84L91.7864 87.4798L91.7864 95.2849L85.7593 91.6872L85.7593 84Z" fill="#363636"/>
<path d="M85.7593 95L91.7864 98.4798L91.7864 106.285L85.7593 102.687L85.7593 95Z" fill="#363636"/>
<path d="M85.7593 106L91.7864 109.48L91.7864 117.285L85.7593 113.687L85.7593 106Z" fill="#363636"/>
<path d="M85.7593 117L91.7864 120.48L91.7864 128.285L85.7593 124.687L85.7593 117Z" fill="#363636"/>
<path d="M94.7593 56L100.786 59.4798L100.786 67.2849L94.7593 63.6872L94.7593 56Z" fill="#363636"/>
<path d="M94.7593 67L100.786 70.4798L100.786 78.2849L94.7593 74.6872L94.7593 67Z" fill="#363636"/>
<path d="M94.7593 78L100.786 81.4798L100.786 89.2849L94.7593 85.6872L94.7593 78Z" fill="#363636"/>
<path d="M94.7593 89L100.786 92.4798L100.786 100.285L94.7593 96.6872L94.7593 89Z" fill="#363636"/>
<path d="M94.7593 100L100.786 103.48L100.786 111.285L94.7593 107.687L94.7593 100Z" fill="#363636"/>
<path d="M94.7593 111L100.786 114.48L100.786 122.285L94.7593 118.687L94.7593 111Z" fill="#363636"/>
<path d="M94.7593 122L100.786 125.48L100.786 133.285L94.7593 129.687L94.7593 122Z" fill="#363636"/>
<path d="M103.759 61L109.786 64.4798L109.786 72.2849L103.759 68.6872L103.759 61Z" fill="#363636"/>
<path d="M103.759 72L109.786 75.4798L109.786 83.2849L103.759 79.6872L103.759 72Z" fill="#363636"/>
<path d="M103.759 83L109.786 86.4798L109.786 94.2849L103.759 90.6872L103.759 83Z" fill="#363636"/>
<path d="M103.759 94L109.786 97.4798L109.786 105.285L103.759 101.687L103.759 94Z" fill="#363636"/>
<path d="M103.759 105L109.786 108.48L109.786 116.285L103.759 112.687L103.759 105Z" fill="#363636"/>
<path d="M103.759 116L109.786 119.48L109.786 127.285L103.759 123.687L103.759 116Z" fill="#363636"/>
<path d="M103.759 127L109.786 130.48L109.786 138.285L103.759 134.687L103.759 127Z" fill="#363636"/>
<path d="M128.942 60L119.071 65.6994L119.071 78.4829L128.942 72.5905L128.942 60Z" fill="#363636"/>
<path d="M128.942 80L119.071 85.6994L119.071 98.4829L128.942 92.5905L128.942 80Z" fill="#363636"/>
<path d="M128.942 100L119.071 105.699L119.071 118.483L128.942 112.591L128.942 100Z" fill="#363636"/>
<path d="M128.942 120L119.071 125.699L119.071 138.483L128.942 132.591L128.942 120Z" fill="#363636"/>
<path d="M143.942 52L134.071 57.6994L134.071 70.4829L143.942 64.5905L143.942 52Z" fill="#363636"/>
<path d="M143.942 72L134.071 77.6994L134.071 90.4829L143.942 84.5905L143.942 72Z" fill="#363636"/>
<path d="M143.942 92L134.071 97.6994L134.071 110.483L143.942 104.591L143.942 92Z" fill="#363636"/>
<path d="M143.942 112L134.071 117.699L134.071 130.483L143.942 124.591L143.942 112Z" fill="#363636"/>
</svg>
