
<svg width="200" height="294" viewBox="0 0 200 294" fill="none" xmlns="http://www.w3.org/2000/svg">
<path d="M50 255.603L0 212.301V249.8L50 293.101H150L200 249.8V212.301L150 255.603H50Z" fill="#A16207"/>
<path d="M200 212.301L150 255.603V293.101L200 249.8V212.301Z" fill="#713F12"/>
<path d="M150 255.603H50V293.101H150V255.603Z" fill="#854D0E"/>
<path d="M150 151L200 194.301L150 237.603H50L0 194.301L50 151H150Z" fill="#22C55E"/>
<path d="M150 151L200 194.301L150 237.603H50L0 194.301L50 151H150Z" fill="#D4D4D4"/>
<path d="M143.25 156L187 194L143.25 232H55.75L12 194L55.75 156H143.25Z" fill="#A8A29E"/>
<path d="M49.4611 194.035L71.9762 213.591C73.1725 214.63 72.7429 216.581 71.2209 217.022L60.9581 219.993C59.3281 220.465 57.57 220.078 56.2889 218.965L33.7738 199.409C32.5775 198.37 33.0071 196.419 34.5291 195.978L44.7919 193.007C46.4219 192.535 48.18 192.922 49.4611 194.035Z" fill="#84CC16"/>
<path d="M103.774 220.284L109.852 225.564C111.15 226.691 112.936 227.073 114.581 226.574L149.019 216.143C150.525 215.687 150.939 213.75 149.751 212.719L144.07 207.785C142.789 206.672 141.031 206.285 139.401 206.757L104.529 216.853C103.007 217.294 102.578 219.245 103.774 220.284Z" fill="#84CC16"/>
<path d="M41.7738 176.284L47.8524 181.564C49.1501 182.691 50.9357 183.073 52.5807 182.574L87.0192 172.143C88.5251 171.687 88.9388 169.75 87.7509 168.719L82.0705 163.785C80.7893 162.672 79.0312 162.285 77.4012 162.757L42.5291 172.853C41.0071 173.294 40.5775 175.245 41.7738 176.284Z" fill="#84CC16"/>
<path d="M50 237.603L0 194.301V200.301L50 243.603H150L200 200.301V194.301L150 237.603H50Z" fill="#A3A3A3"/>
<path d="M200 194.301L150 237.603V243.603L200 200.301V194.301Z" fill="#525252"/>
<path d="M150 237.603H50V243.603H150V237.603Z" fill="#737373"/>
<path d="M0 200.301L50 243.603H150L200 200.301V212.801L150 256.102H50L0 212.801V200.301Z" fill="#16A34A"/>
<path d="M200 200.301L150 243.603V256.102L200 212.801V200.301Z" fill="#166534"/>
<path d="M150 243.603H50V256.102H150V243.603Z" fill="#15803D"/>
<rect x="129" y="148.12" width="2.88" height="19.56" fill="#713F12"/>
<circle cx="130.56" cy="140.56" r="10.56" fill="#84CC16"/>
<path d="M130.56 151.12C136.392 151.12 141.12 146.392 141.12 140.56C141.12 136.983 139.341 133.821 136.62 131.911C138.82 136.197 139.584 145.728 125.04 149.564C126.646 150.551 128.537 151.12 130.56 151.12Z" fill="#65A30D"/>
<ellipse cx="127.542" cy="137.048" rx="3.22976" ry="4.28804" transform="rotate(36.3273 127.542 137.048)" fill="#A3E635"/>
<circle cx="130.44" cy="167.56" r="1.44" fill="#713F12"/>
<rect x="88.9999" y="144.12" width="2.88" height="19.56" fill="#713F12"/>
<circle cx="90.56" cy="136.56" r="10.56" fill="#84CC16"/>
<path d="M90.56 147.12C96.3922 147.12 101.12 142.392 101.12 136.56C101.12 132.983 99.3413 129.821 96.62 127.911C98.82 132.197 99.584 141.728 85.04 145.564C86.6463 146.551 88.5367 147.12 90.56 147.12Z" fill="#65A30D"/>
<ellipse cx="87.5423" cy="133.048" rx="3.22976" ry="4.28804" transform="rotate(36.3273 87.5423 133.048)" fill="#A3E635"/>
<circle cx="90.4399" cy="163.56" r="1.44" fill="#713F12"/>
<rect x="69.9999" y="150.12" width="2.88" height="19.56" fill="#713F12"/>
<circle cx="71.56" cy="142.56" r="10.56" fill="#84CC16"/>
<path d="M71.56 153.12C77.3922 153.12 82.12 148.392 82.12 142.56C82.12 138.983 80.3413 135.821 77.62 133.911C79.82 138.197 80.584 147.728 66.04 151.564C67.6463 152.551 69.5367 153.12 71.56 153.12Z" fill="#65A30D"/>
<ellipse cx="68.5423" cy="139.048" rx="3.22976" ry="4.28804" transform="rotate(36.3273 68.5423 139.048)" fill="#A3E635"/>
<circle cx="71.4399" cy="169.56" r="1.44" fill="#713F12"/>
<rect x="54.9999" y="156.12" width="2.88" height="19.56" fill="#713F12"/>
<circle cx="56.56" cy="148.56" r="10.56" fill="#84CC16"/>
<path d="M56.56 159.12C62.3922 159.12 67.12 154.392 67.12 148.56C67.12 144.983 65.3413 141.821 62.62 139.911C64.82 144.197 65.584 153.728 51.04 157.564C52.6463 158.551 54.5367 159.12 56.56 159.12Z" fill="#65A30D"/>
<ellipse cx="53.5423" cy="145.048" rx="3.22976" ry="4.28804" transform="rotate(36.3273 53.5423 145.048)" fill="#A3E635"/>
<circle cx="56.4399" cy="175.56" r="1.44" fill="#713F12"/>
<path d="M141.461 164.035L163.976 183.591C165.172 184.63 164.743 186.581 163.221 187.022L152.958 189.993C151.328 190.465 149.57 190.078 148.289 188.965L125.774 169.409C124.578 168.37 125.007 166.419 126.529 165.978L136.792 163.007C138.422 162.535 140.18 162.922 141.461 164.035Z" fill="#84CC16"/>
<rect x="134.125" y="149.12" width="2.88" height="19.56" fill="#713F12"/>
<circle cx="135.685" cy="141.56" r="10.56" fill="#84CC16"/>
<path d="M135.685 152.12C141.517 152.12 146.245 147.392 146.245 141.56C146.245 137.983 144.466 134.821 141.745 132.911C143.945 137.197 144.709 146.728 130.165 150.564C131.771 151.551 133.662 152.12 135.685 152.12Z" fill="#65A30D"/>
<ellipse cx="132.667" cy="138.048" rx="3.22976" ry="4.28804" transform="rotate(36.3273 132.667 138.048)" fill="#A3E635"/>
<circle cx="135.565" cy="168.56" r="1.44" fill="#713F12"/>
<rect x="143.125" y="156.12" width="2.88" height="19.56" fill="#713F12"/>
<circle cx="144.685" cy="148.56" r="10.56" fill="#84CC16"/>
<path d="M144.685 159.12C150.517 159.12 155.245 154.392 155.245 148.56C155.245 144.983 153.466 141.821 150.745 139.911C152.945 144.197 153.709 153.728 139.165 157.564C140.771 158.551 142.662 159.12 144.685 159.12Z" fill="#65A30D"/>
<ellipse cx="141.667" cy="145.048" rx="3.22976" ry="4.28804" transform="rotate(36.3273 141.667 145.048)" fill="#A3E635"/>
<circle cx="144.565" cy="175.56" r="1.44" fill="#713F12"/>
<rect x="153.125" y="165.12" width="2.88" height="19.56" fill="#713F12"/>
<circle cx="154.685" cy="157.56" r="10.56" fill="#84CC16"/>
<path d="M154.685 168.12C160.517 168.12 165.245 163.392 165.245 157.56C165.245 153.983 163.466 150.821 160.745 148.911C162.945 153.197 163.709 162.728 149.165 166.564C150.771 167.551 152.662 168.12 154.685 168.12Z" fill="#65A30D"/>
<ellipse cx="151.667" cy="154.048" rx="3.22976" ry="4.28804" transform="rotate(36.3273 151.667 154.048)" fill="#A3E635"/>
<circle cx="154.565" cy="184.56" r="1.44" fill="#713F12"/>
<path d="M90.4056 32.5301L109.697 49.2369L138.634 40.8835L143.457 45.0602L128.988 49.2369L114.52 53.4136L100.051 57.5903L85.5828 61.767V216L81 211L80.7599 57.5903L109.697 49.2369L90.4056 32.5301L61.4686 40.8835L56.6458 36.7068L71.1143 32.5301L85.5828 28.3534L100.051 24.1767L114.52 20L119.343 24.1767L90.4056 32.5301Z" fill="#0369A1"/>
<path d="M85.5826 216V61.767L56.6456 36.7068V78.26V187.063L85.5826 216Z" fill="#EA580C"/>
<path d="M85.0826 214.793L57.1456 186.856V177.666V168.268V158.871V149.474V140.077V130.679V121.282V111.885V102.488V93.0904V83.6931V74.2958V64.8986V55.5013V46.104V37.8012L85.0826 61.9954V71.4066V81.0461V90.6857V100.325V109.965V119.604V129.244V138.883V148.523V158.163V167.802V177.442V187.081V196.721V206.36V214.793Z" fill="#EA580C" stroke="#F97316"/>
<path d="M84.5827 152.396V148.268L58.5002 123.715V130.747L84.5827 155.491V154.46V152.396Z" fill="#0284C7"/>
<path d="M84.5827 162.027V157.902L58.5002 133.13V140.157L84.5827 165.12V164.089V162.027Z" fill="#0284C7"/>
<path d="M84.5827 171.658V167.536L58.5002 142.546V149.568L84.5827 174.749V173.719V171.658Z" fill="#0284C7"/>
<path d="M84.5827 181.289V177.171L58.5002 151.962L58.3901 158.871L84.5827 184.378V183.349V181.289Z" fill="#0284C7"/>
<path d="M84.5827 190.921V186.805L58.5002 161.377L58.3774 168.268L84.5827 194.007V192.978V190.921Z" fill="#0284C7"/>
<path d="M84.5827 200.552V196.439L58.5002 170.793V177.8L84.5827 203.636V202.608V200.552Z" fill="#0284C7"/>
<path d="M84.5827 209.829V206.073L58.5002 180.209V186.591L84.5827 212.647V211.708V209.829Z" fill="#0284C7"/>
<path d="M58.5002 74.2827L84.5827 97.7171V90.4643L58.5002 67.2209V74.2827Z" fill="#0284C7"/>
<path d="M84.5827 100.098L58.5002 76.6365V83.6934L84.5827 107.346V100.098Z" fill="#0284C7"/>
<path d="M84.5827 109.732L58.5002 86.0521L58.4853 93.0904L84.5827 116.975V109.732Z" fill="#0284C7"/>
<path d="M84.5827 119.366L58.4853 95.4541L58.4709 102.488L84.5827 126.604V119.366Z" fill="#0284C7"/>
<path d="M84.5827 129L58.4709 104.856L58.4568 111.885L84.5827 136.233V129Z" fill="#0284C7"/>
<path d="M84.5827 142.765V138.634L58.4568 114.259V121.295L84.5827 145.862V144.83V142.765Z" fill="#0284C7"/>
<path d="M84.5828 71.1962L58.5002 48.3896L58.5457 55.5012L84.5828 78.4587V71.1962Z" fill="#0284C7"/>
<path d="M84.5828 80.8301L58.5002 57.8052V64.8718L84.5828 88.0878V80.8301Z" fill="#0284C7"/>
<path d="M58.5002 46.1333L84.5828 68.9125V62.2239L58.5002 39.6357V46.1333Z" fill="#0284C7"/>
<path d="M58.5001 46.1333L84.5826 68.9125V62.2239L58.5001 39.6357V46.1333Z" fill="#0284C7"/>
<path d="M100.051 57.5904L85.5828 61.7671V216L143.457 199.41V45.0603L128.988 49.237L114.52 53.4137L100.051 57.5904Z" fill="#0369A1"/>
<path d="M86.0826 71.4066V62.1431L142.957 45.7251V54.7071V64.354V74.0008V83.6476V93.2944V102.941V112.588V122.235V131.882V141.529V151.175V160.822V170.469V180.116V189.763V199.033L86.0826 215.337V206.36V196.721V187.081V177.442V167.802V158.163V148.523V138.883V129.244V119.604V109.965V100.325V90.6857V81.0461V71.4066Z" fill="#C2410C" stroke="#EA580C"/>
<path d="M86.5828 177.675V181.974V184.124V185.199L141.5 169.435V161.904L86.5828 177.675Z" fill="#0369A1"/>
<path d="M86.5828 62.519V66.5582V68.5778V69.5876L141.5 53.7405V46.6658L86.5828 62.519Z" fill="#0369A1"/>
<path d="M86.5828 71.6382V75.9377V78.0874V79.1623L141.5 63.322V55.7919L86.5828 71.6382Z" fill="#0369A1"/>
<path d="M86.5828 81.2779V85.5774V87.7271V88.802L141.5 72.9686V65.4385L86.5828 81.2779Z" fill="#0369A1"/>
<path d="M86.5828 90.9176V95.2171V97.3668V98.4417L141.5 82.6152V75.0851L86.5828 90.9176Z" fill="#0369A1"/>
<path d="M86.5828 100.557V104.857V107.007V108.081L141.5 92.2618V84.7316L86.5828 100.557Z" fill="#0369A1"/>
<path d="M86.5828 110.197V114.496V116.646V117.721L141.5 101.908V94.3782L86.5828 110.197Z" fill="#0369A1"/>
<path d="M86.5828 119.837V124.136V126.286V127.361L141.5 111.555V104.025L86.5828 119.837Z" fill="#0369A1"/>
<path d="M86.5828 129.476V133.776V135.926V137L141.5 121.202V113.671L86.5828 129.476Z" fill="#0369A1"/>
<path d="M86.5828 139.116V143.416V145.565V146.64L141.5 130.848V123.318L86.5828 139.116Z" fill="#0369A1"/>
<path d="M86.5828 148.756V153.055V155.205V156.28L141.5 140.495V132.964L86.5828 148.756Z" fill="#0369A1"/>
<path d="M86.5828 158.395V162.695V164.845V165.92L141.5 150.141V142.611L86.5828 158.395Z" fill="#0369A1"/>
<path d="M86.5828 168.035V172.335V174.484V175.559L141.5 159.788V152.258L86.5828 168.035Z" fill="#0369A1"/>
<path d="M86.5828 187.314V191.614V193.764V194.839L141.5 179.081V171.551L86.5828 187.314Z" fill="#0369A1"/>
<path d="M86.5828 196.954V201.254V203.403V204.478L141.5 188.728V181.197L86.5828 196.954Z" fill="#0369A1"/>
<path d="M86.5828 206.594V210.633V212.653V213.663L141.5 197.919V190.844L86.5828 206.594Z" fill="#0369A1"/>
<path d="M100.051 57.5903L85.5828 61.767L80.7599 57.5903L61.4686 40.8835L56.6458 36.7068L71.1143 32.5301L85.5828 28.3534L100.051 24.1767L114.52 20L119.343 24.1767L138.634 40.8835L143.457 45.0602L128.988 49.2369L114.52 53.4136L100.051 57.5903Z" fill="#F97316"/>
<path d="M87.3913 56.1565L62.0509 34.2111L112.404 19.344L138.031 41.538L87.3913 56.1565Z" fill="#57534E"/>
<path d="M96.8382 38.4102L90.4762 32.9005L103.091 29.207L109.471 34.7322L96.8382 38.4102Z" fill="#D4D4D4"/>
<path d="M111.001 8.66731L101.152 11.4251V3.54559L111.001 0.787842V8.66731Z" fill="#9333EA"/>
<path d="M109.425 0L99.576 2.75775L101.152 3.5457L111.001 0.787947L109.425 0Z" fill="#7E22CE"/>
<path fill-rule="evenodd" clip-rule="evenodd" d="M98.0002 2.75781H99.5761V32.9362C99.5762 32.9362 99.5762 32.9362 99.5762 32.9362V2.75781H101.152V34.1181V34.2757H101.138C101.036 34.854 100.375 35.3 99.5762 35.3C98.7771 35.3 98.1169 34.854 98.0142 34.2757H98.0002V2.75781Z" fill="#94A3B8"/>
<ellipse cx="99.576" cy="2.75785" rx="1.57589" ry="1.18192" fill="#CBD5E1"/>
<path d="M96.8382 42.41L90.4762 36.9003L90.4762 32.9004L96.8382 38.4101L109.471 34.7321L109.471 38.7321L96.8382 42.41Z" fill="#A3A3A3"/>
<path d="M87.3914 59.1564L62.051 37.2109V34.2109L87.3914 56.1564L138.031 41.5379V44.5379L87.3914 59.1564Z" fill="#404040"/>
<path d="M87.3912 59.1563L138.031 44.5378V41.5378L87.3912 56.1563V59.1563Z" fill="#262626"/>
<rect x="42.1249" y="179.12" width="2.88" height="19.56" fill="#713F12"/>
<circle cx="43.685" cy="171.56" r="10.56" fill="#84CC16"/>
<path d="M43.685 182.12C49.5172 182.12 54.245 177.392 54.245 171.56C54.245 167.983 52.4663 164.821 49.745 162.911C51.945 167.197 52.709 176.728 38.165 180.564C39.7713 181.551 41.6617 182.12 43.685 182.12Z" fill="#65A30D"/>
<ellipse cx="40.6673" cy="168.048" rx="3.22976" ry="4.28804" transform="rotate(36.3273 40.6673 168.048)" fill="#A3E635"/>
<circle cx="43.5649" cy="198.56" r="1.44" fill="#713F12"/>
<rect x="51.1249" y="186.12" width="2.88" height="19.56" fill="#713F12"/>
<circle cx="52.685" cy="178.56" r="10.56" fill="#84CC16"/>
<path d="M52.685 189.12C58.5172 189.12 63.245 184.392 63.245 178.56C63.245 174.983 61.4663 171.821 58.745 169.911C60.945 174.197 61.709 183.728 47.165 187.564C48.7713 188.551 50.6617 189.12 52.685 189.12Z" fill="#65A30D"/>
<ellipse cx="49.6673" cy="175.048" rx="3.22976" ry="4.28804" transform="rotate(36.3273 49.6673 175.048)" fill="#A3E635"/>
<circle cx="52.5649" cy="205.56" r="1.44" fill="#713F12"/>
<rect x="61.1249" y="195.12" width="2.88" height="19.56" fill="#713F12"/>
<circle cx="62.685" cy="187.56" r="10.56" fill="#84CC16"/>
<path d="M62.685 198.12C68.5172 198.12 73.245 193.392 73.245 187.56C73.245 183.983 71.4663 180.821 68.745 178.911C70.945 183.197 71.709 192.728 57.165 196.564C58.7713 197.551 60.6617 198.12 62.685 198.12Z" fill="#65A30D"/>
<ellipse cx="59.6673" cy="184.048" rx="3.22976" ry="4.28804" transform="rotate(36.3273 59.6673 184.048)" fill="#A3E635"/>
<circle cx="62.5649" cy="214.56" r="1.44" fill="#713F12"/>
<rect x="141" y="192.12" width="2.88" height="19.56" fill="#713F12"/>
<circle cx="142.56" cy="184.56" r="10.56" fill="#84CC16"/>
<path d="M142.56 195.12C148.392 195.12 153.12 190.392 153.12 184.56C153.12 180.983 151.341 177.821 148.62 175.911C150.82 180.197 151.584 189.728 137.04 193.564C138.646 194.551 140.537 195.12 142.56 195.12Z" fill="#65A30D"/>
<ellipse cx="139.542" cy="181.048" rx="3.22976" ry="4.28804" transform="rotate(36.3273 139.542 181.048)" fill="#A3E635"/>
<circle cx="142.44" cy="211.56" r="1.44" fill="#713F12"/>
<rect x="126" y="197.12" width="2.88" height="19.56" fill="#713F12"/>
<circle cx="127.56" cy="189.56" r="10.56" fill="#84CC16"/>
<path d="M127.56 200.12C133.392 200.12 138.12 195.392 138.12 189.56C138.12 185.983 136.341 182.821 133.62 180.911C135.82 185.197 136.584 194.728 122.04 198.564C123.646 199.551 125.537 200.12 127.56 200.12Z" fill="#65A30D"/>
<ellipse cx="124.542" cy="186.048" rx="3.22976" ry="4.28804" transform="rotate(36.3273 124.542 186.048)" fill="#A3E635"/>
<circle cx="127.44" cy="216.56" r="1.44" fill="#713F12"/>
<rect x="110" y="201.12" width="2.88" height="19.56" fill="#713F12"/>
<circle cx="111.56" cy="193.56" r="10.56" fill="#84CC16"/>
<path d="M111.56 204.12C117.392 204.12 122.12 199.392 122.12 193.56C122.12 189.983 120.341 186.821 117.62 184.911C119.82 189.197 120.584 198.728 106.04 202.564C107.646 203.551 109.537 204.12 111.56 204.12Z" fill="#65A30D"/>
<ellipse cx="108.542" cy="190.048" rx="3.22976" ry="4.28804" transform="rotate(36.3273 108.542 190.048)" fill="#A3E635"/>
<circle cx="111.44" cy="220.56" r="1.44" fill="#713F12"/>
</svg>
