<svg width="200" height="179" viewBox="0 0 200 179" fill="none" xmlns="http://www.w3.org/2000/svg">
<path d="M150 42.278L200 85.5793L150 128.881H50L0 85.5793L50 42.278H150Z" fill="#95A5A6"/>
<path d="M50 128.881L0 85.5793V135.578L50 178.878H150L200 135.578V85.5793L150 128.881H50Z" fill="#7F8C8D"/>
<path d="M127.113 54.957L127.113 120.739L142.101 105.622L142.101 39.9687L127.113 54.957Z" fill="#D35400"/>
<path d="M75.2781 24.9805L75.2781 90.7623L90.2664 75.6457L90.2664 42.8189L75.2781 24.9805Z" fill="#D35400"/>
<path d="M58 14.9883L58 80.7701L75.2781 90.7456L75.2781 57.8547C90.5469 54.6786 98.3105 57.8362 109.834 77.8058L109.834 110.697L127.113 120.672L127.113 54.8904L109.834 44.9149L92.5563 34.9393L75.2781 24.9638L58 14.9883Z" fill="#E67E22"/>
<path d="M142.101 39.9687L72.9883 0L58 14.9883L127.113 54.957L142.101 39.9687Z" fill="#F39C12"/>
</svg>
