
<svg width="200" height="183" viewBox="0 0 200 183" fill="none" xmlns="http://www.w3.org/2000/svg">
<path d="M50 144.883L0 101.581V139.08L50 182.381H150L200 139.08V101.581L150 144.883H50Z" fill="#A16207"/>
<path d="M200 101.581L150 144.883V182.381L200 139.08V101.581Z" fill="#713F12"/>
<path d="M150 144.883H50V182.381H150V144.883Z" fill="#854D0E"/>
<path d="M150 40.28L200 83.5813L150 126.883H50L0 83.5813L50 40.28H150Z" fill="#D4D4D4"/>
<path d="M55.75 45.28H143.25L187 83.28L143.25 121.28H55.75L12 83.28L55.75 45.28Z" fill="#22C55E"/>
<path d="M50 132.883L0 89.5813V83.5813L50 126.883H150L200 83.5813V89.5813L150 132.883H50Z" fill="#A3A3A3"/>
<path d="M200 89.5813L150 132.883V126.883L200 83.5813V89.5813Z" fill="#525252"/>
<path d="M150 132.883H50V126.883H150V132.883Z" fill="#737373"/>
<path d="M0 89.5813L50 132.883H150L200 89.5813V102.081L150 145.382H50L0 102.081V89.5813Z" fill="#16A34A"/>
<path d="M200 89.5813L150 132.883V145.382L200 102.081V89.5813Z" fill="#166534"/>
<path d="M150 132.883H50V145.382H150V132.883Z" fill="#15803D"/>
<path d="M139.059 43.7822L139.059 96.1881L151 84.1453L151 31.8416L139.059 43.7822Z" fill="#C2410C"/>
<path d="M97.7647 19.9013L97.7647 72.3072L109.705 60.2644L109.705 34.1125L97.7647 19.9013Z" fill="#C2410C"/>
<path d="M84 11.9407L84 64.3466L97.7649 72.2938L97.7649 46.0908C109.929 43.5605 116.114 46.076 125.295 61.9851L125.295 88.1881L139.059 96.1352L139.059 43.7292L125.295 35.7821L111.53 27.835L97.7649 19.8878L84 11.9407Z" fill="#EA580C"/>
<path d="M151 31.8416L95.9406 0L84 11.9406L139.059 43.7822L151 31.8416Z" fill="#F97316"/>
<rect x="85.8462" y="53.8369" width="3.47077" height="23.5723" fill="#713F12"/>
<circle cx="87.7262" cy="44.7262" r="12.7262" fill="#4D7C0F"/>
<path d="M87.7262 57.4523C94.7546 57.4523 100.452 51.7546 100.452 44.7262C100.452 40.4151 98.3087 36.6047 95.0292 34.3027C97.6805 39.4677 98.6012 50.9536 81.0739 55.5773C83.0095 56.7665 85.2878 57.4523 87.7262 57.4523Z" fill="#3F6212"/>
<ellipse cx="84.0894" cy="40.4937" rx="3.89228" ry="5.16764" transform="rotate(36.3273 84.0894 40.4937)" fill="#65A30D"/>
<circle cx="87.5816" cy="77.2647" r="1.73538" fill="#713F12"/>
<rect x="69.8462" y="61.8369" width="3.47077" height="23.5723" fill="#713F12"/>
<circle cx="71.7262" cy="52.7262" r="12.7262" fill="#4D7C0F"/>
<path d="M71.7262 65.4523C78.7546 65.4523 84.4523 59.7546 84.4523 52.7262C84.4523 48.4151 82.3087 44.6047 79.0292 42.3027C81.6805 47.4677 82.6012 58.9536 65.0739 63.5773C67.0095 64.7665 69.2878 65.4523 71.7262 65.4523Z" fill="#3F6212"/>
<ellipse cx="68.0894" cy="48.4937" rx="3.89228" ry="5.16764" transform="rotate(36.3273 68.0894 48.4937)" fill="#65A30D"/>
<circle cx="71.5816" cy="85.2647" r="1.73538" fill="#713F12"/>
<rect x="53.8462" y="69.8369" width="3.47077" height="23.5723" fill="#713F12"/>
<circle cx="55.7262" cy="60.7262" r="12.7262" fill="#4D7C0F"/>
<path d="M55.7262 73.4523C62.7546 73.4523 68.4523 67.7546 68.4523 60.7262C68.4523 56.4151 66.3087 52.6047 63.0292 50.3027C65.6805 55.4677 66.6012 66.9536 49.0739 71.5773C51.0095 72.7665 53.2878 73.4523 55.7262 73.4523Z" fill="#3F6212"/>
<ellipse cx="52.0894" cy="56.4937" rx="3.89228" ry="5.16764" transform="rotate(36.3273 52.0894 56.4937)" fill="#65A30D"/>
<circle cx="55.5816" cy="93.2647" r="1.73538" fill="#713F12"/>
<rect x="123.846" y="75.8369" width="3.47077" height="23.5723" fill="#713F12"/>
<circle cx="125.726" cy="66.7262" r="12.7262" fill="#4D7C0F"/>
<path d="M125.726 79.4523C132.755 79.4523 138.452 73.7546 138.452 66.7262C138.452 62.4151 136.309 58.6047 133.029 56.3027C135.681 61.4677 136.601 72.9536 119.074 77.5773C121.01 78.7665 123.288 79.4523 125.726 79.4523Z" fill="#3F6212"/>
<ellipse cx="122.089" cy="62.4937" rx="3.89228" ry="5.16764" transform="rotate(36.3273 122.089 62.4937)" fill="#65A30D"/>
<circle cx="125.582" cy="99.2647" r="1.73538" fill="#713F12"/>
<rect x="107.846" y="83.8369" width="3.47077" height="23.5723" fill="#713F12"/>
<circle cx="109.726" cy="74.7262" r="12.7262" fill="#4D7C0F"/>
<path d="M109.726 87.4523C116.755 87.4523 122.452 81.7546 122.452 74.7262C122.452 70.4151 120.309 66.6047 117.029 64.3027C119.681 69.4677 120.601 80.9536 103.074 85.5773C105.01 86.7665 107.288 87.4523 109.726 87.4523Z" fill="#3F6212"/>
<ellipse cx="106.089" cy="70.4937" rx="3.89228" ry="5.16764" transform="rotate(36.3273 106.089 70.4937)" fill="#65A30D"/>
<circle cx="109.582" cy="107.265" r="1.73538" fill="#713F12"/>
<rect x="91.8462" y="91.8369" width="3.47077" height="23.5723" fill="#713F12"/>
<circle cx="93.7262" cy="82.7262" r="12.7262" fill="#4D7C0F"/>
<path d="M93.7262 95.4523C100.755 95.4523 106.452 89.7546 106.452 82.7262C106.452 78.4151 104.309 74.6047 101.029 72.3027C103.681 77.4677 104.601 88.9536 87.0739 93.5773C89.0095 94.7665 91.2878 95.4523 93.7262 95.4523Z" fill="#3F6212"/>
<ellipse cx="90.0894" cy="78.4937" rx="3.89228" ry="5.16764" transform="rotate(36.3273 90.0894 78.4937)" fill="#65A30D"/>
<circle cx="93.5816" cy="115.265" r="1.73538" fill="#713F12"/>
</svg>
