
<svg width="200" height="172" viewBox="0 0 200 172" fill="none" xmlns="http://www.w3.org/2000/svg">
<path d="M50 133.603L0 90.3013V127.8L50 171.101H150L200 127.8V90.3013L150 133.603H50Z" fill="#A16207"/>
<path d="M200 90.3013L150 133.603V171.101L200 127.8V90.3013Z" fill="#713F12"/>
<path d="M150 133.603H50V171.101H150V133.603Z" fill="#854D0E"/>
<path d="M150 29L200 72.3013L150 115.603H50L0 72.3013L50 29H150Z" fill="#D4D4D4"/>
<path d="M50 115.603L0 72.3013V78.3013L50 121.603H150L200 78.3013V72.3013L150 115.603H50Z" fill="#A3A3A3"/>
<path d="M200 72.3013L150 115.603V121.603L200 78.3013V72.3013Z" fill="#525252"/>
<path d="M150 115.603H50V121.603H150V115.603Z" fill="#737373"/>
<path d="M143.25 34L187 72L143.25 110H55.75L12 72L55.75 34H143.25Z" fill="#22C55E"/>
<path d="M0 78.3013L50 121.603H150L200 78.3013V90.8009L150 134.102H50L0 90.8009V78.3013Z" fill="#16A34A"/>
<path d="M200 78.3013L150 121.603V134.102L200 90.8009V78.3013Z" fill="#166534"/>
<path d="M150 121.603H50V134.102H150V121.603Z" fill="#15803D"/>
<path d="M162.174 40.6648H166.032V63.7628L162.174 66.1966V40.6648Z" fill="#A16207"/>
<path d="M162.174 40.6648H158.317V63.7628L162.174 66.1966V40.6648Z" fill="#CA8A04"/>
<path d="M162.174 0.20874L174.105 55.3133H150.244L162.174 0.20874Z" fill="#15803D"/>
<path d="M162.22 0.0710449L150.318 55.3134L145 45.119L162.22 0.0710449Z" fill="#16A34A"/>
<path d="M162.174 0L174.077 55.2423L179.394 45.048L162.174 0Z" fill="#166534"/>
<path d="M58.0744 64.9466L118.409 99.7808L118.409 67.2688L58.0744 32.4346L58.0744 64.9466Z" fill="#FDE68A"/>
<path d="M58.0744 64.9466L118.409 99.7808L118.409 67.2688L58.0744 32.4346L58.0744 64.9466Z" fill="#FDE68A"/>
<path d="M118.406 67.269L118.406 99.7809L150.584 81.2027L150.584 48.6907L118.406 67.269Z" fill="#FCD34D"/>
<rect width="69.6685" height="37.1566" transform="matrix(0.866025 0.5 -0.866025 0.5 90.2976 13.8562)" fill="#C4C4C4"/>
<path d="M118.335 67.2689L58 32.4346L84 1L134.424 30.1123L150.513 48.6906L134.424 57.9797L118.335 67.2689Z" fill="#0891B2"/>
<path d="M150.558 48.6906L134.469 57.9797L118.379 67.2689L134.469 30.1123L150.558 48.6906Z" fill="#155E75"/>
<path d="M127.5 28.5L123 37L117 33V22.5L121.5 19L127.5 22.5V28.5Z" fill="#C2410C"/>
<path d="M121.5 19L127.5 22.5L123 26.5L117 22.5L121.5 19Z" fill="#EA580C"/>
<path d="M121.5 20L126 22.5L122.9 25.3L118.5 22.5L121.5 20Z" fill="#7C2D12"/>
<path d="M123 37L127.5 28.5V22.5L123 26.5V37Z" fill="#9A3412"/>
<rect width="13.4693" height="19.9716" transform="matrix(0.866025 0.5 -2.20305e-08 1 78.6862 56.865)" fill="#713F12"/>
<rect width="20.9006" height="15.3271" transform="matrix(0.866025 -0.5 2.20305e-08 1 126.525 71.6812)" fill="#F59E0B"/>
<path d="M126.525 71.6812L142.5 62.5L142.5 75.5L126.525 84.5V71.6812Z" fill="#0891B2"/>
<rect width="11.6114" height="11.6114" transform="matrix(0.866025 0.5 -2.20305e-08 1 99.1223 65.8755)" fill="#F59E0B"/>
<rect width="11.6114" height="11.6114" transform="matrix(0.866025 0.5 -2.20305e-08 1 64.2881 45.4395)" fill="#F59E0B"/>
<path d="M66 46.3999L74.3438 51.2449L74.3438 61.1339L66 56.4999L66 46.3999Z" fill="#0891B2"/>
<path d="M75.4543 76.5219C74.7937 77.844 73.4052 78.4896 72.3532 77.9639C71.3011 77.4382 70.9838 75.9402 71.6445 74.6181C72.3052 73.296 73.6936 72.6504 74.7456 73.1762C75.7977 73.7019 76.115 75.1998 75.4543 76.5219Z" fill="#FDBA74"/>
<path d="M71.6446 74.6182C71.0216 75.8648 71.2682 77.2678 72.1803 77.8646L62.8763 72.5193C61.8242 71.9936 61.5069 70.4956 62.1676 69.1735C62.8282 67.8515 64.2167 67.2059 65.2687 67.7316L74.7457 73.1762C73.6937 72.6505 72.3052 73.2961 71.6446 74.6182Z" fill="#713F12"/>
<path d="M70.543 77.6135C69.8823 78.9356 68.4939 79.5812 67.4418 79.0554C66.3898 78.5297 66.0725 77.0318 66.7331 75.7097C67.3938 74.3876 68.7822 73.742 69.8343 74.2677C70.8863 74.7934 71.2036 76.2914 70.543 77.6135Z" fill="#FDBA74"/>
<path d="M66.7332 75.7095C66.1102 76.9561 66.3568 78.3591 67.2689 78.9559L57.9649 73.6106C56.9128 73.0849 56.5955 71.5869 57.2562 70.2648C57.9168 68.9428 59.3053 68.2972 60.3573 68.8229L69.8343 74.2675C68.7823 73.7418 67.3938 74.3874 66.7332 75.7095Z" fill="#854D0E"/>
<path d="M65.6316 79.7963C64.971 81.1184 63.5826 81.764 62.5305 81.2383C61.4784 80.7126 61.1611 79.2146 61.8218 77.8925C62.4825 76.5704 63.8709 75.9249 64.9229 76.4506C65.975 76.9763 66.2923 78.4743 65.6316 79.7963Z" fill="#FED7AA"/>
<path d="M61.8217 77.8924C61.1988 79.139 61.4453 80.542 62.3575 81.1388L53.0534 75.7935C52.0014 75.2677 51.6841 73.7698 52.3448 72.4477C53.0054 71.1256 54.3938 70.48 55.4459 71.0058L64.9229 76.4504C63.8708 75.9247 62.4824 76.5703 61.8217 77.8924Z" fill="#713F12"/>
<path d="M72.1802 72.7019C71.5195 74.0239 70.1311 74.6695 69.079 74.1438C68.027 73.6181 67.7097 72.1201 68.3703 70.7981C69.031 69.476 70.4194 68.8304 71.4715 69.3561C72.5235 69.8818 72.8408 71.3798 72.1802 72.7019Z" fill="#FED7AA"/>
<path d="M68.3703 70.7981C67.7473 72.0447 67.9939 73.4477 68.906 74.0446L59.602 68.6992C58.5499 68.1735 58.2326 66.6756 58.8933 65.3535C59.5539 64.0314 60.9424 63.3858 61.9944 63.9115L71.4714 69.3562C70.4194 68.8304 69.0309 69.476 68.3703 70.7981Z" fill="#713F12"/>
<path d="M67.2687 74.8847C66.6081 76.2068 65.2196 76.8524 64.1676 76.3267C63.1155 75.801 62.7982 74.303 63.4589 72.9809C64.1195 71.6588 65.508 71.0132 66.56 71.539C67.6121 72.0647 67.9294 73.5626 67.2687 74.8847Z" fill="#FDBA74"/>
<path d="M63.4589 72.981C62.8359 74.2276 63.0825 75.6306 63.9947 76.2274L54.6906 70.8821C53.6385 70.3564 53.3212 68.8584 53.9819 67.5363C54.6426 66.2142 56.031 65.5687 57.083 66.0944L66.56 71.539C65.508 71.0133 64.1196 71.6589 63.4589 72.981Z" fill="#854D0E"/>
<path d="M68.9058 69.9733C68.2452 71.2954 66.8567 71.941 65.8047 71.4153C64.7526 70.8896 64.4353 69.3916 65.096 68.0695C65.7566 66.7474 67.1451 66.1019 68.1971 66.6276C69.2492 67.1533 69.5665 68.6513 68.9058 69.9733Z" fill="#FED7AA"/>
<path d="M65.096 68.0696C64.473 69.3162 64.7196 70.7192 65.6317 71.316L56.3277 65.9707C55.2756 65.445 54.9583 63.947 55.619 62.625C56.2796 61.3029 57.6681 60.6573 58.7201 61.183L68.1971 66.6276C67.1451 66.1019 65.7566 66.7475 65.096 68.0696Z" fill="#713F12"/>
<path d="M99.103 77.5994H103.618V104.636L99.103 107.485V77.5994Z" fill="#A16207"/>
<path d="M99.103 77.5994H94.5879V104.636L99.103 107.485V77.5994Z" fill="#CA8A04"/>
<path d="M99.103 30.2444L113.068 94.7458H85.138L99.103 30.2444Z" fill="#15803D"/>
<path d="M99.1567 30.0833L85.2248 94.746L79 82.8132L99.1567 30.0833Z" fill="#16A34A"/>
<path d="M99.103 30L113.035 94.6627L119.26 82.7299L99.103 30Z" fill="#166534"/>
<path d="M42.9037 49.4951H47.5986V77.6089L42.9037 80.5712V49.4951Z" fill="#A16207"/>
<path d="M42.9037 49.4951H38.2087V77.6089L42.9037 80.5712V49.4951Z" fill="#CA8A04"/>
<path d="M42.9036 0.25415L57.4248 67.3247H28.3824L42.9036 0.25415Z" fill="#15803D"/>
<path d="M42.9596 0.0864258L28.4727 67.3247L22 54.9166L42.9596 0.0864258Z" fill="#16A34A"/>
<path d="M42.9037 0L57.3905 67.2382L63.8632 54.8302L42.9037 0Z" fill="#166534"/>
</svg>
