<svg width="200" height="161" viewBox="0 0 200 161" fill="none" xmlns="http://www.w3.org/2000/svg">
<path d="M150 24L200 67.3013L150 110.603H50L0 67.3013L50 24H150Z" fill="#2ECC71"/>
<path d="M50 110.603L0 67.3013V117.3L50 160.6H150L200 117.3V67.3013L150 110.603H50Z" fill="#31BF61"/>
<path d="M56.0745 64.6685L116.409 99.5028L116.409 66.9908L56.0745 32.1566L56.0745 64.6685Z" fill="#CB8C88"/>
<path d="M116.406 66.9908L116.406 99.5028L148.584 80.9246L148.584 48.4126L116.406 66.9908Z" fill="#FFD568"/>
<rect width="69.6685" height="37.1566" transform="matrix(0.866025 0.5 -0.866025 0.5 88.2976 13.5783)" fill="#C4C4C4"/>
<path d="M116.335 66.9908L56 32.1566L82 0.72197L132.424 29.8343L148.513 48.4126L132.424 57.7017L116.335 66.9908Z" fill="#FF8888"/>
<path d="M148.558 48.4126L132.469 57.7017L116.379 66.9908L132.469 29.8343L148.558 48.4126Z" fill="#FF6060"/>
<rect width="13.4693" height="19.9716" transform="matrix(0.866025 0.5 -2.20305e-08 1 76.6862 56.587)" fill="#AA7751"/>
<rect width="20.9006" height="15.3271" transform="matrix(0.866025 -0.5 2.20305e-08 1 124.525 71.4032)" fill="#3498DB"/>
<rect width="11.6114" height="11.6114" transform="matrix(0.866025 0.5 -2.20305e-08 1 97.1223 65.5975)" fill="#3498DB"/>
<rect width="11.6114" height="11.6114" transform="matrix(0.866025 0.5 -2.20305e-08 1 62.2881 45.1614)" fill="#3498DB"/>
</svg>
