
<svg width="200" height="137" viewBox="0 0 200 137" fill="none" xmlns="http://www.w3.org/2000/svg">
<path d="M150 12L200 55.3013L150 98.6026H50L0 55.3013L50 12H150Z" fill="#22C55E"/>
<path d="M50 98.6026L0 55.3013V92.8003L50 136.101H150L200 92.8003V55.3013L150 98.6026H50Z" fill="#A16207"/>
<path d="M200 55.3013L150 98.6026V136.101L200 92.8003V55.3013Z" fill="#713F12"/>
<path d="M150 98.6025H50V136.101H150V98.6025Z" fill="#854D0E"/>
<path d="M150 0L200 43.3013L150 86.6026H50L0 43.3013L50 0H150Z" fill="#22C55E"/>
<path d="M181.25 53.5392L178.125 56.2456L28.125 12.9443L31.25 10.2379L34.375 7.53162L184.375 50.8329L181.25 53.5392Z" fill="#9CA3AF"/>
<path d="M181.25 59.5393L178.125 62.2457L28.125 18.9444V12.9443L178.125 56.2456L181.25 53.5393L184.375 50.833V56.833L181.25 59.5393Z" fill="#6B7280"/>
<path d="M171.875 61.6582L168.75 64.3646L165.625 67.0709L15.625 23.7696L18.75 21.0633L21.875 18.3569L171.875 61.6582Z" fill="#9CA3AF"/>
<path d="M171.875 67.6583L168.75 70.3647L165.625 73.071L15.625 29.7697V23.7697L165.625 67.071L168.75 64.3646L171.875 61.6583V67.6583Z" fill="#6B7280"/>
<path d="M0 43.3013L50 86.6026H150L200 43.3013V55.8009L150 99.1019H50L0 55.8009V43.3013Z" fill="#16A34A"/>
<path d="M200 43.3013L150 86.6026V99.1019L200 55.8009V43.3013Z" fill="#166534"/>
<path d="M150 86.6025H50V99.1019H150V86.6025Z" fill="#15803D"/>
</svg>
