
<svg width="200" height="137" viewBox="0 0 200 137" fill="none" xmlns="http://www.w3.org/2000/svg">
<path d="M50 12L0 55.3013L50 98.6026H150L200 55.3013L150 12H50Z" fill="#22C55E"/>
<path d="M150 98.6026L200 55.3013V92.8003L150 136.101H50L0 92.8003V55.3013L50 98.6026H150Z" fill="#713F12"/>
<path d="M0 55.3013L50 98.6026V136.101L0 92.8003V55.3013Z" fill="#A16207"/>
<path d="M50 98.6025H150V136.101H50V98.6025Z" fill="#854D0E"/>
<path d="M50 0L0 43.3013L50 86.6026H150L200 43.3013L150 0H50Z" fill="#22C55E"/>
<path d="M28.125 67.6583L31.25 70.3646L34.375 73.0709L184.375 29.7696V23.7696L34.375 67.0709L31.25 64.3646L28.125 61.6582V67.6583Z" fill="#6B7280"/>
<path d="M18.75 59.5393L21.875 62.2456L171.875 18.9443V12.9443L21.875 56.2456L18.75 53.5392L15.625 50.8329V56.833L18.75 59.5393Z" fill="#6B7280"/>
<path d="M25 15.6506L12.5 26.476L162.5 69.7773L175 58.9519L187.5 48.1266L37.5 4.82532L25 15.6506Z" fill="#78716C"/>
<path d="M69.0002 48.65V42.65L81.3003 46.3L71.0002 49.3L69.0002 48.65Z" fill="#44403C"/>
<path d="M12.5 32.476V26.476L61 40.4767L55.8845 45L12.5 32.476Z" fill="#44403C"/>
<path d="M162.5 75.7772L175 64.9519L187.5 54.1266V48.1266L175 58.9519L162.5 69.7772L93.9896 50V56L162.5 75.7772Z" fill="#44403C"/>
<path d="M18.75 53.5392L21.875 56.2456L171.875 12.9443L168.75 10.2379L165.625 7.53162L15.625 50.8329L18.75 53.5392Z" fill="#9CA3AF"/>
<path d="M28.125 61.6582L31.25 64.3646L34.375 67.0709L184.375 23.7696L181.25 21.0633L178.125 18.3569L28.125 61.6582Z" fill="#9CA3AF"/>
<path d="M200 43.3013L150 86.6026H50L0 43.3013V55.8009L50 99.1019H150L200 55.8009V43.3013Z" fill="#166534"/>
<path d="M0 43.3013L50 86.6026V99.1019L0 55.8009V43.3013Z" fill="#16A34A"/>
<path d="M50 86.6025H150V99.1019H50V86.6025Z" fill="#15803D"/>
</svg>
