<svg width="200" height="139" viewBox="0 0 200 139" fill="none" xmlns="http://www.w3.org/2000/svg">
<path d="M150 2L200 45.3013L150 88.6026H50L0 45.3013L50 2H150Z" fill="#2ECC71"/>
<path d="M50 88.6026L0 45.3013V95.3L50 138.6H150L200 95.3V45.3013L150 88.6026H50Z" fill="#31BF61"/>
<path d="M112 86.6V0H103.25V86.6H112Z" fill="#C4C4C4"/>
<path d="M89 0V86.6H97.75V0H89Z" fill="#C4C4C4"/>
<path d="M112 88.5V86.5H103.25V88.5H112Z" fill="#414040"/>
<path d="M89 86.5V88.5H97.75V86.5H89Z" fill="#414040"/>
<path fill-rule="evenodd" clip-rule="evenodd" d="M89 23.355L39.5 9L14.5 30.65V32.6507L89 54.157V23.355ZM97.75 56.6829V25.8925L103.25 27.4875V58.2706L97.75 56.6829ZM164.5 75.952L112 60.7965V30.025L189.5 52.5V54.3013L164.5 75.952Z" fill="#414040"/>
<path fill-rule="evenodd" clip-rule="evenodd" d="M89 23.2894L39.5 9L14.5 30.6507L89 52.157V23.2894ZM97.75 54.6829V25.8153L103.25 27.4031V56.2706L97.75 54.6829ZM164.5 73.952L112 58.7965V29.929L189.5 52.3013L164.5 73.952Z" fill="#6C6C6C"/>
</svg>
