
<svg width="200" height="143" viewBox="0 0 200 143" fill="none" xmlns="http://www.w3.org/2000/svg">
<path d="M50 18L0 61.3013L50 104.603H150L200 61.3013L150 18H50Z" fill="#22C55E"/>
<path d="M150 104.603L200 61.3013V98.8003L150 142.101H50L0 98.8003V61.3013L50 104.603H150Z" fill="#713F12"/>
<path d="M0 61.3013L50 104.603V142.101L0 98.8003V61.3013Z" fill="#A16207"/>
<path d="M50 104.603H150V142.101H50V104.603Z" fill="#854D0E"/>
<path d="M50 6L0 49.3013L50 92.6026H150L200 49.3013L150 6H50Z" fill="#22C55E"/>
<path d="M25 21.6507L12.5 32.476L162.5 75.7773L175 64.952L187.5 54.1266L37 11.2584L25 21.6507Z" fill="#78716C"/>
<path d="M162.5 81.7773L175 70.952L187.5 60.1266V54.1267L175 64.952L162.5 75.7773L12.5 32.476V38.476L162.5 81.7773Z" fill="#44403C"/>
<path d="M93.75 6H87.5H81.25V92.6026H87.5H93.75V6Z" fill="#6B7280"/>
<path d="M112.5 6H106.25V92.6026H112.5H118.75V6H112.5Z" fill="#6B7280"/>
<path d="M93.75 0H87.5H81.25V86.6026H87.5H93.75V0Z" fill="#9CA3AF"/>
<path d="M112.5 0H106.25V86.6026H112.5H118.75V0H112.5Z" fill="#9CA3AF"/>
<path d="M200 49.3013L150 92.6026H50L0 49.3013V61.8009L50 105.102H150L200 61.8009V49.3013Z" fill="#166534"/>
<path d="M0 49.3013L50 92.6026V105.102L0 61.8009V49.3013Z" fill="#16A34A"/>
<path d="M50 92.6025H150V105.102H50V92.6025Z" fill="#15803D"/>
</svg>
