<svg width="200" height="139" viewBox="0 0 200 139" fill="none" xmlns="http://www.w3.org/2000/svg">
<path d="M50 2L0 45.3013L50 88.6026H150L200 45.3013L150 2H50Z" fill="#2ECC71"/>
<path d="M150 88.6026L200 45.3013V95.3L150 138.6H50L0 95.3V45.3013L50 88.6026H150Z" fill="#31BF61"/>
<path d="M88 86.6V0H96.75V86.6H88Z" fill="#C4C4C4"/>
<path d="M111 0V86.6H102.25V0H111Z" fill="#C4C4C4"/>
<path d="M88 88.5V86.5H96.75V88.5H88Z" fill="#414040"/>
<path d="M111 86.5V88.5H102.25V86.5H111Z" fill="#414040"/>
<path fill-rule="evenodd" clip-rule="evenodd" d="M111 23.355L160.5 9L185.5 30.65V32.6507L111 54.157V23.355ZM102.25 56.6829V25.8925L96.75 27.4875V58.2706L102.25 56.6829ZM35.5 75.952L88 60.7965V30.025L10.5 52.5V54.3013L35.5 75.952Z" fill="#414040"/>
<path fill-rule="evenodd" clip-rule="evenodd" d="M111 23.2894L160.5 9L185.5 30.6507L111 52.157V23.2894ZM102.25 54.6829V25.8153L96.75 27.4031V56.2706L102.25 54.6829ZM35.5 73.952L88 58.7965V29.929L10.5 52.3013L35.5 73.952Z" fill="#6C6C6C"/>
</svg>
