<svg width="200" height="137" viewBox="0 0 200 137" fill="none" xmlns="http://www.w3.org/2000/svg">
<path d="M50 0L0 43.3013L50 86.6026H150L200 43.3013L150 0H50Z" fill="#2ECC71"/>
<path d="M150 86.6026L200 43.3013V93.3L150 136.6H50L0 93.3V43.3013L50 86.6026H150Z" fill="#31BF61"/>
<path d="M185.559 54V55.8013L179.309 61.214L29.3496 17.8778L29.2998 15.9208L35.5594 10.5L185.559 54Z" fill="#414040"/>
<path d="M185.56 53.8013L35.5596 10.5L29.3096 15.9127L179.31 59.214L185.56 53.8013Z" fill="#C4C4C4"/>
<path d="M169.5 69.714L19.5 26.4127V24.412L25.731 19.016L175.75 62.262V64.3013L169.5 69.714Z" fill="#414040"/>
<path d="M169.5 67.714L19.5 24.4127L25.75 19L175.75 62.3013L169.5 67.714Z" fill="#C4C4C4"/>
<path fill-rule="evenodd" clip-rule="evenodd" d="M125.805 47.8833L132.932 45.8258L79.6532 30.4456L72.5422 32.5078L125.805 47.8833ZM113.305 51.4917L35.5 73.952L10.5 52.3013V50.5L60.0708 36.1245L113.305 51.4917ZM92.1246 26.8289L145.432 42.2173L185.5 30.6507V28.65L160.5 7L92.1246 26.8289Z" fill="#414040"/>
<path fill-rule="evenodd" clip-rule="evenodd" d="M122.34 46.8833L129.468 44.8258L79.4677 30.392L72.3404 32.4495L122.34 46.8833ZM109.84 50.4917L35.5 71.952L10.5 50.3013L59.8404 36.0579L109.84 50.4917ZM91.9677 26.7836L141.968 41.2173L185.5 28.6507L160.5 7L91.9677 26.7836Z" fill="#6C6C6C"/>
</svg>
