<svg width="200" height="137" viewBox="0 0 200 137" fill="none" xmlns="http://www.w3.org/2000/svg">
<path d="M150 0L200 43.3013L150 86.6026H50L0 43.3013L50 0H150Z" fill="#2ECC71"/>
<path d="M185.55 53.8V55.8222L179.37 61.174L119.393 43.8889C106.723 40.2373 93.2783 40.2388 80.6086 43.8933L20.6467 61.1885L14.4502 55.8222V53.8L81.0925 35.1043C93.4589 31.6351 106.541 31.6351 118.908 35.1043L185.55 53.8Z" fill="#414040"/>
<path d="M20.668 59.2102L14.4209 53.8L83.4786 34.0298C94.2757 30.9387 105.724 30.9401 116.52 34.0338L185.559 53.8168L179.334 59.2079L116.981 40.8102C105.896 37.5398 94.1035 37.54 83.0194 40.8108L20.668 59.2102Z" fill="#C4C4C4"/>
<path d="M169.54 69.6869L119.715 55.0799C106.843 51.3062 93.1579 51.3105 80.2881 55.0921L30.5 69.7219L24.25 64.3093V62.3L81.7139 46.7487C93.6892 43.5078 106.311 43.5078 118.286 46.7487L175.75 62.3V64.3093L169.54 69.6869Z" fill="#414040"/>
<path d="M79.8193 52.8759L30.4999 67.7248L24.2358 62.3L80.0719 45.7181C93.0765 41.856 106.923 41.856 119.928 45.7181L175.764 62.3L169.5 67.7248L120.18 52.8759C107.019 48.9131 92.9813 48.9131 79.8193 52.8759Z" fill="#C4C4C4"/>
<path d="M50 86.6026L0 43.3013V93.3L50 136.6H150L200 93.3V43.3013L150 86.6026H50Z" fill="#31BF61"/>
</svg>
