<svg width="200" height="139" viewBox="0 0 200 139" fill="none" xmlns="http://www.w3.org/2000/svg">
<path d="M150 2L200 45.3013L150 88.6026H50L0 45.3013L50 2H150Z" fill="#2ECC71"/>
<path d="M50 88.6026L0 45.3013V95.3L50 138.6H150L200 95.3V45.3013L150 88.6026H50Z" fill="#31BF61"/>
<path d="M185.559 56V57.8013L179.309 63.214L29.3496 19.8778L29.2998 17.9208L35.5594 12.5L185.559 56Z" fill="#414040"/>
<path d="M185.56 55.8013L35.5596 12.5L29.3096 17.9127L179.31 61.214L185.56 55.8013Z" fill="#C4C4C4"/>
<path d="M169.5 71.714L19.5 28.4127V26.412L25.731 21.016L175.75 64.262V66.3013L169.5 71.714Z" fill="#414040"/>
<path d="M169.5 69.714L19.5 26.4127L25.75 21L175.75 64.3013L169.5 69.714Z" fill="#C4C4C4"/>
<path d="M117 86.5H82V88.5H117V86.5Z" fill="#414040"/>
<path fill-rule="evenodd" clip-rule="evenodd" d="M117 0H82V25.9062L117 36.0098V0ZM117 43.2267V47.3416L82 37.238V33.1231L117 43.2267ZM117 54.5585L82 44.4549V86.6H117V54.5585Z" fill="#6C6C6C"/>
</svg>
