
<svg width="200" height="137" viewBox="0 0 200 137" fill="none" xmlns="http://www.w3.org/2000/svg">
<path d="M150 12L200 55.3013L150 98.6026H50L0 55.3013L50 12H150Z" fill="#22C55E"/>
<path d="M50 98.6026L0 55.3013V92.8003L50 136.101H150L200 92.8003V55.3013L150 98.6026H50Z" fill="#A16207"/>
<path d="M200 55.3013L150 98.6026V136.101L200 92.8003V55.3013Z" fill="#713F12"/>
<path d="M150 98.6025H50V136.101H150V98.6025Z" fill="#854D0E"/>
<path d="M150 0L200 43.3013L150 86.6026H50L0 43.3013L50 0H150Z" fill="#22C55E"/>
<path d="M106.25 45.2579V86.6026H118.75V35.6494C118.75 33.4221 117.277 31.4633 115.137 30.8455L34.375 7.53162L28.125 12.9443V18.9443L102.637 40.454C104.777 41.0718 106.25 43.0305 106.25 45.2579Z" fill="#6B7280"/>
<path d="M106.25 39.2578V80.6026H118.75V35.6494C118.75 33.4221 117.277 31.4633 115.137 30.8455L34.375 7.53162L28.125 12.9443L102.637 34.454C104.777 35.0717 106.25 37.0305 106.25 39.2578Z" fill="#9CA3AF"/>
<path d="M15.625 29.7696L77.6368 47.6709C79.7767 48.2887 81.25 50.2474 81.25 52.4747V86.6026H93.75V45.1055L21.875 24.357V18.3569L15.625 23.7696V29.7696Z" fill="#6B7280"/>
<path d="M77.6368 41.6709L15.625 23.7696L21.875 18.3569L90.1367 38.0624C92.2767 38.6802 93.75 40.6389 93.75 42.8663V80.6026H81.25V46.4747C81.25 44.2474 79.7767 42.2886 77.6368 41.6709Z" fill="#9CA3AF"/>
<path d="M0 43.3013L50 86.6026H150L200 43.3013V55.8009L150 99.1019H50L0 55.8009V43.3013Z" fill="#16A34A"/>
<path d="M200 43.3013L150 86.6026V99.1019L200 55.8009V43.3013Z" fill="#166534"/>
<path d="M150 86.6025H50V99.1019H150V86.6025Z" fill="#15803D"/>
</svg>
