<svg width="200" height="137" viewBox="0 0 200 137" fill="none" xmlns="http://www.w3.org/2000/svg">
<path d="M150 0L200 43.3013L150 86.6026H50L0 43.3013L50 0H150Z" fill="#2ECC71"/>
<path d="M50 86.6026L0 43.3013V93.3L50 136.6H150L200 93.3V43.3013L150 86.6026H50Z" fill="#31BF61"/>
<path d="M14.4406 54V55.8013L20.6906 61.214L170.65 17.8778L170.7 15.9208L164.441 10.5L14.4406 54Z" fill="#414040"/>
<path d="M14.4404 53.8013L164.44 10.5L170.69 15.9127L20.6904 59.214L14.4404 53.8013Z" fill="#C4C4C4"/>
<path d="M30.5 69.714L180.5 26.4127V24.412L174.269 19.016L24.25 62.262V64.3013L30.5 69.714Z" fill="#414040"/>
<path d="M30.5 67.714L180.5 24.4127L174.25 19L24.25 62.3013L30.5 67.714Z" fill="#C4C4C4"/>
<path fill-rule="evenodd" clip-rule="evenodd" d="M74.1955 47.8833L67.0682 45.8258L120.347 30.4456L127.458 32.5078L74.1955 47.8833ZM86.6955 51.4917L164.5 73.952L189.5 52.3013V50.5L139.929 36.1245L86.6955 51.4917ZM107.875 26.8289L54.5682 42.2173L14.5 30.6507V28.65L39.5 7L107.875 26.8289Z" fill="#414040"/>
<path fill-rule="evenodd" clip-rule="evenodd" d="M77.6596 46.8833L70.5323 44.8258L120.532 30.392L127.66 32.4495L77.6596 46.8833ZM90.1596 50.4917L164.5 71.952L189.5 50.3013L140.16 36.0579L90.1596 50.4917ZM108.032 26.7836L58.0323 41.2173L14.5 28.6507L39.5 7L108.032 26.7836Z" fill="#6C6C6C"/>
</svg>
