
<svg width="200" height="143" viewBox="0 0 200 143" fill="none" xmlns="http://www.w3.org/2000/svg">
<path d="M50 18L0 61.3013L50 104.603H150L200 61.3013L150 18H50Z" fill="#22C55E"/>
<path d="M150 104.603L200 61.3013V98.8003L150 142.101H50L0 98.8003V61.3013L50 104.603H150Z" fill="#713F12"/>
<path d="M0 61.3013L50 104.603V142.101L0 98.8003V61.3013Z" fill="#A16207"/>
<path d="M50 104.603H150V142.101H50V104.603Z" fill="#854D0E"/>
<path d="M50 6L0 49.3013L50 92.6026H150L200 49.3013L150 6H50Z" fill="#22C55E"/>
<path d="M168.75 76.3646L171.875 73.6583V67.6583L93.75 45.1055V0H87.5H81.25V50.9532C81.25 53.1805 82.7233 55.1393 84.8632 55.757L87.5 56.5182L93.75 58.3224L165.625 79.0709L168.75 76.3646Z" fill="#6B7280"/>
<path d="M93.75 0H87.5H81.25V44.9532C81.25 47.1805 82.7233 49.1393 84.8633 49.757L165.625 73.0709L168.75 70.3646L171.875 67.6583L97.3632 46.1486C95.2233 45.5308 93.75 43.5721 93.75 41.3447V0Z" fill="#9CA3AF"/>
<path d="M184.375 56.8329V62.8329L178.125 68.2456L109.863 48.5401C107.723 47.9224 106.25 45.9636 106.25 43.7363V41.4971V0.5H118.5L117 38L184.375 56.8329Z" fill="#6B7280"/>
<path d="M112.5 0H106.25V37.7363C106.25 39.9636 107.723 41.9224 109.863 42.5401L178.125 62.2456L181.25 59.5393L184.375 56.833L122.363 38.9317C120.223 38.3139 118.75 36.3552 118.75 34.1278V0H112.5Z" fill="#9CA3AF"/>
<path d="M200 49.3013L150 92.6026H50L0 49.3013V61.8009L50 105.102H150L200 61.8009V49.3013Z" fill="#166534"/>
<path d="M0 49.3013L50 92.6026V105.102L0 61.8009V49.3013Z" fill="#16A34A"/>
<path d="M50 92.6025H150V105.102H50V92.6025Z" fill="#15803D"/>
</svg>
