
<svg width="200" height="143" viewBox="0 0 200 143" fill="none" xmlns="http://www.w3.org/2000/svg">
<path d="M150 18L200 61.3013L150 104.603H50L0 61.3013L50 18H150Z" fill="#22C55E"/>
<path d="M50 104.603L0 61.3013V98.8003L50 142.101H150L200 98.8003V61.3013L150 104.603H50Z" fill="#A16207"/>
<path d="M200 61.3013L150 104.603V142.101L200 98.8003V61.3013Z" fill="#713F12"/>
<path d="M150 104.603H50V142.101H150V104.603Z" fill="#854D0E"/>
<path d="M150 6L200 49.3013L150 92.6026H50L0 49.3013L50 6H150Z" fill="#22C55E"/>
<path d="M31.25 76.3646L28.125 73.6583V67.6583L106.25 45.1055V0H112.5H118.75V50.9532C118.75 53.1805 117.277 55.1393 115.137 55.757L112.5 56.5182L106.25 58.3224L34.375 79.0709L31.25 76.3646Z" fill="#6B7280"/>
<path d="M106.25 0H112.5H118.75V44.9532C118.75 47.1805 117.277 49.1393 115.137 49.757L34.375 73.0709L31.25 70.3646L28.125 67.6583L102.637 46.1486C104.777 45.5308 106.25 43.5721 106.25 41.3447V0Z" fill="#9CA3AF"/>
<path d="M15.625 56.8329V62.8329L21.875 68.2456L90.1368 48.5401C92.2767 47.9224 93.75 45.9636 93.75 43.7363V41.4971V0.5H81.5L83 38L15.625 56.8329Z" fill="#6B7280"/>
<path d="M87.5 0H93.75V37.7363C93.75 39.9636 92.2767 41.9224 90.1367 42.5401L21.875 62.2456L18.75 59.5393L15.625 56.833L77.6368 38.9317C79.7767 38.3139 81.25 36.3552 81.25 34.1278V0H87.5Z" fill="#9CA3AF"/>
<path d="M0 49.3013L50 92.6026H150L200 49.3013V61.8009L150 105.102H50L0 61.8009V49.3013Z" fill="#16A34A"/>
<path d="M200 49.3013L150 92.6026V105.102L200 61.8009V49.3013Z" fill="#166534"/>
<path d="M150 92.6025H50V105.102H150V92.6025Z" fill="#15803D"/>
</svg>
