<svg width="200" height="137" viewBox="0 0 200 137" fill="none" xmlns="http://www.w3.org/2000/svg">
<path d="M150 0L200 43.3013L150 86.6026H50L0 43.3013L50 0H150Z" fill="#2ECC71"/>
<path d="M50 86.6026L0 43.3013V93.3L50 136.6H150L200 93.3V43.3013L150 86.6026H50Z" fill="#31BF61"/>
<path d="M185.559 54V55.8013L179.309 61.214L29.3496 17.8778L29.2998 15.9208L35.5594 10.5L185.559 54Z" fill="#414040"/>
<path d="M185.56 53.8013L35.5596 10.5L29.3096 15.9127L179.31 59.214L185.56 53.8013Z" fill="#C4C4C4"/>
<path d="M169.5 69.714L19.5 26.4127V24.412L25.731 19.016L175.75 62.262V64.3013L169.5 69.714Z" fill="#414040"/>
<path d="M169.5 67.714L19.5 24.4127L25.75 19L175.75 62.3013L169.5 67.714Z" fill="#C4C4C4"/>
</svg>
