<svg width="200" height="137" viewBox="0 0 200 137" fill="none" xmlns="http://www.w3.org/2000/svg">
<path d="M50 0L0 43.3013L50 86.6026H150L200 43.3013L150 0H50Z" fill="#2ECC71"/>
<path d="M112 86.6H103.265V84.6C103.265 67.5116 110.87 51.8009 123.288 41.2041C129.23 36.134 136.274 32.2346 144.115 29.9151L174.25 21V19L180.5 24.5V26.4L148.007 36.1716C126.633 42.5995 112 62.28 112 84.6V86.6Z" fill="#414040"/>
<path d="M150 86.6026L200 43.3013V93.3L150 136.6H50L0 93.3V43.3013L50 86.6026H150Z" fill="#31BF61"/>
<path d="M103.262 84.6H112C111.408 61.766 126.061 41.3193 147.873 34.5401L180.5 24.4L174.25 19L141.497 29.8799C118.059 37.6654 102.513 59.9144 103.262 84.6Z" fill="#C4C4C4"/>
<path d="M89 86.6H97.75C96.7283 57.643 116.012 31.8831 144.084 24.7054L170.7 17.9L164.45 12.5L141.186 18.6346C111.14 26.5573 89.9138 53.3379 89.0605 84.3985L89 86.6Z" fill="#414040"/>
<path d="M89 84.6H97.75C96.7242 56.4064 115.202 31.2012 142.398 23.6964L170.65 15.9L164.5 10.5L134.331 20.0371C106.389 28.8706 87.8193 55.318 89 84.6Z" fill="#C4C4C4"/>
</svg>
