
<svg width="200" height="137" viewBox="0 0 200 137" fill="none" xmlns="http://www.w3.org/2000/svg">
<path d="M150 12L200 55.3013L150 98.6026H50L0 55.3013L50 12H150Z" fill="#22C55E"/>
<path d="M50 98.6026L0 55.3013V92.8003L50 136.101H150L200 92.8003V55.3013L150 98.6026H50Z" fill="#A16207"/>
<path d="M200 55.3013L150 98.6026V136.101L200 92.8003V55.3013Z" fill="#713F12"/>
<path d="M150 98.6025H50V136.101H150V98.6025Z" fill="#854D0E"/>
<path d="M150 0L200 43.3013L150 86.6026H50L0 43.3013L50 0H150Z" fill="#22C55E"/>
<path d="M184.375 29.7696L102.773 53.326C100.961 53.8491 99.0385 53.8491 97.2265 53.326L15.625 29.7696V23.7696L21.875 18.3569L100 40.9097L178.125 18.3569L184.375 23.7696V29.7696Z" fill="#6B7280"/>
<path d="M18.75 21.0633L21.875 18.3569L97.2265 40.1091C99.0385 40.6321 100.961 40.6321 102.773 40.1091L178.125 18.3569L181.25 21.0633L184.375 23.7696L102.773 47.3259C100.961 47.849 99.0385 47.849 97.2265 47.3259L15.625 23.7696L18.75 21.0633Z" fill="#9CA3AF"/>
<path d="M171.875 18.9443L101.022 38.4543C99.2441 38.9439 97.3654 38.9323 95.5937 38.4209L28.125 18.9443V12.9443L34.375 7.53162L98.8971 26.1575L165.625 7.53162L171.875 12.9443V18.9443Z" fill="#6B7280"/>
<path d="M31.25 10.2379L34.375 7.53162L96.1694 25.3701C97.9526 25.8849 99.8439 25.8933 101.632 25.3943L165.625 7.53162L168.75 10.2379L171.875 12.9443L101.022 32.4543C99.2441 32.9439 97.3654 32.9323 95.5937 32.4208L28.125 12.9443L31.25 10.2379Z" fill="#9CA3AF"/>
<path d="M0 43.3013L50 86.6026H150L200 43.3013V55.8009L150 99.1019H50L0 55.8009V43.3013Z" fill="#16A34A"/>
<path d="M200 43.3013L150 86.6026V99.1019L200 55.8009V43.3013Z" fill="#166534"/>
<path d="M150 86.6025H50V99.1019H150V86.6025Z" fill="#15803D"/>
</svg>
