<svg width="200" height="137" viewBox="0 0 200 137" fill="none" xmlns="http://www.w3.org/2000/svg">
<path d="M150 0L200 43.3013L150 86.6026H50L0 43.3013L50 0H150Z" fill="#2ECC71"/>
<path d="M88 86.6H96.7354V84.6C96.7354 67.5116 89.1304 51.8009 76.7116 41.2041C70.7697 36.134 63.7257 32.2346 55.8854 29.9151L25.75 21V19L19.5 24.5V26.4L51.993 36.1716C73.3674 42.5995 88 62.28 88 84.6V86.6Z" fill="#414040"/>
<path d="M50 86.6026L0 43.3013V93.3L50 136.6H150L200 93.3V43.3013L150 86.6026H50Z" fill="#31BF61"/>
<path d="M96.7383 84.6H88C88.5916 61.766 73.9393 41.3193 52.1268 34.5401L19.5 24.4L25.75 19L58.503 29.8799C81.9407 37.6654 97.487 59.9144 96.7383 84.6Z" fill="#C4C4C4"/>
<path d="M111 86.6H102.25C103.272 57.643 83.988 31.8831 55.9161 24.7054L29.3 17.9L35.55 12.5L58.8142 18.6346C88.8596 26.5573 110.086 53.3379 110.94 84.3985L111 86.6Z" fill="#414040"/>
<path d="M111 84.6H102.25C103.276 56.4064 84.7982 31.2012 57.6024 23.6964L29.35 15.9L35.5 10.5L65.6685 20.0371C93.6112 28.8706 112.181 55.318 111 84.6Z" fill="#C4C4C4"/>
</svg>
