
<svg width="200" height="143" viewBox="0 0 200 143" fill="none" xmlns="http://www.w3.org/2000/svg">
<path d="M50 18L0 61.3013L50 104.603H150L200 61.3013L150 18H50Z" fill="#22C55E"/>
<path d="M150 104.603L200 61.3013V98.8003L150 142.101H50L0 98.8003V61.3013L50 104.603H150Z" fill="#713F12"/>
<path d="M0 61.3013L50 104.603V142.101L0 98.8003V61.3013Z" fill="#A16207"/>
<path d="M50 104.603H150V142.101H50V104.603Z" fill="#854D0E"/>
<path d="M50 6L0 49.3013L50 92.6026H150L200 49.3013L150 6H50Z" fill="#22C55E"/>
<path d="M75 92.6026H100H125V6H100H75V92.6026Z" fill="#44403C"/>
<path d="M18.75 65.5393L21.875 68.2456L171.875 24.9443V18.9443L21.875 62.2456L18.75 59.5392L15.625 56.8329V62.833L18.75 65.5393Z" fill="#6B7280"/>
<path d="M28.125 73.6583L31.25 76.3646L34.375 79.0709L184.375 35.7696V29.7696L34.375 73.0709L31.25 70.3646L28.125 67.6582V73.6583Z" fill="#6B7280"/>
<path d="M75 86.6026H100H125V0H100H75V86.6026Z" fill="#78716C"/>
<path d="M18.75 59.5392L21.875 62.2456L171.875 18.9443L168.75 16.2379L165.625 13.5316L15.625 56.8329L18.75 59.5392Z" fill="#9CA3AF"/>
<path d="M28.125 67.6582L31.25 70.3646L34.375 73.0709L184.375 29.7696L181.25 27.0633L178.125 24.3569L28.125 67.6582Z" fill="#9CA3AF"/>
<path d="M200 49.3013L150 92.6026H50L0 49.3013V61.8009L50 105.102H150L200 61.8009V49.3013Z" fill="#166534"/>
<path d="M0 49.3013L50 92.6026V105.102L0 61.8009V49.3013Z" fill="#16A34A"/>
<path d="M50 92.6025H150V105.102H50V92.6025Z" fill="#15803D"/>
</svg>
