
<svg width="200" height="137" viewBox="0 0 200 137" fill="none" xmlns="http://www.w3.org/2000/svg">
<path d="M50 12L0 55.3013L50 98.6026H150L200 55.3013L150 12H50Z" fill="#22C55E"/>
<path d="M150 98.6026L200 55.3013V92.8003L150 136.101H50L0 92.8003V55.3013L50 98.6026H150Z" fill="#713F12"/>
<path d="M0 55.3013L50 98.6026V136.101L0 92.8003V55.3013Z" fill="#A16207"/>
<path d="M50 98.6025H150V136.101H50V98.6025Z" fill="#854D0E"/>
<path d="M50 0L0 43.3013L50 86.6026H150L200 43.3013L150 0H50Z" fill="#22C55E"/>
<path d="M93.75 45.2579V86.6026H81.25V35.6494C81.25 33.4221 82.7233 31.4633 84.8632 30.8455L165.625 7.53162L171.875 12.9443V18.9443L97.3632 40.454C95.2233 41.0718 93.75 43.0305 93.75 45.2579Z" fill="#6B7280"/>
<path d="M93.75 39.2578V80.6026H81.25V35.6494C81.25 33.4221 82.7233 31.4633 84.8633 30.8455L165.625 7.53162L171.875 12.9443L97.3633 34.454C95.2233 35.0717 93.75 37.0305 93.75 39.2578Z" fill="#9CA3AF"/>
<path d="M184.375 29.7696L122.363 47.6709C120.223 48.2887 118.75 50.2474 118.75 52.4747V86.6026H106.25V45.1055L178.125 24.357V18.3569L184.375 23.7696V29.7696Z" fill="#6B7280"/>
<path d="M122.363 41.6709L184.375 23.7696L178.125 18.3569L109.863 38.0624C107.723 38.6802 106.25 40.6389 106.25 42.8663V80.6026H118.75V46.4747C118.75 44.2474 120.223 42.2886 122.363 41.6709Z" fill="#9CA3AF"/>
<path d="M200 43.3013L150 86.6026H50L0 43.3013V55.8009L50 99.1019H150L200 55.8009V43.3013Z" fill="#166534"/>
<path d="M0 43.3013L50 86.6026V99.1019L0 55.8009V43.3013Z" fill="#16A34A"/>
<path d="M50 86.6025H150V99.1019H50V86.6025Z" fill="#15803D"/>
</svg>
