<svg width="200" height="137" viewBox="0 0 200 137" fill="none" xmlns="http://www.w3.org/2000/svg">
<path d="M150 0L200 43.3013L150 86.6026H50L0 43.3013L50 0H150Z" fill="#2ECC71"/>
<path d="M180.5 26.4V24.4L100 39.5L19.5 24.4V26.4L81.0793 43.6881C93.4539 47.1622 106.546 47.1622 118.921 43.6881L180.5 26.4Z" fill="#414040"/>
<path d="M170.65 17.9081V15.9L99.9792 29L29.3086 15.9351V17.9081L81.0132 32.4616C93.4162 35.9527 106.542 35.9527 118.945 32.4616L170.65 17.9081Z" fill="#414040"/>
<path d="M164.443 10.5177L170.652 15.8954L118.691 30.3135C106.461 33.7072 93.5377 33.7116 81.3049 30.3263L29.3018 15.9349L35.4999 10.5671L80.9691 23.3877C93.4128 26.8964 106.585 26.8902 119.026 23.3698L164.443 10.5177Z" fill="#C4C4C4"/>
<path d="M174.237 19L180.5 24.4235L119.29 41.9704C106.684 45.584 93.3163 45.584 80.7104 41.9704L19.5 24.4235L25.7626 19L81.3675 34.3548C93.561 37.7219 106.439 37.7219 118.633 34.3548L174.237 19Z" fill="#C4C4C4"/>
<path d="M50 86.6026L0 43.3013V93.3L50 136.6H150L200 93.3V43.3013L150 86.6026H50Z" fill="#31BF61"/>
</svg>
