
<svg width="200" height="137" viewBox="0 0 200 137" fill="none" xmlns="http://www.w3.org/2000/svg">
<path d="M150 12L200 55.3013L150 98.6026H50L0 55.3013L50 12H150Z" fill="#22C55E"/>
<path d="M50 98.6026L0 55.3013V92.8003L50 136.101H150L200 92.8003V55.3013L150 98.6026H50Z" fill="#A16207"/>
<path d="M200 55.3013L150 98.6026V136.101L200 92.8003V55.3013Z" fill="#713F12"/>
<path d="M150 98.6025H50V136.101H150V98.6025Z" fill="#854D0E"/>
<path d="M150 0L200 43.3013L150 86.6026H50L0 43.3013L50 0H150Z" fill="#22C55E"/>
<path d="M171.875 67.6583L168.75 70.3646L165.625 73.0709L15.625 29.7696V23.7696L165.625 67.0709L168.75 64.3646L171.875 61.6582V67.6583Z" fill="#6B7280"/>
<path d="M181.25 59.5393L178.125 62.2456L28.125 18.9443V12.9443L178.125 56.2456L181.25 53.5392L184.375 50.8329V56.833L181.25 59.5393Z" fill="#6B7280"/>
<path d="M175 15.6506L187.5 26.476L37.5 69.7773L25 58.9519L12.5 48.1266L162.5 4.82532L175 15.6506Z" fill="#78716C"/>
<path d="M131 48.65V42.65L118.7 46.3L129 49.3L131 48.65Z" fill="#44403C"/>
<path d="M187.5 32.476V26.476L139 40.4767L144.115 45L187.5 32.476Z" fill="#44403C"/>
<path d="M37.5 75.7772L25 64.9519L12.5 54.1266V48.1266L25 58.9519L37.5 69.7772L106.01 50V56L37.5 75.7772Z" fill="#44403C"/>
<path d="M181.25 53.5392L178.125 56.2456L28.125 12.9443L31.25 10.2379L34.375 7.53162L184.375 50.8329L181.25 53.5392Z" fill="#9CA3AF"/>
<path d="M171.875 61.6582L168.75 64.3646L165.625 67.0709L15.625 23.7696L18.75 21.0633L21.875 18.3569L171.875 61.6582Z" fill="#9CA3AF"/>
<path d="M0 43.3013L50 86.6026H150L200 43.3013V55.8009L150 99.1019H50L0 55.8009V43.3013Z" fill="#16A34A"/>
<path d="M200 43.3013L150 86.6026V99.1019L200 55.8009V43.3013Z" fill="#166534"/>
<path d="M150 86.6025H50V99.1019H150V86.6025Z" fill="#15803D"/>
</svg>
