<svg width="200" height="137" viewBox="0 0 200 137" fill="none" xmlns="http://www.w3.org/2000/svg">
<path d="M50 0L0 43.3013L50 86.6026H150L200 43.3013L150 0H50Z" fill="#2ECC71"/>
<path d="M150 86.6026L200 43.3013V93.3L150 136.6H50L0 93.3V43.3013L50 86.6026H150Z" fill="#31BF61"/>
<path d="M14.4406 54V55.8013L20.6906 61.214L170.65 17.8778L170.7 15.9208L164.441 10.5L14.4406 54Z" fill="#414040"/>
<path d="M14.4404 53.8013L164.44 10.5L170.69 15.9127L20.6904 59.214L14.4404 53.8013Z" fill="#C4C4C4"/>
<path d="M30.5 69.714L180.5 26.4127V24.412L174.269 19.016L24.25 62.262V64.3013L30.5 69.714Z" fill="#414040"/>
<path d="M30.5 67.714L180.5 24.4127L174.25 19L24.25 62.3013L30.5 67.714Z" fill="#C4C4C4"/>
</svg>
