<svg width="200" height="139" viewBox="0 0 200 139" fill="none" xmlns="http://www.w3.org/2000/svg">
<path d="M50 1.99706L0 45.2984L50 88.5997H150L200 45.2984L150 1.99706H50Z" fill="#2ECC71"/>
<path d="M150 88.5997L200 45.2984V95.2971L150 138.597H50L0 95.2971V45.2984L50 88.5997H150Z" fill="#31BF61"/>
<path d="M103.3 1.99998H112C111.104 29.4645 92.7186 53.2677 66.3713 61.0731L30.5 71.7L24.5 66.5L61.7877 54.7249C85.1443 47.3492 101.611 26.4351 103.3 1.99998Z" fill="#414040"/>
<path d="M89 1.99998H97.75C95.7734 23.8942 81.0957 42.574 60.2904 49.6734L20.6499 63.2L14.5 58L56.0739 43.3613C74.0698 37.0247 86.8595 20.9584 89 1.99998Z" fill="#414040"/>
<path d="M24.25 64.3L30.5 69.7L66.3713 59.0731C92.7186 51.2677 111.104 27.4645 112 0H103.25C101.899 24.6184 85.3012 45.7659 61.709 52.9281L24.25 64.3Z" fill="#C4C4C4"/>
<path d="M14.4502 55.8L20.65 61.2L60.2905 47.6734C81.0957 40.574 95.7734 21.8942 97.75 0H89C87.4774 18.2712 75.4195 33.9677 58.1583 40.1487L14.4502 55.8Z" fill="#C4C4C4"/>
</svg>
