
<svg width="200" height="143" viewBox="0 0 200 143" fill="none" xmlns="http://www.w3.org/2000/svg">
<path d="M150 18L200 61.3013L150 104.603H50L0 61.3013L50 18H150Z" fill="#22C55E"/>
<path d="M50 104.603L0 61.3013V98.8003L50 142.101H150L200 98.8003V61.3013L150 104.603H50Z" fill="#A16207"/>
<path d="M200 61.3013L150 104.603V142.101L200 98.8003V61.3013Z" fill="#713F12"/>
<path d="M150 104.603H50V142.101H150V104.603Z" fill="#854D0E"/>
<path d="M150 6L200 49.3013L150 92.6026H50L0 49.3013L50 6H150Z" fill="#22C55E"/>
<path d="M106.25 6H112.5H118.75V92.6026H112.5H106.25V6Z" fill="#6B7280"/>
<path d="M87.5 6H93.75V92.6026H87.5H81.25V6H87.5Z" fill="#6B7280"/>
<path d="M106.25 0H112.5H118.75V86.6026H112.5H106.25V0Z" fill="#9CA3AF"/>
<path d="M87.5 0H93.75V86.6026H87.5H81.25V0H87.5Z" fill="#9CA3AF"/>
<path d="M0 49.3013L50 92.6026H150L200 49.3013V61.8009L150 105.102H50L0 61.8009V49.3013Z" fill="#16A34A"/>
<path d="M200 49.3013L150 92.6026V105.102L200 61.8009V49.3013Z" fill="#166534"/>
<path d="M150 92.6025H50V105.102H150V92.6025Z" fill="#15803D"/>
</svg>
