
<svg width="200" height="137" viewBox="0 0 200 137" fill="none" xmlns="http://www.w3.org/2000/svg">
<path d="M150 12L200 55.3013L150 98.6026H50L0 55.3013L50 12H150Z" fill="#22C55E"/>
<path d="M50 98.6026L0 55.3013V92.8003L50 136.101H150L200 92.8003V55.3013L150 98.6026H50Z" fill="#A16207"/>
<path d="M200 55.3013L150 98.6026V136.101L200 92.8003V55.3013Z" fill="#713F12"/>
<path d="M150 98.6025H50V136.101H150V98.6025Z" fill="#854D0E"/>
<path d="M150 0L200 43.3013L150 86.6026H50L0 43.3013L50 0H150Z" fill="#22C55E"/>
<path d="M178.125 62.2456L102.774 40.4935C100.961 39.9704 99.0385 39.9704 97.2265 40.4935L21.875 62.2456L15.625 56.833V50.8329L97.2265 27.2766C99.0385 26.7535 100.961 26.7535 102.774 27.2766L184.375 50.8329V56.833L178.125 62.2456Z" fill="#6B7280"/>
<path d="M21.875 56.2456L18.75 53.5393L15.625 50.8329L97.2265 27.2766C99.0385 26.7535 100.961 26.7535 102.774 27.2766L184.375 50.8329L181.25 53.5393L178.125 56.2456L102.774 34.4935C100.961 33.9704 99.0385 33.9704 97.2265 34.4935L21.875 56.2456Z" fill="#9CA3AF"/>
<path d="M102.774 54.9273L165.625 73.071L171.875 67.6583V61.6583L102.774 41.7104C100.961 41.1874 99.0385 41.1874 97.2265 41.7104L28.125 61.6583V67.6583L34.375 73.071L97.2265 54.9273C99.0385 54.4042 100.961 54.4042 102.774 54.9273Z" fill="#6B7280"/>
<path d="M31.25 64.3647L28.125 61.6583L97.2265 41.7104C99.0385 41.1874 100.961 41.1874 102.774 41.7104L171.875 61.6583L168.75 64.3647L165.625 67.071L102.774 48.9273C100.961 48.4042 99.0385 48.4042 97.2265 48.9273L34.375 67.071L31.25 64.3647Z" fill="#9CA3AF"/>
<path d="M0 43.3013L50 86.6026H150L200 43.3013V55.8009L150 99.1019H50L0 55.8009V43.3013Z" fill="#16A34A"/>
<path d="M200 43.3013L150 86.6026V99.1019L200 55.8009V43.3013Z" fill="#166534"/>
<path d="M150 86.6025H50V99.1019H150V86.6025Z" fill="#15803D"/>
</svg>
