<svg width="200" height="139" viewBox="0 0 200 139" fill="none" xmlns="http://www.w3.org/2000/svg">
<path d="M50 2L0 45.3013L50 88.6026H150L200 45.3013L150 2H50Z" fill="#2ECC71"/>
<path d="M150 88.6026L200 45.3013V95.3L150 138.6H50L0 95.3V45.3013L50 88.6026H150Z" fill="#31BF61"/>
<path d="M14.4406 56V57.8013L20.6906 63.214L170.65 19.8778L170.7 17.9208L164.441 12.5L14.4406 56Z" fill="#414040"/>
<path d="M14.4404 55.8013L164.44 12.5L170.69 17.9127L20.6904 61.214L14.4404 55.8013Z" fill="#C4C4C4"/>
<path d="M30.5 71.714L180.5 28.4127V26.412L174.269 21.016L24.25 64.262V66.3013L30.5 71.714Z" fill="#414040"/>
<path d="M30.5 69.714L180.5 26.4127L174.25 21L24.25 64.3013L30.5 69.714Z" fill="#C4C4C4"/>
<path d="M83 86.5H118V88.5H83V86.5Z" fill="#414040"/>
<path fill-rule="evenodd" clip-rule="evenodd" d="M83 0H118V25.9062L83 36.0099V0ZM83 43.2267V47.3416L118 37.238V33.1231L83 43.2267ZM83 54.5585L118 44.4549V86.6H83V54.5585Z" fill="#6C6C6C"/>
</svg>
