
<svg width="200" height="143" viewBox="0 0 200 143" fill="none" xmlns="http://www.w3.org/2000/svg">
<path d="M150 18L200 61.3013L150 104.603H50L0 61.3013L50 18H150Z" fill="#22C55E"/>
<path d="M50 104.603L0 61.3013V98.8003L50 142.101H150L200 98.8003V61.3013L150 104.603H50Z" fill="#A16207"/>
<path d="M200 61.3013L150 104.603V142.101L200 98.8003V61.3013Z" fill="#713F12"/>
<path d="M150 104.603H50V142.101H150V104.603Z" fill="#854D0E"/>
<path d="M150 6L200 49.3013L150 92.6026H50L0 49.3013L50 6H150Z" fill="#22C55E"/>
<path d="M125 92.6026H100H75V6H100H125V92.6026Z" fill="#44403C"/>
<path d="M181.25 65.5393L178.125 68.2456L28.125 24.9443V18.9443L178.125 62.2456L181.25 59.5392L184.375 56.8329V62.833L181.25 65.5393Z" fill="#6B7280"/>
<path d="M171.875 73.6583L168.75 76.3646L165.625 79.0709L15.625 35.7696V29.7696L165.625 73.0709L168.75 70.3646L171.875 67.6582V73.6583Z" fill="#6B7280"/>
<path d="M125 86.6026H100H75V0H100H125V86.6026Z" fill="#78716C"/>
<path d="M181.25 59.5392L178.125 62.2456L28.125 18.9443L31.25 16.2379L34.375 13.5316L184.375 56.8329L181.25 59.5392Z" fill="#9CA3AF"/>
<path d="M171.875 67.6582L168.75 70.3646L165.625 73.0709L15.625 29.7696L18.75 27.0633L21.875 24.3569L171.875 67.6582Z" fill="#9CA3AF"/>
<path d="M0 49.3013L50 92.6026H150L200 49.3013V61.8009L150 105.102H50L0 61.8009V49.3013Z" fill="#16A34A"/>
<path d="M200 49.3013L150 92.6026V105.102L200 61.8009V49.3013Z" fill="#166534"/>
<path d="M150 92.6025H50V105.102H150V92.6025Z" fill="#15803D"/>
</svg>
