<svg width="200" height="139" viewBox="0 0 200 139" fill="none" xmlns="http://www.w3.org/2000/svg">
<path d="M150 1.99706L200 45.2984L150 88.5997H50L0 45.2984L50 1.99706H150Z" fill="#2ECC71"/>
<path d="M50 88.5997L0 45.2984V95.2971L50 138.597H150L200 95.2971V45.2984L150 88.5997H50Z" fill="#31BF61"/>
<path d="M96.7 1.99998H88C88.8956 29.4645 107.281 53.2677 133.629 61.0731L169.5 71.7L175.5 66.5L138.212 54.7249C114.856 47.3492 98.3893 26.4351 96.7 1.99998Z" fill="#414040"/>
<path d="M111 1.99998H102.25C104.227 23.8942 118.904 42.574 139.71 49.6734L179.35 63.2L185.5 58L143.926 43.3613C125.93 37.0247 113.14 20.9584 111 1.99998Z" fill="#414040"/>
<path d="M175.75 64.3L169.5 69.7L133.629 59.0731C107.281 51.2677 88.8956 27.4645 88 0H96.75C98.101 24.6184 114.699 45.7659 138.291 52.9281L175.75 64.3Z" fill="#C4C4C4"/>
<path d="M185.55 55.8L179.35 61.2L139.71 47.6734C118.904 40.574 104.227 21.8942 102.25 0H111C112.523 18.2712 124.58 33.9677 141.842 40.1487L185.55 55.8Z" fill="#C4C4C4"/>
</svg>
