<svg width="200" height="161" viewBox="0 0 200 161" fill="none" xmlns="http://www.w3.org/2000/svg">
<path d="M150 24L200 67.3013L150 110.603H50L0 67.3013L50 24H150Z" fill="#2ECC71"/>
<path d="M50 110.603L0 67.3013V117.3L50 160.6H150L200 117.3V67.3013L150 110.603H50Z" fill="#31BF61"/>
<path d="M107.979 37.8338H111.567V59.3238L107.979 61.5881V37.8338Z" fill="#AA7751"/>
<path d="M107.979 37.8338H104.39V59.3238L107.979 61.5881V37.8338Z" fill="#C59161"/>
<path d="M107.979 0.194336L119.079 51.4627H96.8788L107.979 0.194336Z" fill="#62A25E"/>
<path d="M108.021 0.0661621L96.9477 51.4627L92 41.978L108.021 0.0661621Z" fill="#6CB968"/>
<path d="M107.979 0L119.052 51.3965L124 41.9119L107.979 0Z" fill="#497C46"/>
<path d="M86.9785 46.8338H90.5673V68.3238L86.9785 70.5881V46.8338Z" fill="#AA7751"/>
<path d="M86.9785 46.8338H83.3897V68.3238L86.9785 70.5881V46.8338Z" fill="#C59161"/>
<path d="M86.9787 9.19434L98.0786 60.4627H75.8788L86.9787 9.19434Z" fill="#62A25E"/>
<path d="M87.0214 9.06616L75.9477 60.4627L71 50.978L87.0214 9.06616Z" fill="#6CB968"/>
<path d="M86.9786 9L98.0523 60.3965L103 50.9119L86.9786 9Z" fill="#497C46"/>
<path d="M134.979 41.8338H138.567V63.3238L134.979 65.5881V41.8338Z" fill="#AA7751"/>
<path d="M134.979 41.8338H131.39V63.3238L134.979 65.5881V41.8338Z" fill="#C59161"/>
<path d="M134.979 4.19434L146.079 55.4627H123.879L134.979 4.19434Z" fill="#62A25E"/>
<path d="M135.021 4.06616L123.948 55.4627L119 45.978L135.021 4.06616Z" fill="#6CB968"/>
<path d="M134.979 4L146.052 55.3965L151 45.9119L134.979 4Z" fill="#497C46"/>
<path d="M154.979 46.8338H158.567V68.3238L154.979 70.5881V46.8338Z" fill="#AA7751"/>
<path d="M154.979 46.8338H151.39V68.3238L154.979 70.5881V46.8338Z" fill="#C59161"/>
<path d="M154.979 9.19434L166.079 60.4627H143.879L154.979 9.19434Z" fill="#62A25E"/>
<path d="M155.021 9.06616L143.948 60.4627L139 50.978L155.021 9.06616Z" fill="#6CB968"/>
<path d="M154.979 9L166.052 60.3965L171 50.9119L154.979 9Z" fill="#497C46"/>
<path d="M104.979 68.8338H108.567V90.3238L104.979 92.5881V68.8338Z" fill="#AA7751"/>
<path d="M104.979 68.8338H101.39V90.3238L104.979 92.5881V68.8338Z" fill="#C59161"/>
<path d="M104.979 31.1943L116.079 82.4627H93.8788L104.979 31.1943Z" fill="#62A25E"/>
<path d="M105.021 31.0662L93.9477 82.4627L89 72.978L105.021 31.0662Z" fill="#6CB968"/>
<path d="M104.979 31L116.052 82.3965L121 72.9119L104.979 31Z" fill="#497C46"/>
<path d="M61.9785 39.8338H65.5673V61.3238L61.9785 63.5881V39.8338Z" fill="#AA7751"/>
<path d="M61.9785 39.8338H58.3897V61.3238L61.9785 63.5881V39.8338Z" fill="#C59161"/>
<path d="M61.9787 2.19434L73.0786 53.4627H50.8788L61.9787 2.19434Z" fill="#62A25E"/>
<path d="M62.0214 2.06616L50.9477 53.4627L46 43.978L62.0214 2.06616Z" fill="#6CB968"/>
<path d="M61.9786 2L73.0523 53.3965L78 43.9119L61.9786 2Z" fill="#497C46"/>
<path d="M47.7751 61.8232H52.2166V88.4193L47.7751 91.2217V61.8232Z" fill="#AA7751"/>
<path d="M47.7751 61.8232H43.3337V88.4193L47.7751 91.2217V61.8232Z" fill="#C59161"/>
<path d="M47.7753 15.2405L61.5126 78.6904H34.038L47.7753 15.2405Z" fill="#62A25E"/>
<path d="M47.8281 15.0818L34.1233 78.6904L28 66.9521L47.8281 15.0818Z" fill="#6CB968"/>
<path d="M47.7752 15L61.48 78.6085L67.6033 66.8703L47.7752 15Z" fill="#497C46"/>
<path d="M76.7751 77.8232H81.2166V104.419L76.7751 107.222V77.8232Z" fill="#AA7751"/>
<path d="M76.7751 77.8232H72.3337V104.419L76.7751 107.222V77.8232Z" fill="#C59161"/>
<path d="M76.7753 31.2405L90.5126 94.6904H63.038L76.7753 31.2405Z" fill="#62A25E"/>
<path d="M76.8281 31.0818L63.1233 94.6904L57 82.9521L76.8281 31.0818Z" fill="#6CB968"/>
<path d="M76.7752 31L90.48 94.6085L96.6033 82.8703L76.7752 31Z" fill="#497C46"/>
<path d="M132.106 75.3405H136.786V103.366L132.106 106.319V75.3405Z" fill="#AA7751"/>
<path d="M132.106 75.3405H127.426V103.366L132.106 106.319V75.3405Z" fill="#C59161"/>
<path d="M132.106 26.2534L146.582 93.1144H117.63L132.106 26.2534Z" fill="#62A25E"/>
<path d="M132.162 26.0862L117.72 93.1144L111.268 80.7451L132.162 26.0862Z" fill="#6CB968"/>
<path d="M132.106 26L146.547 93.0282L153 80.6589L132.106 26Z" fill="#497C46"/>
</svg>
