
<svg width="200" height="231" viewBox="0 0 200 231" fill="none" xmlns="http://www.w3.org/2000/svg">
<path d="M150 106.45L200 149.751L150 193.053H50L0 149.751L50 106.45H150Z" fill="#22C55E"/>
<path d="M50 193.053L0 149.751V187.25L50 230.551H150L200 187.25V149.751L150 193.053H50Z" fill="#A16207"/>
<path d="M200 149.751L150 193.053V230.551L200 187.25V149.751Z" fill="#713F12"/>
<path d="M150 193.052H50V230.551H150V193.052Z" fill="#854D0E"/>
<path d="M150 94.45L200 137.751L150 181.053H50L0 137.751L50 94.45H150Z" fill="#22C55E"/>
<path d="M0 137.751L50 181.053H150L200 137.751V150.251L150 193.552H50L0 150.251V137.751Z" fill="#16A34A"/>
<path d="M200 137.751L150 181.053V193.552L200 150.251V137.751Z" fill="#166534"/>
<path d="M150 181.052H50V193.552H150V181.052Z" fill="#15803D"/>
<path d="M141.25 92.74L183 128.897L141.25 165.053H57.75L16 128.897L57.75 92.74H141.25Z" fill="#A1A1AA"/>
<path d="M57.75 165.053L16 128.896V137.83L57.75 174.152H141.25L183 137.83V128.896L141.25 165.053H57.75Z" fill="#78716C"/>
<path d="M141.25 165.053H57.75V174.152H141.25V165.053Z" fill="#57534E"/>
<path d="M183 128.896L141.25 165.053V174.152L183 137.83V128.896Z" fill="#44403C"/>
<path d="M183 128.9L141.25 165.048L99.5 0L183 128.9Z" fill="#52525B"/>
<path d="M99.5 0L109.569 39.8047V23.3904L118.12 28.725L99.5 0Z" fill="#CBD5E1"/>
<path d="M141.25 165.048H57.75L99.5 0L141.25 165.048Z" fill="#71717A"/>
<path d="M99.5 0L89.48 39.6115L102.005 30.7768L109.52 39.6115L99.5 0Z" fill="#E2E8F0"/>
<path d="M57.75 165.048L16 128.9L99.5 0L57.75 165.048Z" fill="#A1A1AA"/>
<path d="M79.8199 30.3665L99.5 0L89.4311 39.8047L88.2275 24.6215L79.8199 30.3665Z" fill="#F1F5F9"/>
</svg>